<svg width="17" height="17" viewBox="0 0 17 17" fill="none" xmlns="http://www.w3.org/2000/svg">
<path d="M9.67993 12.8C9.67993 11.58 9.21993 10.49 8.48993 9.78003C7.76993 10.49 7.29993 11.58 7.29993 12.8C7.29993 14.02 7.75993 15.11 8.48993 15.82C9.20993 15.11 9.67993 14.02 9.67993 12.8Z" stroke="#FAE033" stroke-width="0.84" stroke-miterlimit="10"/>
<path d="M6.86996 12.66C7.58996 11.67 7.84996 10.52 7.67996 9.52002C6.67996 9.67002 5.65996 10.28 4.94996 11.26C4.23996 12.24 3.96996 13.4 4.13996 14.4C5.13996 14.25 6.15996 13.64 6.86996 12.66Z" stroke="#FAE033" stroke-width="0.84" stroke-miterlimit="10"/>
<path d="M4.67994 10.9C5.83994 10.52 6.72994 9.75001 7.17994 8.84001C6.27994 8.37001 5.09994 8.27001 3.93994 8.64001C2.77994 9.01001 1.88994 9.79001 1.43994 10.7C2.33994 11.17 3.51994 11.27 4.67994 10.9Z" stroke="#FAE033" stroke-width="0.84" stroke-miterlimit="10"/>
<path d="M3.94995 8.17999C5.10995 8.55999 6.28995 8.44999 7.18995 7.97999C6.73995 7.06999 5.84995 6.29999 4.68995 5.91999C3.52995 5.53999 2.34995 5.64999 1.44995 6.11999C1.89995 7.02999 2.78995 7.79999 3.94995 8.17999Z" stroke="#FAE033" stroke-width="0.84" stroke-miterlimit="10"/>
<path d="M4.94996 5.54997C5.66996 6.53997 6.67996 7.13997 7.67996 7.28997C7.84996 6.28997 7.57996 5.13997 6.86996 4.14997C6.15996 3.15997 5.13996 2.55997 4.13996 2.40997C3.96996 3.40997 4.23996 4.55997 4.94996 5.54997Z" stroke="#FAE033" stroke-width="0.84" stroke-miterlimit="10"/>
<path d="M7.29993 4.02C7.29993 5.24 7.75993 6.33 8.48993 7.04C9.20993 6.33 9.67993 5.24 9.67993 4.02C9.67993 2.8 9.21993 1.71 8.48993 1C7.76993 1.71 7.29993 2.8 7.29993 4.02Z" stroke="#FAE033" stroke-width="0.84" stroke-miterlimit="10"/>
<path d="M10.1099 4.15998C9.38993 5.14998 9.12993 6.29998 9.29993 7.29998C10.2999 7.14998 11.3199 6.53998 12.0299 5.55998C12.7399 4.57998 13.0099 3.41998 12.8399 2.41998C11.8399 2.56998 10.8199 3.17998 10.1099 4.15998Z" stroke="#FAE033" stroke-width="0.84" stroke-miterlimit="10"/>
<path d="M12.2999 5.91998C11.1399 6.29998 10.2499 7.06998 9.79993 7.97998C10.6999 8.44998 11.8799 8.54998 13.0399 8.17998C14.1999 7.80998 15.0899 7.02998 15.5399 6.11998C14.6399 5.64998 13.4599 5.54998 12.2999 5.91998Z" stroke="#FAE033" stroke-width="0.84" stroke-miterlimit="10"/>
<path d="M13.0299 8.64002C11.8699 8.26002 10.6899 8.37002 9.78992 8.84002C10.2399 9.75002 11.1299 10.52 12.2899 10.9C13.4499 11.28 14.6299 11.17 15.5299 10.7C15.0799 9.79002 14.1899 9.02002 13.0299 8.64002Z" stroke="#FAE033" stroke-width="0.84" stroke-miterlimit="10"/>
<path d="M12.03 11.27C11.31 10.28 10.3 9.68003 9.29999 9.53003C9.12999 10.53 9.39999 11.68 10.11 12.67C10.82 13.66 11.84 14.26 12.84 14.41C13.01 13.41 12.74 12.26 12.03 11.27Z" stroke="#FAE033" stroke-width="0.84" stroke-miterlimit="10"/>
<path d="M6.11001 14.9C6.04001 15.12 6.08001 15.35 6.20001 15.53C6.40001 15.45 6.57001 15.29 6.64001 15.07C6.71001 14.85 6.67001 14.62 6.55001 14.44C6.35001 14.52 6.18001 14.68 6.11001 14.9Z" fill="#FAE033"/>
<path d="M2.73994 12.26C2.54994 12.4 2.44994 12.61 2.43994 12.83C2.64994 12.89 2.87994 12.85 3.06994 12.71C3.25994 12.57 3.35994 12.36 3.36994 12.14C3.15994 12.08 2.92994 12.12 2.73994 12.26Z" fill="#FAE033"/>
<path d="M1.58 8.14996C1.35 8.14996 1.14 8.25996 1 8.42996C1.14 8.59996 1.34 8.70996 1.58 8.70996C1.82 8.70996 2.02 8.59996 2.16 8.42996C2.02 8.25996 1.82 8.14996 1.58 8.14996Z" fill="#FAE033"/>
<path d="M3.05004 4.13997C2.86004 3.99997 2.63004 3.96997 2.42004 4.02997C2.43004 4.24997 2.54004 4.45997 2.72004 4.58997C2.90004 4.71997 3.14004 4.75997 3.35004 4.69997C3.34004 4.47997 3.23004 4.26997 3.05004 4.13997Z" fill="#FAE033"/>
<path d="M6.59995 1.75999C6.52995 1.53999 6.35995 1.36999 6.15995 1.29999C6.03995 1.47999 5.99995 1.70999 6.07995 1.93999C6.15995 2.16999 6.31995 2.32999 6.51995 2.39999C6.63995 2.21999 6.67995 1.98999 6.59995 1.75999Z" fill="#FAE033"/>
<path d="M10.87 1.91998C10.94 1.69998 10.9 1.46998 10.78 1.28998C10.58 1.36998 10.41 1.52998 10.34 1.74998C10.27 1.96998 10.31 2.19998 10.43 2.37998C10.63 2.29998 10.8 2.13998 10.87 1.91998Z" fill="#FAE033"/>
<path d="M14.23 4.55995C14.42 4.41995 14.52 4.20995 14.53 3.98995C14.32 3.92995 14.09 3.96995 13.9 4.10995C13.71 4.24995 13.61 4.45995 13.6 4.67995C13.81 4.73995 14.04 4.69995 14.23 4.55995Z" fill="#FAE033"/>
<path d="M15.3999 8.66999C15.6299 8.66999 15.8399 8.55999 15.9799 8.38999C15.8399 8.21999 15.6399 8.10999 15.3999 8.10999C15.1599 8.10999 14.9599 8.21999 14.8199 8.38999C14.9599 8.55999 15.1599 8.66999 15.3999 8.66999Z" fill="#FAE033"/>
<path d="M13.93 12.68C14.12 12.82 14.35 12.85 14.56 12.79C14.55 12.57 14.44 12.36 14.26 12.23C14.08 12.1 13.84 12.06 13.63 12.12C13.64 12.34 13.75 12.55 13.93 12.68Z" fill="#FAE033"/>
<path d="M10.38 15.06C10.45 15.28 10.62 15.45 10.82 15.52C10.94 15.34 10.98 15.11 10.9 14.88C10.82 14.65 10.66 14.49 10.46 14.42C10.34 14.6 10.3 14.83 10.38 15.06Z" fill="#FAE033"/>
</svg>
