<svg width="32" height="33" viewBox="0 0 32 33" fill="none" xmlns="http://www.w3.org/2000/svg">
<path d="M18.35 25.59C18.35 23.15 17.42 20.98 15.97 19.56C14.52 20.98 13.59 23.15 13.59 25.59C13.59 28.03 14.52 30.2 15.97 31.62C17.42 30.2 18.35 28.03 18.35 25.59Z" stroke="#FAE033" stroke-width="1.69" stroke-miterlimit="10"/>
<path d="M12.74 25.31C14.17 23.34 14.7 21.03 14.37 19.03C12.37 19.33 10.34 20.54 8.90002 22.52C7.46002 24.5 6.94002 26.8 7.27002 28.8C9.27002 28.5 11.3 27.29 12.74 25.31Z" stroke="#FAE033" stroke-width="1.69" stroke-miterlimit="10"/>
<path d="M8.36001 21.78C10.68 21.03 12.46 19.47 13.36 17.66C11.56 16.72 9.21001 16.51 6.89001 17.27C4.57001 18.03 2.79001 19.58 1.89001 21.39C3.69001 22.33 6.04001 22.54 8.36001 21.78Z" stroke="#FAE033" stroke-width="1.69" stroke-miterlimit="10"/>
<path d="M6.89001 16.35C9.21001 17.1 11.57 16.89 13.36 15.96C12.46 14.15 10.68 12.59 8.36001 11.84C6.04001 11.09 3.68001 11.3 1.89001 12.23C2.79001 14.04 4.57001 15.6 6.89001 16.35Z" stroke="#FAE033" stroke-width="1.69" stroke-miterlimit="10"/>
<path d="M8.90001 11.1C10.33 13.07 12.36 14.29 14.37 14.59C14.71 12.59 14.18 10.29 12.74 8.31001C11.3 6.33001 9.28001 5.12001 7.27001 4.82001C6.93001 6.82001 7.46001 9.12001 8.90001 11.1Z" stroke="#FAE033" stroke-width="1.69" stroke-miterlimit="10"/>
<path d="M13.6 8.03C13.6 10.47 14.53 12.64 15.98 14.06C17.43 12.64 18.36 10.47 18.36 8.03C18.36 5.59 17.43 3.42 15.98 2C14.53 3.42 13.6 5.59 13.6 8.03Z" stroke="#FAE033" stroke-width="1.69" stroke-miterlimit="10"/>
<path d="M19.2201 8.31001C17.7901 10.28 17.2601 12.59 17.5901 14.59C19.5901 14.29 21.6201 13.08 23.0601 11.1C24.5001 9.12001 25.0201 6.82001 24.6901 4.82001C22.6901 5.12001 20.6601 6.33001 19.2201 8.31001Z" stroke="#FAE033" stroke-width="1.69" stroke-miterlimit="10"/>
<path d="M23.6 11.84C21.28 12.59 19.5 14.15 18.6 15.96C20.4 16.9 22.75 17.11 25.07 16.35C27.39 15.59 29.17 14.04 30.07 12.23C28.27 11.29 25.92 11.08 23.6 11.84Z" stroke="#FAE033" stroke-width="1.69" stroke-miterlimit="10"/>
<path d="M25.07 17.27C22.75 16.52 20.39 16.73 18.6 17.66C19.5 19.47 21.28 21.03 23.6 21.78C25.92 22.53 28.28 22.32 30.07 21.39C29.17 19.58 27.39 18.02 25.07 17.27Z" stroke="#FAE033" stroke-width="1.69" stroke-miterlimit="10"/>
<path d="M23.06 22.52C21.63 20.55 19.6 19.33 17.59 19.03C17.25 21.03 17.78 23.33 19.22 25.31C20.66 27.29 22.68 28.5 24.69 28.8C25.03 26.8 24.5 24.5 23.06 22.52Z" stroke="#FAE033" stroke-width="1.69" stroke-miterlimit="10"/>
<path d="M11.21 29.8C11.07 30.24 11.15 30.71 11.39 31.07C11.8 30.92 12.13 30.59 12.27 30.14C12.41 29.69 12.33 29.23 12.09 28.87C11.68 29.02 11.35 29.35 11.21 29.8Z" fill="#FAE033"/>
<path d="M4.49001 24.52C4.11001 24.8 3.91001 25.22 3.89001 25.65C4.31001 25.76 4.77001 25.69 5.15001 25.42C5.53001 25.15 5.73001 24.72 5.75001 24.29C5.33001 24.18 4.87001 24.25 4.49001 24.52Z" fill="#FAE033"/>
<path d="M2.15 16.29C1.68 16.29 1.27 16.51 1 16.85C1.27 17.19 1.69 17.41 2.16 17.4C2.63 17.39 3.04 17.18 3.31 16.84C3.04 16.5 2.62 16.28 2.15 16.29Z" fill="#FAE033"/>
<path d="M5.09997 8.25999C4.71997 7.98999 4.25997 7.91999 3.83997 8.03999C3.85997 8.46999 4.06997 8.88999 4.44997 9.16999C4.82997 9.44999 5.28997 9.50999 5.70997 9.38999C5.68997 8.95999 5.47997 8.53999 5.09997 8.25999Z" fill="#FAE033"/>
<path d="M12.2 3.50002C12.05 3.06002 11.72 2.73002 11.31 2.58002C11.07 2.94002 10.99 3.41002 11.14 3.85002C11.29 4.29002 11.62 4.62002 12.03 4.77002C12.27 4.41002 12.35 3.94002 12.2 3.50002Z" fill="#FAE033"/>
<path d="M20.75 3.81999C20.89 3.37999 20.81 2.90999 20.57 2.54999C20.16 2.69999 19.83 3.02999 19.69 3.47999C19.55 3.92999 19.63 4.38999 19.87 4.74999C20.28 4.59999 20.61 4.26999 20.75 3.81999Z" fill="#FAE033"/>
<path d="M27.47 9.09997C27.85 8.81997 28.05 8.39997 28.07 7.96997C27.65 7.85997 27.19 7.92997 26.81 8.19997C26.43 8.46997 26.23 8.89997 26.21 9.32997C26.63 9.43997 27.09 9.36997 27.47 9.09997Z" fill="#FAE033"/>
<path d="M29.8 17.33C30.27 17.33 30.68 17.11 30.95 16.77C30.68 16.43 30.26 16.21 29.79 16.22C29.32 16.23 28.91 16.44 28.64 16.78C28.91 17.12 29.33 17.34 29.8 17.33Z" fill="#FAE033"/>
<path d="M26.86 25.36C27.24 25.63 27.7 25.7 28.12 25.58C28.1 25.15 27.89 24.73 27.51 24.45C27.13 24.17 26.67 24.11 26.25 24.23C26.27 24.66 26.48 25.08 26.86 25.36Z" fill="#FAE033"/>
<path d="M19.76 30.12C19.91 30.56 20.24 30.89 20.65 31.04C20.89 30.68 20.97 30.21 20.82 29.77C20.67 29.33 20.34 29 19.93 28.85C19.69 29.21 19.61 29.68 19.76 30.12Z" fill="#FAE033"/>
</svg>
