<svg width="47" height="49" viewBox="0 0 47 49" fill="none" xmlns="http://www.w3.org/2000/svg">
<path d="M27.0299 37.4C27.0299 33.74 25.6399 30.48 23.4699 28.35C21.2999 30.48 19.9099 33.74 19.9099 37.4C19.9099 41.06 21.2999 44.32 23.4699 46.45C25.6399 44.32 27.0299 41.06 27.0299 37.4Z" stroke="#FAE033" stroke-width="2.53" stroke-miterlimit="10"/>
<path d="M18.61 36.97C20.76 34.01 21.55 30.55 21.05 27.55C18.04 28 15 29.82 12.85 32.78C10.7 35.74 9.90998 39.2 10.41 42.2C13.42 41.75 16.46 39.93 18.61 36.97Z" stroke="#FAE033" stroke-width="2.53" stroke-miterlimit="10"/>
<path d="M12.04 31.68C15.52 30.55 18.19 28.22 19.55 25.49C16.85 24.08 13.32 23.77 9.83996 24.9C6.35996 26.03 3.68996 28.36 2.32996 31.09C5.02996 32.5 8.55996 32.81 12.04 31.68Z" stroke="#FAE033" stroke-width="2.53" stroke-miterlimit="10"/>
<path d="M9.83996 23.54C13.32 24.67 16.85 24.35 19.55 22.95C18.2 20.23 15.52 17.9 12.04 16.76C8.55996 15.62 5.02996 15.95 2.32996 17.35C3.67996 20.07 6.35996 22.4 9.83996 23.54Z" stroke="#FAE033" stroke-width="2.53" stroke-miterlimit="10"/>
<path d="M12.84 15.65C14.99 18.61 18.03 20.43 21.04 20.88C21.54 17.88 20.75 14.43 18.6 11.46C16.45 8.48998 13.41 6.67998 10.4 6.22998C9.89997 9.22998 10.69 12.68 12.84 15.65Z" stroke="#FAE033" stroke-width="2.53" stroke-miterlimit="10"/>
<path d="M19.9099 11.05C19.9099 14.71 21.2999 17.97 23.4699 20.1C25.6399 17.97 27.0299 14.71 27.0299 11.05C27.0299 7.39 25.6399 4.13 23.4699 2C21.2999 4.13 19.9099 7.39 19.9099 11.05Z" stroke="#FAE033" stroke-width="2.53" stroke-miterlimit="10"/>
<path d="M28.33 11.47C26.18 14.43 25.39 17.89 25.89 20.89C28.9 20.44 31.94 18.62 34.09 15.66C36.24 12.7 37.03 9.23999 36.53 6.23999C33.52 6.68999 30.48 8.50999 28.33 11.47Z" stroke="#FAE033" stroke-width="2.53" stroke-miterlimit="10"/>
<path d="M34.9 16.76C31.42 17.89 28.75 20.22 27.39 22.95C30.09 24.36 33.62 24.67 37.1 23.54C40.58 22.41 43.25 20.08 44.61 17.35C41.91 15.94 38.38 15.63 34.9 16.76Z" stroke="#FAE033" stroke-width="2.53" stroke-miterlimit="10"/>
<path d="M37.1 24.9C33.62 23.77 30.09 24.09 27.39 25.49C28.74 28.21 31.42 30.54 34.9 31.68C38.38 32.82 41.91 32.49 44.61 31.09C43.26 28.37 40.58 26.04 37.1 24.9Z" stroke="#FAE033" stroke-width="2.53" stroke-miterlimit="10"/>
<path d="M34.1 32.79C31.95 29.83 28.91 28.01 25.9 27.56C25.4 30.56 26.19 34.01 28.34 36.98C30.49 39.95 33.53 41.76 36.54 42.21C37.04 39.21 36.25 35.76 34.1 32.79Z" stroke="#FAE033" stroke-width="2.53" stroke-miterlimit="10"/>
<path d="M16.32 43.7001C16.11 44.3701 16.23 45.0601 16.59 45.6001C17.2 45.3701 17.7 44.8701 17.92 44.2101C18.14 43.5501 18.01 42.8501 17.65 42.3101C17.04 42.5401 16.54 43.0401 16.32 43.7001Z" fill="#FAE033"/>
<path d="M6.22996 35.78C5.65996 36.19 5.34996 36.82 5.32996 37.48C5.95996 37.65 6.65996 37.55 7.21996 37.13C7.77996 36.71 8.09996 36.09 8.11996 35.43C7.48996 35.26 6.78996 35.36 6.22996 35.78Z" fill="#FAE033"/>
<path d="M2.73 23.44C2.03 23.44 1.41 23.77 1 24.28C1.41 24.79 2.03 25.11 2.73 25.11C3.43 25.11 4.05 24.78 4.46 24.27C4.05 23.76 3.43 23.44 2.73 23.44Z" fill="#FAE033"/>
<path d="M7.15001 11.4C6.58001 10.99 5.89001 10.89 5.26001 11.06C5.29001 11.71 5.61001 12.34 6.17001 12.75C6.73001 13.16 7.43001 13.26 8.06001 13.09C8.03001 12.44 7.71001 11.81 7.15001 11.4Z" fill="#FAE033"/>
<path d="M17.8 4.26C17.58 3.59 17.08 3.1 16.47 2.88C16.11 3.43 16 4.12 16.22 4.79C16.44 5.46 16.94 5.95 17.55 6.17C17.91 5.62 18.02 4.93 17.8 4.26Z" fill="#FAE033"/>
<path d="M30.62 4.74003C30.83 4.07003 30.71 3.38003 30.35 2.84003C29.74 3.07003 29.24 3.57003 29.02 4.23003C28.8 4.89003 28.93 5.59003 29.29 6.13003C29.9 5.90003 30.4 5.40003 30.62 4.74003Z" fill="#FAE033"/>
<path d="M40.7099 12.66C41.2799 12.25 41.5899 11.62 41.6099 10.96C40.9799 10.79 40.2799 10.89 39.7199 11.31C39.1599 11.73 38.8399 12.35 38.8199 13.01C39.4499 13.18 40.1499 13.08 40.7099 12.66Z" fill="#FAE033"/>
<path d="M44.21 25C44.91 25 45.53 24.67 45.94 24.16C45.53 23.65 44.91 23.33 44.21 23.33C43.51 23.33 42.89 23.66 42.48 24.17C42.89 24.68 43.51 25 44.21 25Z" fill="#FAE033"/>
<path d="M39.79 37.04C40.36 37.45 41.05 37.55 41.68 37.38C41.65 36.73 41.33 36.1 40.77 35.69C40.21 35.28 39.51 35.18 38.88 35.35C38.91 36 39.23 36.63 39.79 37.04Z" fill="#FAE033"/>
<path d="M29.14 44.18C29.36 44.85 29.86 45.34 30.47 45.56C30.83 45.01 30.94 44.32 30.72 43.65C30.5 42.98 30 42.49 29.39 42.27C29.03 42.82 28.92 43.51 29.14 44.18Z" fill="#FAE033"/>
</svg>
