<svg width="955" height="95" viewBox="0 0 955 95" fill="none" xmlns="http://www.w3.org/2000/svg">
<g clip-path="url(#clip0_770_5939)">
<path d="M259.64 93.28C285.399 93.28 306.28 72.3986 306.28 46.64C306.28 20.8814 285.399 0 259.64 0C233.881 0 213 20.8814 213 46.64C213 72.3986 233.881 93.28 259.64 93.28Z" fill="#9E2ECC"/>
<path d="M263.82 62.11C263.82 57.81 262.18 53.98 259.63 51.48C257.08 53.98 255.44 57.81 255.44 62.11C255.44 66.41 257.08 70.24 259.63 72.74C262.18 70.24 263.82 66.41 263.82 62.11Z" stroke="#FAE033" stroke-width="2.98" stroke-miterlimit="10"/>
<path d="M253.92 61.6201C256.45 58.1401 257.38 54.0801 256.78 50.5601C253.25 51.0901 249.67 53.2201 247.14 56.7001C244.61 60.1801 243.68 64.2401 244.28 67.7601C247.81 67.2301 251.39 65.1001 253.92 61.6201Z" stroke="#FAE033" stroke-width="2.98" stroke-miterlimit="10"/>
<path d="M246.21 55.4C250.3 54.07 253.44 51.33 255.03 48.13C251.86 46.48 247.71 46.11 243.62 47.44C239.53 48.77 236.39 51.51 234.8 54.71C237.97 56.36 242.12 56.73 246.21 55.4Z" stroke="#FAE033" stroke-width="2.98" stroke-miterlimit="10"/>
<path d="M243.62 45.8301C247.71 47.1601 251.86 46.7901 255.03 45.1401C253.44 41.9401 250.3 39.2001 246.21 37.8701C242.12 36.5401 237.97 36.9101 234.8 38.5601C236.39 41.7601 239.53 44.5001 243.62 45.8301Z" stroke="#FAE033" stroke-width="2.98" stroke-miterlimit="10"/>
<path d="M247.15 36.57C249.68 40.05 253.25 42.19 256.79 42.71C257.38 39.19 256.45 35.13 253.93 31.65C251.41 28.17 247.83 26.03 244.29 25.51C243.7 29.03 244.63 33.09 247.15 36.57Z" stroke="#FAE033" stroke-width="2.98" stroke-miterlimit="10"/>
<path d="M255.45 31.16C255.45 35.46 257.09 39.29 259.64 41.79C262.19 39.29 263.83 35.46 263.83 31.16C263.83 26.86 262.19 23.03 259.64 20.53C257.09 23.03 255.45 26.86 255.45 31.16Z" stroke="#FAE033" stroke-width="2.98" stroke-miterlimit="10"/>
<path d="M265.35 31.65C262.82 35.13 261.89 39.19 262.49 42.71C266.02 42.18 269.6 40.05 272.13 36.57C274.66 33.09 275.59 29.03 274.99 25.51C271.46 26.04 267.88 28.17 265.35 31.65Z" stroke="#FAE033" stroke-width="2.98" stroke-miterlimit="10"/>
<path d="M273.06 37.8701C268.97 39.2001 265.83 41.9401 264.24 45.1401C267.41 46.7901 271.56 47.1601 275.65 45.8301C279.74 44.5001 282.88 41.7601 284.47 38.5601C281.3 36.9101 277.15 36.5401 273.06 37.8701Z" stroke="#FAE033" stroke-width="2.98" stroke-miterlimit="10"/>
<path d="M275.65 47.44C271.56 46.11 267.41 46.48 264.24 48.13C265.83 51.33 268.97 54.07 273.06 55.4C277.15 56.73 281.3 56.36 284.47 54.71C282.88 51.51 279.74 48.77 275.65 47.44Z" stroke="#FAE033" stroke-width="2.98" stroke-miterlimit="10"/>
<path d="M272.12 56.7001C269.59 53.2201 266.02 51.0801 262.48 50.5601C261.89 54.0801 262.82 58.1401 265.34 61.6201C267.86 65.1001 271.44 67.2401 274.98 67.7601C275.57 64.2401 274.64 60.1801 272.12 56.7001Z" stroke="#FAE033" stroke-width="2.98" stroke-miterlimit="10"/>
<path d="M251.23 69.52C250.98 70.3 251.12 71.12 251.54 71.76C252.26 71.49 252.85 70.91 253.1 70.12C253.35 69.33 253.21 68.52 252.79 67.88C252.07 68.15 251.48 68.73 251.23 69.52Z" fill="#FAE033"/>
<path d="M239.38 60.2201C238.72 60.7101 238.35 61.45 238.32 62.21C239.06 62.41 239.88 62.29 240.54 61.8C241.2 61.31 241.57 60.5701 241.6 59.8101C240.86 59.6101 240.04 59.7301 239.38 60.2201Z" fill="#FAE033"/>
<path d="M235.27 45.72C234.45 45.72 233.72 46.11 233.24 46.71C233.72 47.31 234.45 47.69 235.28 47.69C236.11 47.69 236.83 47.3 237.31 46.7C236.83 46.1 236.1 45.72 235.27 45.72Z" fill="#FAE033"/>
<path d="M240.46 31.57C239.79 31.09 238.97 30.97 238.24 31.18C238.28 31.95 238.65 32.69 239.31 33.17C239.97 33.65 240.8 33.77 241.53 33.56C241.49 32.79 241.12 32.05 240.46 31.57Z" fill="#FAE033"/>
<path d="M252.98 23.18C252.72 22.4 252.13 21.82 251.41 21.55C250.99 22.19 250.85 23.01 251.11 23.79C251.37 24.57 251.96 25.15 252.68 25.42C253.1 24.78 253.24 23.96 252.98 23.18Z" fill="#FAE033"/>
<path d="M268.04 23.75C268.29 22.97 268.15 22.15 267.73 21.51C267.01 21.78 266.42 22.36 266.17 23.15C265.92 23.94 266.06 24.75 266.48 25.39C267.2 25.12 267.79 24.54 268.04 23.75Z" fill="#FAE033"/>
<path d="M279.89 33.05C280.55 32.56 280.92 31.82 280.95 31.06C280.21 30.86 279.39 30.98 278.73 31.47C278.07 31.96 277.7 32.7 277.67 33.46C278.41 33.66 279.23 33.54 279.89 33.05Z" fill="#FAE033"/>
<path d="M284 47.55C284.82 47.55 285.55 47.16 286.03 46.56C285.55 45.96 284.82 45.58 283.99 45.58C283.16 45.58 282.44 45.97 281.96 46.57C282.44 47.17 283.17 47.55 284 47.55Z" fill="#FAE033"/>
<path d="M278.81 61.7C279.48 62.18 280.3 62.3 281.03 62.09C280.99 61.32 280.62 60.58 279.96 60.1C279.3 59.62 278.47 59.5 277.74 59.71C277.78 60.48 278.15 61.22 278.81 61.7Z" fill="#FAE033"/>
<path d="M266.29 70.09C266.55 70.87 267.14 71.45 267.86 71.72C268.28 71.08 268.42 70.26 268.16 69.48C267.9 68.7 267.31 68.12 266.59 67.85C266.17 68.49 266.03 69.31 266.29 70.09Z" fill="#FAE033"/>
</g>
<g clip-path="url(#clip1_770_5939)">
<path d="M151.64 93.28C177.399 93.28 198.28 72.3986 198.28 46.64C198.28 20.8814 177.399 0 151.64 0C125.881 0 105 20.8814 105 46.64C105 72.3986 125.881 93.28 151.64 93.28Z" fill="#50DEFF"/>
<path d="M150.95 37.85C150.95 37.85 156.69 22.3 172.58 20.19C172.58 20.19 167.8 40.71 152.34 42.54C152.34 42.54 152.83 53.44 149.11 61.44H146.58C146.58 61.44 151.36 52.1 150.09 42.68C150.09 42.68 131.39 42.4 130.69 23.63C130.69 23.63 146.29 29.74 150.95 37.84V37.85Z" fill="#5FAC44"/>
<path d="M151.64 56.3C138.77 56.3 128.32 63.7801 128.07 73.0801H175.21C174.96 63.7801 164.51 56.3 151.64 56.3Z" fill="#B37F4D"/>
</g>
<g clip-path="url(#clip2_770_5939)">
<path d="M46.64 93.28C72.3986 93.28 93.28 72.3986 93.28 46.64C93.28 20.8814 72.3986 0 46.64 0C20.8814 0 0 20.8814 0 46.64C0 72.3986 20.8814 93.28 46.64 93.28Z" fill="#FAE033"/>
<path d="M27.8798 65.65C27.8798 65.65 27.0098 73.97 35.2898 71.33C43.5698 68.69 64.2798 57.15 66.8998 20.47C66.8998 20.47 26.0298 35.89 27.8798 65.65Z" fill="white"/>
<path d="M29.7299 71.06C22.8499 68.53 18.1999 34.62 66.3399 20.48C66.3699 20.48 66.3999 20.51 66.3699 20.53C63.4099 22.24 29.5499 42.12 29.7299 71.06Z" fill="black"/>
<path d="M48.3798 46.24L65.3798 23.11C65.3798 23.11 50.8298 62.24 30.0598 71.29" fill="black"/>
<path d="M64.3399 22.97C64.2899 23.01 64.2299 23.05 64.1799 23.1C33.8299 47.01 29.9299 71.2 29.9299 71.2" fill="black"/>
<path d="M30.5598 71.54C30.5598 71.54 56.7198 65.95 67.4698 20.98C67.4698 20.96 67.5098 20.95 67.5198 20.98C69.3398 25.58 63.4898 81.89 30.5598 71.55V71.54Z" fill="black"/>
</g>
<g clip-path="url(#clip3_770_5939)">
<path d="M586.64 93.28C612.399 93.28 633.28 72.3986 633.28 46.64C633.28 20.8814 612.399 0 586.64 0C560.881 0 540 20.8814 540 46.64C540 72.3986 560.881 93.28 586.64 93.28Z" fill="#F8B157"/>
<path d="M586.54 48.15L573.75 60.94C570.61 64.08 570.61 69.17 573.75 72.31C576.89 75.45 581.98 75.45 585.12 72.31L586.54 70.89L587.72 72.07C590.86 75.21 595.95 75.21 599.09 72.07C602.23 68.93 602.23 63.84 599.09 60.7L586.53 48.14L586.54 48.15Z" fill="#009345"/>
<path d="M586.54 45.12L573.75 32.33C570.61 29.19 570.61 24.1 573.75 20.96C576.89 17.82 581.98 17.82 585.12 20.96L586.54 22.38L587.72 21.2C590.86 18.06 595.95 18.06 599.09 21.2C602.23 24.34 602.23 29.43 599.09 32.57L586.53 45.13L586.54 45.12Z" fill="#009345"/>
<path d="M585.08 46.5L572.29 33.71C569.15 30.57 564.06 30.57 560.92 33.71C557.78 36.85 557.78 41.94 560.92 45.08L562.34 46.5L561.16 47.68C558.02 50.82 558.02 55.91 561.16 59.05C564.3 62.19 569.39 62.19 572.53 59.05L585.09 46.49L585.08 46.5Z" fill="#009345"/>
<path d="M588.19 46.5L600.98 33.71C604.12 30.57 609.21 30.57 612.35 33.71C615.49 36.85 615.49 41.94 612.35 45.08L610.93 46.5L612.11 47.68C615.25 50.82 615.25 55.91 612.11 59.05C608.97 62.19 603.88 62.19 600.74 59.05L588.18 46.49L588.19 46.5Z" fill="#009345"/>
</g>
<g clip-path="url(#clip4_770_5939)">
<path d="M799.64 93.28C825.399 93.28 846.28 72.3986 846.28 46.64C846.28 20.8814 825.399 0 799.64 0C773.881 0 753 20.8814 753 46.64C753 72.3986 773.881 93.28 799.64 93.28Z" fill="#71BCFF"/>
<path d="M807.9 33.44C807.71 33.12 807.51 32.68 807.22 32.29C806.25 30.97 805.26 29.67 804.26 28.37C803.37 27.21 802.6 26 802.54 24.47C802.48 22.55 803.47 20.96 805.11 20.41C806.78 19.85 808.47 20.48 809.58 22.09C809.64 22.18 809.7 22.27 809.74 22.34C810.33 22.02 810.87 21.63 811.47 21.42C812.92 20.92 814.57 21.45 815.53 22.64C816.53 23.88 816.67 25.62 815.79 27.09C815.39 27.76 814.89 28.43 814.28 28.89C812.21 30.44 810.07 31.89 807.89 33.43L807.9 33.44Z" fill="#E52033"/>
<path d="M804.57 57.98C795.74 67.48 798.72 42.33 798.72 42.33C800.5 34.52 806.84 42.49 806.84 42.49M798.44 44.3C798.44 44.3 795.5 46.58 795.69 29.99C795.88 13.4 787.78 16.68 789.52 29.99C791.26 43.3 790.77 54.3 789.28 55.65C787.9 56.9 777.36 46.72 772.21 50.44C772.02 50.57 771.86 50.76 771.8 50.98C771.02 53.99 772.77 53.9 776.58 57.11C777.82 58.15 779.14 59.09 780.59 59.82C782.66 60.88 785.83 62.86 788.66 66.11C791.05 68.85 794.11 70.95 797.5 72.27C803.82 74.72 812.96 76.69 816.76 69.73C816.76 69.73 819.28 63.95 818.48 57.61C818.4 56.95 818.32 56.29 818.31 55.62C818.29 54.29 818.34 52.03 818.83 50.08C818.83 50.08 826.84 32.08 822.21 31.98C817.58 31.88 816.04 43.36 813.72 46.55C813.72 46.55 811.55 49.78 810.34 54.61C809.37 58.5 808.24 60.07 805.96 59.44C804.87 59.14 804.15 58.09 804.25 56.96C804.56 53.11 805.45 43.77 806.73 42.42C808.3 40.77 812.79 41.92 813.51 46.88" stroke="black" stroke-width="1.1" stroke-miterlimit="10"/>
</g>
<g clip-path="url(#clip5_770_5939)">
<path d="M907.64 93.28C933.399 93.28 954.28 72.3986 954.28 46.64C954.28 20.8814 933.399 0 907.64 0C881.881 0 861 20.8814 861 46.64C861 72.3986 881.881 93.28 907.64 93.28Z" fill="#EAEAEA"/>
<path d="M907.64 72.31C907.64 72.31 909.98 64.28 920.8 59.04C931.61 53.8 929.09 50.22 929.09 50.22C930.62 52.27 935.16 69.8 907.64 78.86V72.31Z" fill="#009345"/>
<path d="M907.64 72.31C907.64 72.31 905.3 64.28 894.48 59.04C883.66 53.8 886.19 50.22 886.19 50.22C884.66 52.27 880.12 69.8 907.64 78.86V72.31Z" fill="#009345"/>
<path d="M907.64 78.49V44.15" stroke="#009345" stroke-width="1.82" stroke-miterlimit="10"/>
<path d="M902.1 19.7599L907.4 24.4199L913.46 20.5399L912.81 19.7599" fill="#D9003A"/>
<path d="M902.1 19.7599L907.4 24.4199L913.46 20.5399L912.81 19.7599" stroke="black" stroke-width="0.46" stroke-miterlimit="10"/>
<path d="M902.1 19.76L907.45 14.41L913.05 20.01M913.31 34.11C912.94 22.82 896.29 17.05 896.29 17.05V34.11C896.29 34.11 896.06 44.18 907.39 44.18H907.66C907.77 44.04 918.8 44.99 918.98 34.47V17.05C918.98 17.05 910.6 20.53 907.63 23.66" fill="#D9003A"/>
<path d="M902.1 19.76L907.45 14.41L913.05 20.01M913.31 34.11C912.94 22.82 896.29 17.05 896.29 17.05V34.11C896.29 34.11 896.06 44.18 907.39 44.18H907.66C907.77 44.04 918.8 44.99 918.98 34.47V17.05C918.98 17.05 910.6 20.53 907.63 23.66" stroke="#770529" stroke-width="0.46" stroke-miterlimit="10"/>
</g>
<g clip-path="url(#clip6_770_5939)">
<path d="M694.64 93.28C720.399 93.28 741.28 72.3986 741.28 46.64C741.28 20.8814 720.399 0 694.64 0C668.881 0 648 20.8814 648 46.64C648 72.3986 668.881 93.28 694.64 93.28Z" fill="#1BE08B"/>
<path d="M720.05 38.77C719.35 38.33 718.58 38.04 717.78 37.84C716.08 37.42 714.36 37.36 712.63 37.44C710.28 37.54 707.93 37.67 705.63 38.23C704.3 38.55 703.02 39 701.91 39.83C700.63 40.79 700.01 42.06 700.11 43.66C700.14 44.12 700.19 44.59 700.33 45.03C701.01 47.2 701.75 49.36 702.77 51.4C703.73 53.3 705.22 54.59 707.22 55.31C708.96 55.93 710.75 56.22 712.59 56.29C713.47 56.2 714.36 56.14 715.23 56C718.21 55.53 720.27 53.95 721.21 51.01C722.09 48.25 722.35 45.41 722.32 42.54C722.3 40.9 721.46 39.64 720.07 38.76L720.05 38.77Z" fill="white"/>
<path d="M686.58 39.31C685.28 38.59 683.86 38.22 682.42 37.96C680.39 37.6 678.33 37.49 676.46 37.43C674.31 37.31 672.23 37.55 670.72 38.07C668.03 38.98 666.81 40.79 666.97 43.62C667.02 44.47 667.07 45.33 667.15 46.18C667.32 47.96 667.62 49.71 668.24 51.4C669.08 53.7 670.65 55.17 673.02 55.77C676.26 56.59 679.44 56.35 682.55 55.12C684.15 54.49 685.39 53.43 686.23 51.93C687.5 49.66 688.38 47.22 689.03 44.72C689.65 42.3 688.77 40.53 686.6 39.31H686.58Z" fill="white"/>
<path d="M726.52 36.61C726.4 36.27 726.15 36.08 725.79 35.99C724.3 35.61 722.78 35.48 721.25 35.37C720.54 35.32 719.82 35.28 719.11 35.24H714.11C713.95 35.26 713.8 35.29 713.64 35.29C710.77 35.39 707.9 35.47 705.08 36.09C702.93 36.56 700.8 37.14 698.67 37.7C697.14 38.1 695.62 38.45 694.02 38.35C692.68 38.27 691.4 37.93 690.12 37.57C687.75 36.9 685.39 36.24 682.95 35.87C680.65 35.51 678.33 35.41 676.01 35.32C675.71 35.31 675.4 35.28 675.1 35.26H670.16C669.49 35.3 668.82 35.34 668.14 35.39C666.65 35.49 665.16 35.63 663.69 35.95C663.11 36.08 662.76 36.38 662.62 36.93C662.44 37.62 662.29 38.32 662.13 39.02C662.11 39.12 662.08 39.22 662.06 39.32V40.21C662.2 40.56 662.47 40.78 662.8 40.95C663.61 41.39 664.04 42.06 664.17 42.98C664.54 45.57 664.9 48.16 665.61 50.68C665.75 51.18 665.92 51.67 666.08 52.16C666.87 54.56 668.54 56.11 670.84 57.04C672.26 57.61 673.75 57.88 675.27 58C675.43 58.01 675.58 58.04 675.74 58.07H678.27C678.92 58 679.57 57.96 680.22 57.87C681.27 57.71 682.34 57.6 683.37 57.33C685.54 56.78 687.05 55.35 688.19 53.49C688.96 52.23 689.5 50.87 690.03 49.5C690.43 48.47 690.82 47.43 691.26 46.42C691.48 45.92 691.76 45.44 692.1 45.01C693.4 43.38 695.92 43.38 697.19 45.04C697.64 45.64 697.99 46.33 698.28 47.03C698.94 48.59 699.51 50.2 700.19 51.75C700.55 52.58 701.01 53.37 701.52 54.12C702.88 56.14 704.79 57.31 707.21 57.62C708.38 57.77 709.56 57.89 710.73 58.02C710.82 58.03 710.91 58.05 711.01 58.07H713.54C714.25 57.98 714.96 57.92 715.67 57.8C717.39 57.52 719 56.98 720.44 55.97C721.83 54.99 722.7 53.65 723.25 52.06C723.94 50.05 724.34 47.97 724.68 45.87C724.84 44.87 725 43.87 725.14 42.87C725.26 41.99 725.73 41.37 726.49 40.96C726.81 40.78 727.09 40.57 727.23 40.22V39.33C727.15 38.89 727.08 38.44 726.97 38C726.85 37.54 726.7 37.09 726.54 36.65L726.52 36.61ZM689.02 44.72C688.38 47.22 687.49 49.66 686.22 51.93C685.38 53.43 684.13 54.49 682.54 55.12C679.44 56.35 676.26 56.59 673.01 55.77C670.64 55.17 669.06 53.7 668.23 51.4C667.61 49.71 667.31 47.96 667.14 46.18C667.06 45.33 667.01 44.48 666.96 43.62C666.8 40.79 668.03 38.99 670.71 38.07C672.22 37.55 674.3 37.31 676.45 37.43C678.33 37.5 680.38 37.6 682.41 37.96C683.86 38.22 685.28 38.58 686.57 39.31C688.75 40.53 689.63 42.3 689 44.72H689.02ZM721.19 51.01C720.25 53.96 718.19 55.53 715.21 56C714.34 56.14 713.45 56.19 712.57 56.29C710.72 56.22 708.93 55.93 707.2 55.31C705.2 54.59 703.71 53.3 702.75 51.4C701.72 49.36 700.99 47.2 700.31 45.03C700.17 44.59 700.12 44.12 700.09 43.66C699.99 42.06 700.61 40.78 701.89 39.83C703 39 704.28 38.55 705.61 38.23C707.91 37.68 710.26 37.55 712.61 37.44C714.35 37.36 716.07 37.42 717.76 37.84C718.56 38.04 719.33 38.33 720.03 38.77C721.43 39.64 722.27 40.9 722.28 42.55C722.31 45.42 722.04 48.26 721.17 51.02L721.19 51.01Z" fill="black"/>
</g>
<g clip-path="url(#clip7_770_5939)">
<path d="M478.64 94.28C504.399 94.28 525.28 73.3986 525.28 47.64C525.28 21.8814 504.399 1 478.64 1C452.881 1 432 21.8814 432 47.64C432 73.3986 452.881 94.28 478.64 94.28Z" fill="#D1333E"/>
<path d="M499.21 60.46H457.44V66.89H499.21V60.46Z" fill="#FAE033"/>
<path d="M457.39 58.61H499.17L508.7 36.7L497.24 48.77L493.8 40.66L486.9 47.15L478.6 28.39L470.07 47.15L463.17 40.66L459.93 48.67L448.57 36.6L457.39 58.61Z" fill="#FAE033"/>
</g>
<g clip-path="url(#clip8_770_5939)">
<path d="M370.64 94.28C396.399 94.28 417.28 73.3986 417.28 47.64C417.28 21.8814 396.399 1 370.64 1C344.881 1 324 21.8814 324 47.64C324 73.3986 344.881 94.28 370.64 94.28Z" fill="#001296"/>
<path d="M378.9 21.89L385.5 28.77L394.92 27.28L390.42 35.69L394.74 44.18L385.36 42.5L378.61 49.24L377.31 39.79L368.82 35.46L377.4 31.31L378.9 21.89Z" fill="#FAE033"/>
<path d="M350.44 73.3801C350.44 73.3801 347.75 55.4401 375.56 49.9501" stroke="#FAE033" stroke-width="1.17" stroke-miterlimit="10" stroke-linecap="round"/>
<path d="M348.45 73.38C348.45 73.38 345.02 51.01 369.08 39.29" stroke="#FAE033" stroke-width="1.17" stroke-miterlimit="10" stroke-linecap="round"/>
<path d="M346.85 73.38C346.85 73.38 340.27 40.58 375.06 23.84" stroke="#FAE033" stroke-width="1.17" stroke-miterlimit="10" stroke-linecap="round"/>
</g>
<defs>
<clipPath id="clip0_770_5939">
<rect width="93.27" height="93.27" fill="white" transform="translate(213)"/>
</clipPath>
<clipPath id="clip1_770_5939">
<rect width="93.27" height="93.27" fill="white" transform="translate(105)"/>
</clipPath>
<clipPath id="clip2_770_5939">
<rect width="93.27" height="93.27" fill="white"/>
</clipPath>
<clipPath id="clip3_770_5939">
<rect width="93.27" height="93.27" fill="white" transform="translate(540)"/>
</clipPath>
<clipPath id="clip4_770_5939">
<rect width="93.27" height="93.27" fill="white" transform="translate(753)"/>
</clipPath>
<clipPath id="clip5_770_5939">
<rect width="93.27" height="93.27" fill="white" transform="translate(861)"/>
</clipPath>
<clipPath id="clip6_770_5939">
<rect width="93.27" height="93.27" fill="white" transform="translate(648)"/>
</clipPath>
<clipPath id="clip7_770_5939">
<rect width="93.27" height="93.27" fill="white" transform="translate(432 1)"/>
</clipPath>
<clipPath id="clip8_770_5939">
<rect width="93.27" height="93.27" fill="white" transform="translate(324 1)"/>
</clipPath>
</defs>
</svg>
