<svg width="308" height="95" viewBox="0 0 308 95" fill="none" xmlns="http://www.w3.org/2000/svg">
<g clip-path="url(#clip0_815_5787)">
<path d="M54.41 73.39C54.41 66.16 51.66 59.73 47.38 55.52C43.1 59.72 40.35 66.16 40.35 73.39C40.35 80.62 43.1 87.05 47.38 91.26C51.66 87.06 54.41 80.62 54.41 73.39Z" stroke="black" stroke-width="5" stroke-miterlimit="10"/>
<path d="M37.78 72.56C42.03 66.71 43.59 59.89 42.59 53.97C36.65 54.85 30.65 58.44 26.4 64.29C22.15 70.14 20.59 76.96 21.59 82.88C27.53 82 33.53 78.41 37.78 72.56Z" stroke="black" stroke-width="5" stroke-miterlimit="10"/>
<path d="M24.82 62.11C31.69 59.88 36.97 55.27 39.64 49.9C34.32 47.12 27.35 46.5 20.47 48.73C13.59 50.96 8.32002 55.57 5.65002 60.94C10.97 63.72 17.94 64.34 24.82 62.11Z" stroke="black" stroke-width="5" stroke-miterlimit="10"/>
<path d="M20.47 46.03C27.34 48.26 34.32 47.64 39.64 44.86C36.97 39.49 31.69 34.88 24.82 32.65C17.95 30.42 10.97 31.04 5.65002 33.82C8.32002 39.19 13.6 43.8 20.47 46.03Z" stroke="black" stroke-width="5" stroke-miterlimit="10"/>
<path d="M26.4 30.47C30.65 36.32 36.66 39.91 42.59 40.79C43.59 34.87 42.03 28.05 37.78 22.2C33.53 16.35 27.52 12.76 21.59 11.88C20.59 17.8 22.15 24.62 26.4 30.47Z" stroke="black" stroke-width="5" stroke-miterlimit="10"/>
<path d="M40.35 21.37C40.35 28.6 43.1 35.03 47.38 39.24C51.66 35.04 54.41 28.6 54.41 21.37C54.41 14.14 51.66 7.71 47.38 3.5C43.1 7.7 40.35 14.14 40.35 21.37Z" stroke="black" stroke-width="5" stroke-miterlimit="10"/>
<path d="M56.98 22.2C52.73 28.05 51.17 34.87 52.17 40.79C58.11 39.91 64.11 36.32 68.36 30.47C72.61 24.62 74.17 17.8 73.17 11.88C67.23 12.76 61.23 16.35 56.98 22.2Z" stroke="black" stroke-width="5" stroke-miterlimit="10"/>
<path d="M69.94 32.65C63.07 34.88 57.79 39.49 55.12 44.86C60.44 47.64 67.41 48.26 74.29 46.03C81.17 43.8 86.44 39.19 89.11 33.82C83.79 31.04 76.82 30.42 69.94 32.65Z" stroke="black" stroke-width="5" stroke-miterlimit="10"/>
<path d="M74.29 48.73C67.42 46.5 60.44 47.12 55.12 49.9C57.79 55.27 63.07 59.88 69.94 62.11C76.81 64.34 83.79 63.72 89.11 60.94C86.44 55.57 81.16 50.96 74.29 48.73Z" stroke="black" stroke-width="5" stroke-miterlimit="10"/>
<path d="M68.36 64.29C64.11 58.44 58.1 54.85 52.17 53.97C51.17 59.89 52.73 66.71 56.98 72.56C61.23 78.41 67.24 82 73.17 82.88C74.17 76.96 72.61 70.14 68.36 64.29Z" stroke="black" stroke-width="5" stroke-miterlimit="10"/>
<path d="M35.9346 86.6951C35.6004 87.721 34.8851 88.5087 33.9943 88.9626C33.5366 88.0788 33.4198 87.02 33.746 85.9932C34.0804 84.968 34.7957 84.1808 35.6861 83.7272C36.1466 84.613 36.2681 85.6715 35.9346 86.6951Z" fill="#FAE033" stroke="black"/>
<path d="M14.9953 72.4661C14.1337 73.0949 13.0873 73.3157 12.1007 73.1565C12.2515 72.1644 12.7746 71.2411 13.6451 70.6037C14.5066 69.9752 15.5527 69.7544 16.5391 69.9135C16.3867 70.9074 15.857 71.8373 14.9953 72.4661Z" fill="#FAE033" stroke="black"/>
<path d="M6.45003 48.64C5.37816 48.64 4.40733 48.2043 3.69895 47.4965C4.40051 46.7819 5.37012 46.34 6.44003 46.34C7.5119 46.34 8.48273 46.7757 9.19111 47.4835C8.48955 48.1981 7.51994 48.64 6.45003 48.64Z" fill="#FAE033" stroke="black"/>
<path d="M13.5131 24.3449C12.642 23.7149 12.1122 22.7917 11.9606 21.7999C12.9481 21.6319 13.9964 21.8455 14.867 22.4751C15.738 23.1051 16.2678 24.0283 16.4195 25.0201C15.432 25.1881 14.3837 24.9745 13.5131 24.3449Z" fill="#FAE033" stroke="black"/>
<path d="M33.5351 8.84406C33.2017 7.82842 33.3161 6.76986 33.7696 5.87658C34.6607 6.32433 35.3817 7.11057 35.715 8.12593C36.0483 9.14157 35.934 10.2001 35.4804 11.0934C34.5894 10.6457 33.8684 9.85943 33.5351 8.84406Z" fill="#FAE033" stroke="black"/>
<path d="M58.8254 8.06487C59.1596 7.03898 59.875 6.25128 60.7658 5.79738C61.2234 6.68123 61.3403 7.74002 61.0141 8.76677C60.6796 9.79198 59.9644 10.5792 59.074 11.0328C58.6134 10.147 58.492 9.0885 58.8254 8.06487Z" fill="#FAE033" stroke="black"/>
<path d="M82.6494 21.6035C82.4986 22.5957 81.9754 23.5189 81.105 24.1564C80.2435 24.7848 79.1973 25.0056 78.211 24.8465C78.3634 23.8526 78.8931 22.9227 79.7548 22.2939C80.6164 21.6652 81.6628 21.4443 82.6494 21.6035Z" fill="#FAE033" stroke="black"/>
<path d="M91.0611 47.2635C90.3595 47.9781 89.3899 48.42 88.32 48.42C87.2482 48.42 86.2773 47.9843 85.5689 47.2765C86.2705 46.5618 87.2401 46.12 88.31 46.12C89.3819 46.12 90.3527 46.5557 91.0611 47.2635Z" fill="#FAE033" stroke="black"/>
<path d="M81.247 70.4152C82.118 71.0451 82.6478 71.9683 82.7995 72.9601C81.812 73.1281 80.7637 72.9145 79.8931 72.2849C79.022 71.6549 78.4922 70.7317 78.3406 69.7399C79.3281 69.5719 80.3764 69.7855 81.247 70.4152Z" fill="#FAE033" stroke="black"/>
<path d="M61.225 85.9159C61.5584 86.9316 61.444 87.9901 60.9904 88.8834C60.0994 88.4357 59.3784 87.6494 59.0451 86.6341C58.7117 85.6184 58.8261 84.5599 59.2796 83.6666C60.1707 84.1143 60.8917 84.9006 61.225 85.9159Z" fill="#FAE033" stroke="black"/>
<path d="M127.891 37.384C127.063 37.0092 126.23 36.6762 125.398 36.3791C124.367 36.011 123.341 35.83 122.33 35.83H122.123L122.11 35.8426C119.993 35.8945 118.299 36.7394 117.096 38.385C115.872 40.0608 115.29 42.3488 115.29 45.19C115.29 48.133 115.839 50.4327 117.019 52.0062C118.219 53.6067 120.013 54.38 122.31 54.38C124.046 54.38 126.093 53.9799 128.44 53.2078V56.7931C126.458 57.5711 124.247 57.96 121.8 57.96C118.127 57.96 115.39 56.8471 113.507 54.6911C111.614 52.5235 110.63 49.3684 110.63 45.15C110.63 42.5104 111.109 40.2181 112.059 38.2692C113.009 36.3211 114.354 34.8378 116.103 33.8112C117.856 32.7824 119.926 32.25 122.33 32.25C124.592 32.25 126.95 32.7748 129.301 33.8344L127.891 37.384Z" fill="black" stroke="black"/>
<path d="M146.076 55.2288L145.952 54.91H145.61H145.47H145.228L145.078 55.0997C144.199 56.2105 143.318 56.9479 142.443 57.3447C141.559 57.746 140.385 57.97 138.87 57.97C137.058 57.97 135.698 57.4607 134.724 56.4864C133.753 55.5158 133.23 54.1086 133.23 52.18C133.23 50.287 133.917 48.8206 135.221 47.9334C136.576 47.0115 138.694 46.4685 141.627 46.3597C141.628 46.3597 141.628 46.3597 141.628 46.3597L145.076 46.2497L145.56 46.2343V45.75V44.88C145.56 43.7948 145.281 42.8888 144.637 42.2588C143.995 41.6308 143.075 41.36 141.97 41.36C140.399 41.36 138.614 41.8008 136.609 42.6506L135.246 39.8643C137.343 38.8516 139.65 38.35 142.19 38.35C144.912 38.35 146.704 38.9154 148.004 39.9772C149.275 41.0157 149.95 42.6223 149.95 44.89V57.63H147.01L146.076 55.2288ZM145.55 48.91H145.068L145.06 48.41H145.05H144.55V48.4267L142.944 48.4802C142.944 48.4803 142.944 48.4803 142.944 48.4803C141.33 48.5314 140.046 48.8172 139.16 49.4156C138.231 50.0429 137.78 51.0111 137.78 52.21C137.78 53.0717 138.031 53.8024 138.611 54.3062C139.177 54.7982 139.974 55 140.91 55C142.271 55 143.404 54.608 144.266 53.7807C145.129 52.9527 145.55 51.855 145.55 50.54V48.91Z" fill="black" stroke="black"/>
<path d="M160.95 57.61H156.53V30.96H160.95V57.61Z" fill="black" stroke="black"/>
<path d="M196.81 45.15V57.61H192.37V46.51C192.37 45.0398 192.126 43.8428 191.566 43.0026C190.974 42.1149 190.039 41.7 188.88 41.7C187.415 41.7 186.258 42.2279 185.489 43.3347C184.741 44.4116 184.41 46.0375 184.41 48.13V57.61H180.01V46.51C180.01 45.0398 179.766 43.8428 179.206 43.0026C178.614 42.1149 177.679 41.7 176.52 41.7C174.988 41.7 173.811 42.2752 173.075 43.4673C172.368 44.6118 172.06 46.4116 172.06 48.76V57.61H167.64V38.74H170.903L171.529 40.9181L171.633 41.28H172.01H172.31H172.597L172.742 41.0316C173.221 40.2094 173.917 39.555 174.845 39.0863C175.777 38.6159 176.848 38.37 178.09 38.37C180.95 38.37 182.758 39.2954 183.69 41.018L183.832 41.28H184.13H184.61H184.899L185.043 41.0296C185.519 40.2031 186.232 39.5485 187.182 39.0781C188.132 38.6074 189.234 38.37 190.47 38.37C192.637 38.37 194.192 38.9276 195.228 39.9551C196.251 40.9689 196.81 42.668 196.81 45.15Z" fill="black" stroke="black"/>
<path d="M220.272 56.8653L219.654 57.1478L220.108 57.6538L225.62 63.8H219.917L215.307 58.1538L215.157 57.97H214.92H214.51C210.63 57.97 207.719 56.8427 205.708 54.6611C203.69 52.473 202.64 49.2915 202.64 45.05C202.64 40.8078 203.69 37.6389 205.715 35.4822C207.736 33.329 210.648 32.22 214.55 32.22C218.452 32.22 221.351 33.3384 223.342 35.508C225.34 37.6859 226.38 40.8477 226.38 45.09C226.38 48.0935 225.85 50.568 224.808 52.547C223.768 54.5216 222.269 55.9523 220.272 56.8653ZM207.41 45.59H207.425C207.486 48.3022 208.045 50.4469 209.17 51.9496C210.384 53.5718 212.198 54.35 214.51 54.35C216.831 54.35 218.643 53.5723 219.855 51.9604C221.046 50.3756 221.6 48.058 221.6 45.09C221.6 42.1218 221.046 39.8002 219.859 38.2109C218.653 36.5943 216.849 35.81 214.54 35.81C212.225 35.81 210.414 36.6001 209.182 38.217C207.967 39.8124 207.41 42.1311 207.41 45.09V45.59Z" fill="black" stroke="black"/>
<path d="M249.57 57.62H246.299L245.671 55.4319L245.567 55.07H245.19H244.91H244.634L244.487 55.3033C243.961 56.1381 243.216 56.7955 242.228 57.257C241.231 57.7229 240.095 57.97 238.8 57.97C236.556 57.97 234.948 57.3746 233.882 56.2552C232.809 55.1279 232.24 53.4696 232.24 51.21V38.75H236.66V49.85C236.66 51.3224 236.914 52.5255 237.512 53.369C238.14 54.2554 239.125 54.66 240.35 54.66C241.993 54.66 243.26 54.1 244.055 52.9192C244.823 51.7787 245.15 49.969 245.15 47.6V38.75H249.57V57.62Z" fill="black" stroke="black"/>
<path d="M265.25 57.9757V57.97H264.75C261.644 57.97 259.283 57.1182 257.601 55.4635C255.921 53.8119 255.05 51.4553 255.05 48.32C255.05 45.1681 255.86 42.6362 257.418 40.938C258.976 39.2405 261.132 38.37 263.95 38.37C266.778 38.37 268.697 39.1366 270.153 40.6202C271.609 42.1036 272.36 44.1746 272.36 46.9V49.03H260.05H259.53L259.55 49.5495C259.614 51.181 260.106 52.5102 261.062 53.4894C262.031 54.4809 263.375 54.94 265.01 54.94C266.243 54.94 267.412 54.8167 268.515 54.5566C269.392 54.3497 270.304 54.0448 271.24 53.6492V56.7554C270.408 57.1426 269.529 57.4423 268.596 57.641C267.674 57.8372 266.565 57.9526 265.25 57.9757ZM259.671 45.8828L259.631 46.42H260.17H267.78H268.288L268.28 45.9125C268.259 44.4912 267.885 43.3268 267.096 42.4792C266.306 41.6311 265.254 41.23 263.99 41.23C262.727 41.23 261.68 41.6307 260.917 42.4875C260.17 43.326 259.777 44.4748 259.671 45.8828Z" fill="black" stroke="black"/>
<path d="M276.6 56.9852V53.6048C277.451 53.9557 278.376 54.2603 279.377 54.5146C280.664 54.8415 281.817 55.01 282.83 55.01C283.847 55.01 284.69 54.8658 285.295 54.515C285.941 54.1399 286.28 53.547 286.28 52.8C286.28 52.2576 286.111 51.7879 285.75 51.4132C285.433 51.0832 284.923 50.753 284.275 50.4084C283.615 50.0582 282.75 49.6615 281.674 49.2091L281.673 49.2087C280.155 48.5737 279.082 48.0033 278.414 47.4927C277.746 46.9827 277.285 46.4242 277.005 45.8121C276.722 45.1928 276.56 44.3974 276.56 43.42C276.56 41.8018 277.17 40.5985 278.399 39.7281C279.652 38.8412 281.474 38.37 283.93 38.37C286.201 38.37 288.215 38.8074 290.261 39.6881L289.012 42.684C288.174 42.3368 287.383 42.0462 286.64 41.813C285.733 41.5282 284.792 41.38 283.84 41.38C283.012 41.38 282.312 41.4885 281.802 41.7639C281.54 41.9058 281.318 42.0973 281.164 42.348C281.009 42.5999 280.94 42.8832 280.94 43.18C280.94 43.8809 281.324 44.4386 281.927 44.8523C282.49 45.2386 283.672 45.7871 285.413 46.4837C286.953 47.1098 288.042 47.6695 288.707 48.1773C289.378 48.6905 289.86 49.2521 290.159 49.876C290.461 50.5069 290.63 51.2807 290.63 52.2V52.21C290.63 54.1192 289.974 55.5107 288.708 56.4717C287.423 57.4464 285.432 57.97 282.66 57.97C281.231 57.97 280.033 57.8713 279.052 57.6885C278.183 57.5266 277.368 57.2898 276.6 56.9852Z" fill="black" stroke="black"/>
<path d="M298.247 34.53H300.87V38.26V38.76H301.37H306.43V41.83H301.37H300.87V42.33V51.91C300.87 52.7741 301.12 53.5049 301.694 53.999C302.238 54.4668 302.935 54.67 303.73 54.67H304.23V54.6331C304.957 54.5852 305.762 54.4368 306.64 54.197V57.228C305.422 57.7121 303.933 57.97 302.16 57.97C300.065 57.97 298.648 57.4389 297.79 56.4938C296.917 55.5328 296.44 54.0268 296.44 51.9V42.32V41.82H295.94H293.85V40.3118L296.599 38.6477L296.748 38.5576L296.809 38.3945L298.247 34.53Z" fill="black" stroke="black"/>
</g>
<defs>
<clipPath id="clip0_815_5787">
<rect width="307.14" height="94.76" fill="white"/>
</clipPath>
</defs>
</svg>
