<svg width="428" height="366" viewBox="0 0 428 366" fill="none" xmlns="http://www.w3.org/2000/svg">
<rect x="0.5" y="40.5" width="427" height="325" rx="4.5" stroke="#9747FF" stroke-dasharray="10 5"/>
<rect x="20" y="60" width="160" height="48" rx="20" fill="#006075"/>
<path d="M71.2691 90.5C70.8291 90.5 70.4891 90.3867 70.2491 90.16C70.0225 89.92 69.9091 89.58 69.9091 89.14V77.76C69.9091 77.32 70.0225 76.9867 70.2491 76.76C70.4891 76.52 70.8291 76.4 71.2691 76.4H76.0691C77.0558 76.4 77.8958 76.5467 78.5891 76.84C79.2825 77.1333 79.8091 77.5533 80.1691 78.1C80.5425 78.6467 80.7291 79.3 80.7291 80.06C80.7291 80.9133 80.4825 81.6333 79.9891 82.22C79.4958 82.8067 78.8225 83.2 77.9691 83.4V83.1C78.9558 83.2467 79.7225 83.62 80.2691 84.22C80.8158 84.82 81.0891 85.6 81.0891 86.56C81.0891 87.8133 80.6625 88.7867 79.8091 89.48C78.9691 90.16 77.7958 90.5 76.2891 90.5H71.2691ZM72.3691 88.56H75.9691C76.8758 88.56 77.5425 88.3867 77.9691 88.04C78.3958 87.68 78.6091 87.1467 78.6091 86.44C78.6091 85.72 78.3958 85.1867 77.9691 84.84C77.5425 84.4933 76.8758 84.32 75.9691 84.32H72.3691V88.56ZM72.3691 82.38H75.6291C76.5091 82.38 77.1625 82.2133 77.5891 81.88C78.0291 81.5333 78.2491 81.0267 78.2491 80.36C78.2491 79.6933 78.0291 79.1933 77.5891 78.86C77.1625 78.5133 76.5091 78.34 75.6291 78.34H72.3691V82.38ZM86.9787 90.7C86.1653 90.7 85.492 90.5533 84.9587 90.26C84.4253 89.9533 84.0253 89.5 83.7587 88.9C83.5053 88.3 83.3787 87.5533 83.3787 86.66V81.82C83.3787 81.3933 83.4853 81.08 83.6987 80.88C83.912 80.6667 84.2187 80.56 84.6187 80.56C85.0187 80.56 85.3253 80.6667 85.5387 80.88C85.7653 81.08 85.8787 81.3933 85.8787 81.82V86.7C85.8787 87.3933 86.0187 87.9067 86.2987 88.24C86.5787 88.5733 87.0253 88.74 87.6387 88.74C88.3053 88.74 88.852 88.5133 89.2787 88.06C89.7053 87.5933 89.9187 86.98 89.9187 86.22V81.82C89.9187 81.3933 90.0253 81.08 90.2387 80.88C90.452 80.6667 90.7587 80.56 91.1587 80.56C91.5587 80.56 91.8653 80.6667 92.0787 80.88C92.3053 81.08 92.4187 81.3933 92.4187 81.82V89.38C92.4187 90.2333 92.012 90.66 91.1987 90.66C90.812 90.66 90.512 90.5533 90.2987 90.34C90.0853 90.1133 89.9787 89.7933 89.9787 89.38V87.86L90.2587 88.46C89.9787 89.18 89.552 89.7333 88.9787 90.12C88.4187 90.5067 87.752 90.7 86.9787 90.7ZM99.5007 90.7C98.634 90.7 97.9074 90.5533 97.3207 90.26C96.7474 89.9667 96.3207 89.54 96.0407 88.98C95.7607 88.4067 95.6207 87.7 95.6207 86.86V82.6H94.5807C94.2607 82.6 94.014 82.52 93.8407 82.36C93.6674 82.1867 93.5807 81.9533 93.5807 81.66C93.5807 81.3533 93.6674 81.12 93.8407 80.96C94.014 80.8 94.2607 80.72 94.5807 80.72H95.6207V78.9C95.6207 78.4867 95.7274 78.1733 95.9407 77.96C96.1674 77.7467 96.4807 77.64 96.8807 77.64C97.2807 77.64 97.5874 77.7467 97.8007 77.96C98.014 78.1733 98.1207 78.4867 98.1207 78.9V80.72H100.241C100.561 80.72 100.807 80.8 100.981 80.96C101.154 81.12 101.241 81.3533 101.241 81.66C101.241 81.9533 101.154 82.1867 100.981 82.36C100.807 82.52 100.561 82.6 100.241 82.6H98.1207V86.72C98.1207 87.36 98.2607 87.84 98.5407 88.16C98.8207 88.48 99.274 88.64 99.9007 88.64C100.127 88.64 100.327 88.62 100.501 88.58C100.674 88.54 100.827 88.5133 100.961 88.5C101.121 88.4867 101.254 88.54 101.361 88.66C101.467 88.7667 101.521 88.9933 101.521 89.34C101.521 89.6067 101.474 89.8467 101.381 90.06C101.301 90.26 101.147 90.4 100.921 90.48C100.747 90.5333 100.521 90.58 100.241 90.62C99.9607 90.6733 99.714 90.7 99.5007 90.7ZM106.61 90.7C105.743 90.7 105.017 90.5533 104.43 90.26C103.857 89.9667 103.43 89.54 103.15 88.98C102.87 88.4067 102.73 87.7 102.73 86.86V82.6H101.69C101.37 82.6 101.123 82.52 100.95 82.36C100.777 82.1867 100.69 81.9533 100.69 81.66C100.69 81.3533 100.777 81.12 100.95 80.96C101.123 80.8 101.37 80.72 101.69 80.72H102.73V78.9C102.73 78.4867 102.837 78.1733 103.05 77.96C103.277 77.7467 103.59 77.64 103.99 77.64C104.39 77.64 104.697 77.7467 104.91 77.96C105.123 78.1733 105.23 78.4867 105.23 78.9V80.72H107.35C107.67 80.72 107.917 80.8 108.09 80.96C108.263 81.12 108.35 81.3533 108.35 81.66C108.35 81.9533 108.263 82.1867 108.09 82.36C107.917 82.52 107.67 82.6 107.35 82.6H105.23V86.72C105.23 87.36 105.37 87.84 105.65 88.16C105.93 88.48 106.383 88.64 107.01 88.64C107.237 88.64 107.437 88.62 107.61 88.58C107.783 88.54 107.937 88.5133 108.07 88.5C108.23 88.4867 108.363 88.54 108.47 88.66C108.577 88.7667 108.63 88.9933 108.63 89.34C108.63 89.6067 108.583 89.8467 108.49 90.06C108.41 90.26 108.257 90.4 108.03 90.48C107.857 90.5333 107.63 90.58 107.35 90.62C107.07 90.6733 106.823 90.7 106.61 90.7ZM114.168 90.7C113.155 90.7 112.275 90.4933 111.528 90.08C110.782 89.6667 110.202 89.08 109.788 88.32C109.375 87.5467 109.168 86.64 109.168 85.6C109.168 84.8133 109.282 84.1133 109.508 83.5C109.748 82.8733 110.088 82.34 110.528 81.9C110.968 81.4467 111.495 81.1067 112.108 80.88C112.722 80.64 113.408 80.52 114.168 80.52C115.182 80.52 116.062 80.7267 116.808 81.14C117.555 81.5533 118.135 82.14 118.548 82.9C118.962 83.66 119.168 84.56 119.168 85.6C119.168 86.3867 119.048 87.0933 118.808 87.72C118.582 88.3467 118.248 88.8867 117.808 89.34C117.368 89.78 116.842 90.12 116.228 90.36C115.615 90.5867 114.928 90.7 114.168 90.7ZM114.168 88.8C114.662 88.8 115.095 88.68 115.468 88.44C115.842 88.2 116.128 87.8467 116.328 87.38C116.542 86.9 116.648 86.3067 116.648 85.6C116.648 84.5333 116.422 83.74 115.968 83.22C115.515 82.6867 114.915 82.42 114.168 82.42C113.675 82.42 113.242 82.54 112.868 82.78C112.495 83.0067 112.202 83.36 111.988 83.84C111.788 84.3067 111.688 84.8933 111.688 85.6C111.688 86.6533 111.915 87.4533 112.368 88C112.822 88.5333 113.422 88.8 114.168 88.8ZM122.472 90.66C122.072 90.66 121.765 90.5533 121.552 90.34C121.338 90.1133 121.232 89.7933 121.232 89.38V81.82C121.232 81.4067 121.338 81.0933 121.552 80.88C121.765 80.6667 122.065 80.56 122.452 80.56C122.838 80.56 123.138 80.6667 123.352 80.88C123.565 81.0933 123.672 81.4067 123.672 81.82V83.18L123.452 82.68C123.745 81.9733 124.198 81.44 124.812 81.08C125.438 80.7067 126.145 80.52 126.932 80.52C127.718 80.52 128.365 80.6667 128.872 80.96C129.378 81.2533 129.758 81.7 130.012 82.3C130.265 82.8867 130.392 83.6333 130.392 84.54V89.38C130.392 89.7933 130.285 90.1133 130.072 90.34C129.858 90.5533 129.552 90.66 129.152 90.66C128.752 90.66 128.438 90.5533 128.212 90.34C127.998 90.1133 127.892 89.7933 127.892 89.38V84.66C127.892 83.9 127.745 83.3467 127.452 83C127.172 82.6533 126.732 82.48 126.132 82.48C125.398 82.48 124.812 82.7133 124.372 83.18C123.945 83.6333 123.732 84.24 123.732 85V89.38C123.732 90.2333 123.312 90.66 122.472 90.66Z" fill="white"/>
<rect x="204.5" y="60.5" width="159" height="47" rx="19.5" fill="black"/>
<rect x="204.5" y="60.5" width="159" height="47" rx="19.5" stroke="black"/>
<path d="M255.269 90.5C254.829 90.5 254.489 90.3867 254.249 90.16C254.022 89.92 253.909 89.58 253.909 89.14V77.76C253.909 77.32 254.022 76.9867 254.249 76.76C254.489 76.52 254.829 76.4 255.269 76.4H260.069C261.056 76.4 261.896 76.5467 262.589 76.84C263.282 77.1333 263.809 77.5533 264.169 78.1C264.542 78.6467 264.729 79.3 264.729 80.06C264.729 80.9133 264.482 81.6333 263.989 82.22C263.496 82.8067 262.822 83.2 261.969 83.4V83.1C262.956 83.2467 263.722 83.62 264.269 84.22C264.816 84.82 265.089 85.6 265.089 86.56C265.089 87.8133 264.662 88.7867 263.809 89.48C262.969 90.16 261.796 90.5 260.289 90.5H255.269ZM256.369 88.56H259.969C260.876 88.56 261.542 88.3867 261.969 88.04C262.396 87.68 262.609 87.1467 262.609 86.44C262.609 85.72 262.396 85.1867 261.969 84.84C261.542 84.4933 260.876 84.32 259.969 84.32H256.369V88.56ZM256.369 82.38H259.629C260.509 82.38 261.162 82.2133 261.589 81.88C262.029 81.5333 262.249 81.0267 262.249 80.36C262.249 79.6933 262.029 79.1933 261.589 78.86C261.162 78.5133 260.509 78.34 259.629 78.34H256.369V82.38ZM270.979 90.7C270.165 90.7 269.492 90.5533 268.959 90.26C268.425 89.9533 268.025 89.5 267.759 88.9C267.505 88.3 267.379 87.5533 267.379 86.66V81.82C267.379 81.3933 267.485 81.08 267.699 80.88C267.912 80.6667 268.219 80.56 268.619 80.56C269.019 80.56 269.325 80.6667 269.539 80.88C269.765 81.08 269.879 81.3933 269.879 81.82V86.7C269.879 87.3933 270.019 87.9067 270.299 88.24C270.579 88.5733 271.025 88.74 271.639 88.74C272.305 88.74 272.852 88.5133 273.279 88.06C273.705 87.5933 273.919 86.98 273.919 86.22V81.82C273.919 81.3933 274.025 81.08 274.239 80.88C274.452 80.6667 274.759 80.56 275.159 80.56C275.559 80.56 275.865 80.6667 276.079 80.88C276.305 81.08 276.419 81.3933 276.419 81.82V89.38C276.419 90.2333 276.012 90.66 275.199 90.66C274.812 90.66 274.512 90.5533 274.299 90.34C274.085 90.1133 273.979 89.7933 273.979 89.38V87.86L274.259 88.46C273.979 89.18 273.552 89.7333 272.979 90.12C272.419 90.5067 271.752 90.7 270.979 90.7ZM283.501 90.7C282.634 90.7 281.907 90.5533 281.321 90.26C280.747 89.9667 280.321 89.54 280.041 88.98C279.761 88.4067 279.621 87.7 279.621 86.86V82.6H278.581C278.261 82.6 278.014 82.52 277.841 82.36C277.667 82.1867 277.581 81.9533 277.581 81.66C277.581 81.3533 277.667 81.12 277.841 80.96C278.014 80.8 278.261 80.72 278.581 80.72H279.621V78.9C279.621 78.4867 279.727 78.1733 279.941 77.96C280.167 77.7467 280.481 77.64 280.881 77.64C281.281 77.64 281.587 77.7467 281.801 77.96C282.014 78.1733 282.121 78.4867 282.121 78.9V80.72H284.241C284.561 80.72 284.807 80.8 284.981 80.96C285.154 81.12 285.241 81.3533 285.241 81.66C285.241 81.9533 285.154 82.1867 284.981 82.36C284.807 82.52 284.561 82.6 284.241 82.6H282.121V86.72C282.121 87.36 282.261 87.84 282.541 88.16C282.821 88.48 283.274 88.64 283.901 88.64C284.127 88.64 284.327 88.62 284.501 88.58C284.674 88.54 284.827 88.5133 284.961 88.5C285.121 88.4867 285.254 88.54 285.361 88.66C285.467 88.7667 285.521 88.9933 285.521 89.34C285.521 89.6067 285.474 89.8467 285.381 90.06C285.301 90.26 285.147 90.4 284.921 90.48C284.747 90.5333 284.521 90.58 284.241 90.62C283.961 90.6733 283.714 90.7 283.501 90.7ZM290.61 90.7C289.743 90.7 289.017 90.5533 288.43 90.26C287.857 89.9667 287.43 89.54 287.15 88.98C286.87 88.4067 286.73 87.7 286.73 86.86V82.6H285.69C285.37 82.6 285.123 82.52 284.95 82.36C284.777 82.1867 284.69 81.9533 284.69 81.66C284.69 81.3533 284.777 81.12 284.95 80.96C285.123 80.8 285.37 80.72 285.69 80.72H286.73V78.9C286.73 78.4867 286.837 78.1733 287.05 77.96C287.277 77.7467 287.59 77.64 287.99 77.64C288.39 77.64 288.697 77.7467 288.91 77.96C289.123 78.1733 289.23 78.4867 289.23 78.9V80.72H291.35C291.67 80.72 291.917 80.8 292.09 80.96C292.263 81.12 292.35 81.3533 292.35 81.66C292.35 81.9533 292.263 82.1867 292.09 82.36C291.917 82.52 291.67 82.6 291.35 82.6H289.23V86.72C289.23 87.36 289.37 87.84 289.65 88.16C289.93 88.48 290.383 88.64 291.01 88.64C291.237 88.64 291.437 88.62 291.61 88.58C291.783 88.54 291.937 88.5133 292.07 88.5C292.23 88.4867 292.363 88.54 292.47 88.66C292.577 88.7667 292.63 88.9933 292.63 89.34C292.63 89.6067 292.583 89.8467 292.49 90.06C292.41 90.26 292.257 90.4 292.03 90.48C291.857 90.5333 291.63 90.58 291.35 90.62C291.07 90.6733 290.823 90.7 290.61 90.7ZM298.168 90.7C297.155 90.7 296.275 90.4933 295.528 90.08C294.782 89.6667 294.202 89.08 293.788 88.32C293.375 87.5467 293.168 86.64 293.168 85.6C293.168 84.8133 293.282 84.1133 293.508 83.5C293.748 82.8733 294.088 82.34 294.528 81.9C294.968 81.4467 295.495 81.1067 296.108 80.88C296.722 80.64 297.408 80.52 298.168 80.52C299.182 80.52 300.062 80.7267 300.808 81.14C301.555 81.5533 302.135 82.14 302.548 82.9C302.962 83.66 303.168 84.56 303.168 85.6C303.168 86.3867 303.048 87.0933 302.808 87.72C302.582 88.3467 302.248 88.8867 301.808 89.34C301.368 89.78 300.842 90.12 300.228 90.36C299.615 90.5867 298.928 90.7 298.168 90.7ZM298.168 88.8C298.662 88.8 299.095 88.68 299.468 88.44C299.842 88.2 300.128 87.8467 300.328 87.38C300.542 86.9 300.648 86.3067 300.648 85.6C300.648 84.5333 300.422 83.74 299.968 83.22C299.515 82.6867 298.915 82.42 298.168 82.42C297.675 82.42 297.242 82.54 296.868 82.78C296.495 83.0067 296.202 83.36 295.988 83.84C295.788 84.3067 295.688 84.8933 295.688 85.6C295.688 86.6533 295.915 87.4533 296.368 88C296.822 88.5333 297.422 88.8 298.168 88.8ZM306.472 90.66C306.072 90.66 305.765 90.5533 305.552 90.34C305.338 90.1133 305.232 89.7933 305.232 89.38V81.82C305.232 81.4067 305.338 81.0933 305.552 80.88C305.765 80.6667 306.065 80.56 306.452 80.56C306.838 80.56 307.138 80.6667 307.352 80.88C307.565 81.0933 307.672 81.4067 307.672 81.82V83.18L307.452 82.68C307.745 81.9733 308.198 81.44 308.812 81.08C309.438 80.7067 310.145 80.52 310.932 80.52C311.718 80.52 312.365 80.6667 312.872 80.96C313.378 81.2533 313.758 81.7 314.012 82.3C314.265 82.8867 314.392 83.6333 314.392 84.54V89.38C314.392 89.7933 314.285 90.1133 314.072 90.34C313.858 90.5533 313.552 90.66 313.152 90.66C312.752 90.66 312.438 90.5533 312.212 90.34C311.998 90.1133 311.892 89.7933 311.892 89.38V84.66C311.892 83.9 311.745 83.3467 311.452 83C311.172 82.6533 310.732 82.48 310.132 82.48C309.398 82.48 308.812 82.7133 308.372 83.18C307.945 83.6333 307.732 84.24 307.732 85V89.38C307.732 90.2333 307.312 90.66 306.472 90.66Z" fill="white"/>
<rect x="204.5" y="161.5" width="159" height="47" rx="19.5" fill="white"/>
<rect x="204.5" y="161.5" width="159" height="47" rx="19.5" stroke="black"/>
<path d="M255.269 191.5C254.829 191.5 254.489 191.387 254.249 191.16C254.022 190.92 253.909 190.58 253.909 190.14V178.76C253.909 178.32 254.022 177.987 254.249 177.76C254.489 177.52 254.829 177.4 255.269 177.4H260.069C261.056 177.4 261.896 177.547 262.589 177.84C263.282 178.133 263.809 178.553 264.169 179.1C264.542 179.647 264.729 180.3 264.729 181.06C264.729 181.913 264.482 182.633 263.989 183.22C263.496 183.807 262.822 184.2 261.969 184.4V184.1C262.956 184.247 263.722 184.62 264.269 185.22C264.816 185.82 265.089 186.6 265.089 187.56C265.089 188.813 264.662 189.787 263.809 190.48C262.969 191.16 261.796 191.5 260.289 191.5H255.269ZM256.369 189.56H259.969C260.876 189.56 261.542 189.387 261.969 189.04C262.396 188.68 262.609 188.147 262.609 187.44C262.609 186.72 262.396 186.187 261.969 185.84C261.542 185.493 260.876 185.32 259.969 185.32H256.369V189.56ZM256.369 183.38H259.629C260.509 183.38 261.162 183.213 261.589 182.88C262.029 182.533 262.249 182.027 262.249 181.36C262.249 180.693 262.029 180.193 261.589 179.86C261.162 179.513 260.509 179.34 259.629 179.34H256.369V183.38ZM270.979 191.7C270.165 191.7 269.492 191.553 268.959 191.26C268.425 190.953 268.025 190.5 267.759 189.9C267.505 189.3 267.379 188.553 267.379 187.66V182.82C267.379 182.393 267.485 182.08 267.699 181.88C267.912 181.667 268.219 181.56 268.619 181.56C269.019 181.56 269.325 181.667 269.539 181.88C269.765 182.08 269.879 182.393 269.879 182.82V187.7C269.879 188.393 270.019 188.907 270.299 189.24C270.579 189.573 271.025 189.74 271.639 189.74C272.305 189.74 272.852 189.513 273.279 189.06C273.705 188.593 273.919 187.98 273.919 187.22V182.82C273.919 182.393 274.025 182.08 274.239 181.88C274.452 181.667 274.759 181.56 275.159 181.56C275.559 181.56 275.865 181.667 276.079 181.88C276.305 182.08 276.419 182.393 276.419 182.82V190.38C276.419 191.233 276.012 191.66 275.199 191.66C274.812 191.66 274.512 191.553 274.299 191.34C274.085 191.113 273.979 190.793 273.979 190.38V188.86L274.259 189.46C273.979 190.18 273.552 190.733 272.979 191.12C272.419 191.507 271.752 191.7 270.979 191.7ZM283.501 191.7C282.634 191.7 281.907 191.553 281.321 191.26C280.747 190.967 280.321 190.54 280.041 189.98C279.761 189.407 279.621 188.7 279.621 187.86V183.6H278.581C278.261 183.6 278.014 183.52 277.841 183.36C277.667 183.187 277.581 182.953 277.581 182.66C277.581 182.353 277.667 182.12 277.841 181.96C278.014 181.8 278.261 181.72 278.581 181.72H279.621V179.9C279.621 179.487 279.727 179.173 279.941 178.96C280.167 178.747 280.481 178.64 280.881 178.64C281.281 178.64 281.587 178.747 281.801 178.96C282.014 179.173 282.121 179.487 282.121 179.9V181.72H284.241C284.561 181.72 284.807 181.8 284.981 181.96C285.154 182.12 285.241 182.353 285.241 182.66C285.241 182.953 285.154 183.187 284.981 183.36C284.807 183.52 284.561 183.6 284.241 183.6H282.121V187.72C282.121 188.36 282.261 188.84 282.541 189.16C282.821 189.48 283.274 189.64 283.901 189.64C284.127 189.64 284.327 189.62 284.501 189.58C284.674 189.54 284.827 189.513 284.961 189.5C285.121 189.487 285.254 189.54 285.361 189.66C285.467 189.767 285.521 189.993 285.521 190.34C285.521 190.607 285.474 190.847 285.381 191.06C285.301 191.26 285.147 191.4 284.921 191.48C284.747 191.533 284.521 191.58 284.241 191.62C283.961 191.673 283.714 191.7 283.501 191.7ZM290.61 191.7C289.743 191.7 289.017 191.553 288.43 191.26C287.857 190.967 287.43 190.54 287.15 189.98C286.87 189.407 286.73 188.7 286.73 187.86V183.6H285.69C285.37 183.6 285.123 183.52 284.95 183.36C284.777 183.187 284.69 182.953 284.69 182.66C284.69 182.353 284.777 182.12 284.95 181.96C285.123 181.8 285.37 181.72 285.69 181.72H286.73V179.9C286.73 179.487 286.837 179.173 287.05 178.96C287.277 178.747 287.59 178.64 287.99 178.64C288.39 178.64 288.697 178.747 288.91 178.96C289.123 179.173 289.23 179.487 289.23 179.9V181.72H291.35C291.67 181.72 291.917 181.8 292.09 181.96C292.263 182.12 292.35 182.353 292.35 182.66C292.35 182.953 292.263 183.187 292.09 183.36C291.917 183.52 291.67 183.6 291.35 183.6H289.23V187.72C289.23 188.36 289.37 188.84 289.65 189.16C289.93 189.48 290.383 189.64 291.01 189.64C291.237 189.64 291.437 189.62 291.61 189.58C291.783 189.54 291.937 189.513 292.07 189.5C292.23 189.487 292.363 189.54 292.47 189.66C292.577 189.767 292.63 189.993 292.63 190.34C292.63 190.607 292.583 190.847 292.49 191.06C292.41 191.26 292.257 191.4 292.03 191.48C291.857 191.533 291.63 191.58 291.35 191.62C291.07 191.673 290.823 191.7 290.61 191.7ZM298.168 191.7C297.155 191.7 296.275 191.493 295.528 191.08C294.782 190.667 294.202 190.08 293.788 189.32C293.375 188.547 293.168 187.64 293.168 186.6C293.168 185.813 293.282 185.113 293.508 184.5C293.748 183.873 294.088 183.34 294.528 182.9C294.968 182.447 295.495 182.107 296.108 181.88C296.722 181.64 297.408 181.52 298.168 181.52C299.182 181.52 300.062 181.727 300.808 182.14C301.555 182.553 302.135 183.14 302.548 183.9C302.962 184.66 303.168 185.56 303.168 186.6C303.168 187.387 303.048 188.093 302.808 188.72C302.582 189.347 302.248 189.887 301.808 190.34C301.368 190.78 300.842 191.12 300.228 191.36C299.615 191.587 298.928 191.7 298.168 191.7ZM298.168 189.8C298.662 189.8 299.095 189.68 299.468 189.44C299.842 189.2 300.128 188.847 300.328 188.38C300.542 187.9 300.648 187.307 300.648 186.6C300.648 185.533 300.422 184.74 299.968 184.22C299.515 183.687 298.915 183.42 298.168 183.42C297.675 183.42 297.242 183.54 296.868 183.78C296.495 184.007 296.202 184.36 295.988 184.84C295.788 185.307 295.688 185.893 295.688 186.6C295.688 187.653 295.915 188.453 296.368 189C296.822 189.533 297.422 189.8 298.168 189.8ZM306.472 191.66C306.072 191.66 305.765 191.553 305.552 191.34C305.338 191.113 305.232 190.793 305.232 190.38V182.82C305.232 182.407 305.338 182.093 305.552 181.88C305.765 181.667 306.065 181.56 306.452 181.56C306.838 181.56 307.138 181.667 307.352 181.88C307.565 182.093 307.672 182.407 307.672 182.82V184.18L307.452 183.68C307.745 182.973 308.198 182.44 308.812 182.08C309.438 181.707 310.145 181.52 310.932 181.52C311.718 181.52 312.365 181.667 312.872 181.96C313.378 182.253 313.758 182.7 314.012 183.3C314.265 183.887 314.392 184.633 314.392 185.54V190.38C314.392 190.793 314.285 191.113 314.072 191.34C313.858 191.553 313.552 191.66 313.152 191.66C312.752 191.66 312.438 191.553 312.212 191.34C311.998 191.113 311.892 190.793 311.892 190.38V185.66C311.892 184.9 311.745 184.347 311.452 184C311.172 183.653 310.732 183.48 310.132 183.48C309.398 183.48 308.812 183.713 308.372 184.18C307.945 184.633 307.732 185.24 307.732 186V190.38C307.732 191.233 307.312 191.66 306.472 191.66Z" fill="black"/>
<rect x="20.5" y="161.5" width="159" height="47" rx="19.5" fill="white"/>
<rect x="20.5" y="161.5" width="159" height="47" rx="19.5" stroke="#006075"/>
<path d="M71.2691 191.5C70.8291 191.5 70.4891 191.387 70.2491 191.16C70.0225 190.92 69.9091 190.58 69.9091 190.14V178.76C69.9091 178.32 70.0225 177.987 70.2491 177.76C70.4891 177.52 70.8291 177.4 71.2691 177.4H76.0691C77.0558 177.4 77.8958 177.547 78.5891 177.84C79.2825 178.133 79.8091 178.553 80.1691 179.1C80.5425 179.647 80.7291 180.3 80.7291 181.06C80.7291 181.913 80.4825 182.633 79.9891 183.22C79.4958 183.807 78.8225 184.2 77.9691 184.4V184.1C78.9558 184.247 79.7225 184.62 80.2691 185.22C80.8158 185.82 81.0891 186.6 81.0891 187.56C81.0891 188.813 80.6625 189.787 79.8091 190.48C78.9691 191.16 77.7958 191.5 76.2891 191.5H71.2691ZM72.3691 189.56H75.9691C76.8758 189.56 77.5425 189.387 77.9691 189.04C78.3958 188.68 78.6091 188.147 78.6091 187.44C78.6091 186.72 78.3958 186.187 77.9691 185.84C77.5425 185.493 76.8758 185.32 75.9691 185.32H72.3691V189.56ZM72.3691 183.38H75.6291C76.5091 183.38 77.1625 183.213 77.5891 182.88C78.0291 182.533 78.2491 182.027 78.2491 181.36C78.2491 180.693 78.0291 180.193 77.5891 179.86C77.1625 179.513 76.5091 179.34 75.6291 179.34H72.3691V183.38ZM86.9787 191.7C86.1653 191.7 85.492 191.553 84.9587 191.26C84.4253 190.953 84.0253 190.5 83.7587 189.9C83.5053 189.3 83.3787 188.553 83.3787 187.66V182.82C83.3787 182.393 83.4853 182.08 83.6987 181.88C83.912 181.667 84.2187 181.56 84.6187 181.56C85.0187 181.56 85.3253 181.667 85.5387 181.88C85.7653 182.08 85.8787 182.393 85.8787 182.82V187.7C85.8787 188.393 86.0187 188.907 86.2987 189.24C86.5787 189.573 87.0253 189.74 87.6387 189.74C88.3053 189.74 88.852 189.513 89.2787 189.06C89.7053 188.593 89.9187 187.98 89.9187 187.22V182.82C89.9187 182.393 90.0253 182.08 90.2387 181.88C90.452 181.667 90.7587 181.56 91.1587 181.56C91.5587 181.56 91.8653 181.667 92.0787 181.88C92.3053 182.08 92.4187 182.393 92.4187 182.82V190.38C92.4187 191.233 92.012 191.66 91.1987 191.66C90.812 191.66 90.512 191.553 90.2987 191.34C90.0853 191.113 89.9787 190.793 89.9787 190.38V188.86L90.2587 189.46C89.9787 190.18 89.552 190.733 88.9787 191.12C88.4187 191.507 87.752 191.7 86.9787 191.7ZM99.5007 191.7C98.634 191.7 97.9074 191.553 97.3207 191.26C96.7474 190.967 96.3207 190.54 96.0407 189.98C95.7607 189.407 95.6207 188.7 95.6207 187.86V183.6H94.5807C94.2607 183.6 94.014 183.52 93.8407 183.36C93.6674 183.187 93.5807 182.953 93.5807 182.66C93.5807 182.353 93.6674 182.12 93.8407 181.96C94.014 181.8 94.2607 181.72 94.5807 181.72H95.6207V179.9C95.6207 179.487 95.7274 179.173 95.9407 178.96C96.1674 178.747 96.4807 178.64 96.8807 178.64C97.2807 178.64 97.5874 178.747 97.8007 178.96C98.014 179.173 98.1207 179.487 98.1207 179.9V181.72H100.241C100.561 181.72 100.807 181.8 100.981 181.96C101.154 182.12 101.241 182.353 101.241 182.66C101.241 182.953 101.154 183.187 100.981 183.36C100.807 183.52 100.561 183.6 100.241 183.6H98.1207V187.72C98.1207 188.36 98.2607 188.84 98.5407 189.16C98.8207 189.48 99.274 189.64 99.9007 189.64C100.127 189.64 100.327 189.62 100.501 189.58C100.674 189.54 100.827 189.513 100.961 189.5C101.121 189.487 101.254 189.54 101.361 189.66C101.467 189.767 101.521 189.993 101.521 190.34C101.521 190.607 101.474 190.847 101.381 191.06C101.301 191.26 101.147 191.4 100.921 191.48C100.747 191.533 100.521 191.58 100.241 191.62C99.9607 191.673 99.714 191.7 99.5007 191.7ZM106.61 191.7C105.743 191.7 105.017 191.553 104.43 191.26C103.857 190.967 103.43 190.54 103.15 189.98C102.87 189.407 102.73 188.7 102.73 187.86V183.6H101.69C101.37 183.6 101.123 183.52 100.95 183.36C100.777 183.187 100.69 182.953 100.69 182.66C100.69 182.353 100.777 182.12 100.95 181.96C101.123 181.8 101.37 181.72 101.69 181.72H102.73V179.9C102.73 179.487 102.837 179.173 103.05 178.96C103.277 178.747 103.59 178.64 103.99 178.64C104.39 178.64 104.697 178.747 104.91 178.96C105.123 179.173 105.23 179.487 105.23 179.9V181.72H107.35C107.67 181.72 107.917 181.8 108.09 181.96C108.263 182.12 108.35 182.353 108.35 182.66C108.35 182.953 108.263 183.187 108.09 183.36C107.917 183.52 107.67 183.6 107.35 183.6H105.23V187.72C105.23 188.36 105.37 188.84 105.65 189.16C105.93 189.48 106.383 189.64 107.01 189.64C107.237 189.64 107.437 189.62 107.61 189.58C107.783 189.54 107.937 189.513 108.07 189.5C108.23 189.487 108.363 189.54 108.47 189.66C108.577 189.767 108.63 189.993 108.63 190.34C108.63 190.607 108.583 190.847 108.49 191.06C108.41 191.26 108.257 191.4 108.03 191.48C107.857 191.533 107.63 191.58 107.35 191.62C107.07 191.673 106.823 191.7 106.61 191.7ZM114.168 191.7C113.155 191.7 112.275 191.493 111.528 191.08C110.782 190.667 110.202 190.08 109.788 189.32C109.375 188.547 109.168 187.64 109.168 186.6C109.168 185.813 109.282 185.113 109.508 184.5C109.748 183.873 110.088 183.34 110.528 182.9C110.968 182.447 111.495 182.107 112.108 181.88C112.722 181.64 113.408 181.52 114.168 181.52C115.182 181.52 116.062 181.727 116.808 182.14C117.555 182.553 118.135 183.14 118.548 183.9C118.962 184.66 119.168 185.56 119.168 186.6C119.168 187.387 119.048 188.093 118.808 188.72C118.582 189.347 118.248 189.887 117.808 190.34C117.368 190.78 116.842 191.12 116.228 191.36C115.615 191.587 114.928 191.7 114.168 191.7ZM114.168 189.8C114.662 189.8 115.095 189.68 115.468 189.44C115.842 189.2 116.128 188.847 116.328 188.38C116.542 187.9 116.648 187.307 116.648 186.6C116.648 185.533 116.422 184.74 115.968 184.22C115.515 183.687 114.915 183.42 114.168 183.42C113.675 183.42 113.242 183.54 112.868 183.78C112.495 184.007 112.202 184.36 111.988 184.84C111.788 185.307 111.688 185.893 111.688 186.6C111.688 187.653 111.915 188.453 112.368 189C112.822 189.533 113.422 189.8 114.168 189.8ZM122.472 191.66C122.072 191.66 121.765 191.553 121.552 191.34C121.338 191.113 121.232 190.793 121.232 190.38V182.82C121.232 182.407 121.338 182.093 121.552 181.88C121.765 181.667 122.065 181.56 122.452 181.56C122.838 181.56 123.138 181.667 123.352 181.88C123.565 182.093 123.672 182.407 123.672 182.82V184.18L123.452 183.68C123.745 182.973 124.198 182.44 124.812 182.08C125.438 181.707 126.145 181.52 126.932 181.52C127.718 181.52 128.365 181.667 128.872 181.96C129.378 182.253 129.758 182.7 130.012 183.3C130.265 183.887 130.392 184.633 130.392 185.54V190.38C130.392 190.793 130.285 191.113 130.072 191.34C129.858 191.553 129.552 191.66 129.152 191.66C128.752 191.66 128.438 191.553 128.212 191.34C127.998 191.113 127.892 190.793 127.892 190.38V185.66C127.892 184.9 127.745 184.347 127.452 184C127.172 183.653 126.732 183.48 126.132 183.48C125.398 183.48 124.812 183.713 124.372 184.18C123.945 184.633 123.732 185.24 123.732 186V190.38C123.732 191.233 123.312 191.66 122.472 191.66Z" fill="#006075"/>
<rect x="20.5" y="262.5" width="159" height="47" rx="19.5" fill="#C9F5FF"/>
<rect x="20.5" y="262.5" width="159" height="47" rx="19.5" stroke="#006075"/>
<path d="M71.2691 292.5C70.8291 292.5 70.4891 292.387 70.2491 292.16C70.0225 291.92 69.9091 291.58 69.9091 291.14V279.76C69.9091 279.32 70.0225 278.987 70.2491 278.76C70.4891 278.52 70.8291 278.4 71.2691 278.4H76.0691C77.0558 278.4 77.8958 278.547 78.5891 278.84C79.2825 279.133 79.8091 279.553 80.1691 280.1C80.5425 280.647 80.7291 281.3 80.7291 282.06C80.7291 282.913 80.4825 283.633 79.9891 284.22C79.4958 284.807 78.8225 285.2 77.9691 285.4V285.1C78.9558 285.247 79.7225 285.62 80.2691 286.22C80.8158 286.82 81.0891 287.6 81.0891 288.56C81.0891 289.813 80.6625 290.787 79.8091 291.48C78.9691 292.16 77.7958 292.5 76.2891 292.5H71.2691ZM72.3691 290.56H75.9691C76.8758 290.56 77.5425 290.387 77.9691 290.04C78.3958 289.68 78.6091 289.147 78.6091 288.44C78.6091 287.72 78.3958 287.187 77.9691 286.84C77.5425 286.493 76.8758 286.32 75.9691 286.32H72.3691V290.56ZM72.3691 284.38H75.6291C76.5091 284.38 77.1625 284.213 77.5891 283.88C78.0291 283.533 78.2491 283.027 78.2491 282.36C78.2491 281.693 78.0291 281.193 77.5891 280.86C77.1625 280.513 76.5091 280.34 75.6291 280.34H72.3691V284.38ZM86.9787 292.7C86.1653 292.7 85.492 292.553 84.9587 292.26C84.4253 291.953 84.0253 291.5 83.7587 290.9C83.5053 290.3 83.3787 289.553 83.3787 288.66V283.82C83.3787 283.393 83.4853 283.08 83.6987 282.88C83.912 282.667 84.2187 282.56 84.6187 282.56C85.0187 282.56 85.3253 282.667 85.5387 282.88C85.7653 283.08 85.8787 283.393 85.8787 283.82V288.7C85.8787 289.393 86.0187 289.907 86.2987 290.24C86.5787 290.573 87.0253 290.74 87.6387 290.74C88.3053 290.74 88.852 290.513 89.2787 290.06C89.7053 289.593 89.9187 288.98 89.9187 288.22V283.82C89.9187 283.393 90.0253 283.08 90.2387 282.88C90.452 282.667 90.7587 282.56 91.1587 282.56C91.5587 282.56 91.8653 282.667 92.0787 282.88C92.3053 283.08 92.4187 283.393 92.4187 283.82V291.38C92.4187 292.233 92.012 292.66 91.1987 292.66C90.812 292.66 90.512 292.553 90.2987 292.34C90.0853 292.113 89.9787 291.793 89.9787 291.38V289.86L90.2587 290.46C89.9787 291.18 89.552 291.733 88.9787 292.12C88.4187 292.507 87.752 292.7 86.9787 292.7ZM99.5007 292.7C98.634 292.7 97.9074 292.553 97.3207 292.26C96.7474 291.967 96.3207 291.54 96.0407 290.98C95.7607 290.407 95.6207 289.7 95.6207 288.86V284.6H94.5807C94.2607 284.6 94.014 284.52 93.8407 284.36C93.6674 284.187 93.5807 283.953 93.5807 283.66C93.5807 283.353 93.6674 283.12 93.8407 282.96C94.014 282.8 94.2607 282.72 94.5807 282.72H95.6207V280.9C95.6207 280.487 95.7274 280.173 95.9407 279.96C96.1674 279.747 96.4807 279.64 96.8807 279.64C97.2807 279.64 97.5874 279.747 97.8007 279.96C98.014 280.173 98.1207 280.487 98.1207 280.9V282.72H100.241C100.561 282.72 100.807 282.8 100.981 282.96C101.154 283.12 101.241 283.353 101.241 283.66C101.241 283.953 101.154 284.187 100.981 284.36C100.807 284.52 100.561 284.6 100.241 284.6H98.1207V288.72C98.1207 289.36 98.2607 289.84 98.5407 290.16C98.8207 290.48 99.274 290.64 99.9007 290.64C100.127 290.64 100.327 290.62 100.501 290.58C100.674 290.54 100.827 290.513 100.961 290.5C101.121 290.487 101.254 290.54 101.361 290.66C101.467 290.767 101.521 290.993 101.521 291.34C101.521 291.607 101.474 291.847 101.381 292.06C101.301 292.26 101.147 292.4 100.921 292.48C100.747 292.533 100.521 292.58 100.241 292.62C99.9607 292.673 99.714 292.7 99.5007 292.7ZM106.61 292.7C105.743 292.7 105.017 292.553 104.43 292.26C103.857 291.967 103.43 291.54 103.15 290.98C102.87 290.407 102.73 289.7 102.73 288.86V284.6H101.69C101.37 284.6 101.123 284.52 100.95 284.36C100.777 284.187 100.69 283.953 100.69 283.66C100.69 283.353 100.777 283.12 100.95 282.96C101.123 282.8 101.37 282.72 101.69 282.72H102.73V280.9C102.73 280.487 102.837 280.173 103.05 279.96C103.277 279.747 103.59 279.64 103.99 279.64C104.39 279.64 104.697 279.747 104.91 279.96C105.123 280.173 105.23 280.487 105.23 280.9V282.72H107.35C107.67 282.72 107.917 282.8 108.09 282.96C108.263 283.12 108.35 283.353 108.35 283.66C108.35 283.953 108.263 284.187 108.09 284.36C107.917 284.52 107.67 284.6 107.35 284.6H105.23V288.72C105.23 289.36 105.37 289.84 105.65 290.16C105.93 290.48 106.383 290.64 107.01 290.64C107.237 290.64 107.437 290.62 107.61 290.58C107.783 290.54 107.937 290.513 108.07 290.5C108.23 290.487 108.363 290.54 108.47 290.66C108.577 290.767 108.63 290.993 108.63 291.34C108.63 291.607 108.583 291.847 108.49 292.06C108.41 292.26 108.257 292.4 108.03 292.48C107.857 292.533 107.63 292.58 107.35 292.62C107.07 292.673 106.823 292.7 106.61 292.7ZM114.168 292.7C113.155 292.7 112.275 292.493 111.528 292.08C110.782 291.667 110.202 291.08 109.788 290.32C109.375 289.547 109.168 288.64 109.168 287.6C109.168 286.813 109.282 286.113 109.508 285.5C109.748 284.873 110.088 284.34 110.528 283.9C110.968 283.447 111.495 283.107 112.108 282.88C112.722 282.64 113.408 282.52 114.168 282.52C115.182 282.52 116.062 282.727 116.808 283.14C117.555 283.553 118.135 284.14 118.548 284.9C118.962 285.66 119.168 286.56 119.168 287.6C119.168 288.387 119.048 289.093 118.808 289.72C118.582 290.347 118.248 290.887 117.808 291.34C117.368 291.78 116.842 292.12 116.228 292.36C115.615 292.587 114.928 292.7 114.168 292.7ZM114.168 290.8C114.662 290.8 115.095 290.68 115.468 290.44C115.842 290.2 116.128 289.847 116.328 289.38C116.542 288.9 116.648 288.307 116.648 287.6C116.648 286.533 116.422 285.74 115.968 285.22C115.515 284.687 114.915 284.42 114.168 284.42C113.675 284.42 113.242 284.54 112.868 284.78C112.495 285.007 112.202 285.36 111.988 285.84C111.788 286.307 111.688 286.893 111.688 287.6C111.688 288.653 111.915 289.453 112.368 290C112.822 290.533 113.422 290.8 114.168 290.8ZM122.472 292.66C122.072 292.66 121.765 292.553 121.552 292.34C121.338 292.113 121.232 291.793 121.232 291.38V283.82C121.232 283.407 121.338 283.093 121.552 282.88C121.765 282.667 122.065 282.56 122.452 282.56C122.838 282.56 123.138 282.667 123.352 282.88C123.565 283.093 123.672 283.407 123.672 283.82V285.18L123.452 284.68C123.745 283.973 124.198 283.44 124.812 283.08C125.438 282.707 126.145 282.52 126.932 282.52C127.718 282.52 128.365 282.667 128.872 282.96C129.378 283.253 129.758 283.7 130.012 284.3C130.265 284.887 130.392 285.633 130.392 286.54V291.38C130.392 291.793 130.285 292.113 130.072 292.34C129.858 292.553 129.552 292.66 129.152 292.66C128.752 292.66 128.438 292.553 128.212 292.34C127.998 292.113 127.892 291.793 127.892 291.38V286.66C127.892 285.9 127.745 285.347 127.452 285C127.172 284.653 126.732 284.48 126.132 284.48C125.398 284.48 124.812 284.713 124.372 285.18C123.945 285.633 123.732 286.24 123.732 287V291.38C123.732 292.233 123.312 292.66 122.472 292.66Z" fill="#006075"/>
<rect x="204.5" y="262.5" width="159" height="47" rx="19.5" fill="#ECECEC"/>
<rect x="204.5" y="262.5" width="159" height="47" rx="19.5" stroke="black"/>
<path d="M255.269 292.5C254.829 292.5 254.489 292.387 254.249 292.16C254.022 291.92 253.909 291.58 253.909 291.14V279.76C253.909 279.32 254.022 278.987 254.249 278.76C254.489 278.52 254.829 278.4 255.269 278.4H260.069C261.056 278.4 261.896 278.547 262.589 278.84C263.282 279.133 263.809 279.553 264.169 280.1C264.542 280.647 264.729 281.3 264.729 282.06C264.729 282.913 264.482 283.633 263.989 284.22C263.496 284.807 262.822 285.2 261.969 285.4V285.1C262.956 285.247 263.722 285.62 264.269 286.22C264.816 286.82 265.089 287.6 265.089 288.56C265.089 289.813 264.662 290.787 263.809 291.48C262.969 292.16 261.796 292.5 260.289 292.5H255.269ZM256.369 290.56H259.969C260.876 290.56 261.542 290.387 261.969 290.04C262.396 289.68 262.609 289.147 262.609 288.44C262.609 287.72 262.396 287.187 261.969 286.84C261.542 286.493 260.876 286.32 259.969 286.32H256.369V290.56ZM256.369 284.38H259.629C260.509 284.38 261.162 284.213 261.589 283.88C262.029 283.533 262.249 283.027 262.249 282.36C262.249 281.693 262.029 281.193 261.589 280.86C261.162 280.513 260.509 280.34 259.629 280.34H256.369V284.38ZM270.979 292.7C270.165 292.7 269.492 292.553 268.959 292.26C268.425 291.953 268.025 291.5 267.759 290.9C267.505 290.3 267.379 289.553 267.379 288.66V283.82C267.379 283.393 267.485 283.08 267.699 282.88C267.912 282.667 268.219 282.56 268.619 282.56C269.019 282.56 269.325 282.667 269.539 282.88C269.765 283.08 269.879 283.393 269.879 283.82V288.7C269.879 289.393 270.019 289.907 270.299 290.24C270.579 290.573 271.025 290.74 271.639 290.74C272.305 290.74 272.852 290.513 273.279 290.06C273.705 289.593 273.919 288.98 273.919 288.22V283.82C273.919 283.393 274.025 283.08 274.239 282.88C274.452 282.667 274.759 282.56 275.159 282.56C275.559 282.56 275.865 282.667 276.079 282.88C276.305 283.08 276.419 283.393 276.419 283.82V291.38C276.419 292.233 276.012 292.66 275.199 292.66C274.812 292.66 274.512 292.553 274.299 292.34C274.085 292.113 273.979 291.793 273.979 291.38V289.86L274.259 290.46C273.979 291.18 273.552 291.733 272.979 292.12C272.419 292.507 271.752 292.7 270.979 292.7ZM283.501 292.7C282.634 292.7 281.907 292.553 281.321 292.26C280.747 291.967 280.321 291.54 280.041 290.98C279.761 290.407 279.621 289.7 279.621 288.86V284.6H278.581C278.261 284.6 278.014 284.52 277.841 284.36C277.667 284.187 277.581 283.953 277.581 283.66C277.581 283.353 277.667 283.12 277.841 282.96C278.014 282.8 278.261 282.72 278.581 282.72H279.621V280.9C279.621 280.487 279.727 280.173 279.941 279.96C280.167 279.747 280.481 279.64 280.881 279.64C281.281 279.64 281.587 279.747 281.801 279.96C282.014 280.173 282.121 280.487 282.121 280.9V282.72H284.241C284.561 282.72 284.807 282.8 284.981 282.96C285.154 283.12 285.241 283.353 285.241 283.66C285.241 283.953 285.154 284.187 284.981 284.36C284.807 284.52 284.561 284.6 284.241 284.6H282.121V288.72C282.121 289.36 282.261 289.84 282.541 290.16C282.821 290.48 283.274 290.64 283.901 290.64C284.127 290.64 284.327 290.62 284.501 290.58C284.674 290.54 284.827 290.513 284.961 290.5C285.121 290.487 285.254 290.54 285.361 290.66C285.467 290.767 285.521 290.993 285.521 291.34C285.521 291.607 285.474 291.847 285.381 292.06C285.301 292.26 285.147 292.4 284.921 292.48C284.747 292.533 284.521 292.58 284.241 292.62C283.961 292.673 283.714 292.7 283.501 292.7ZM290.61 292.7C289.743 292.7 289.017 292.553 288.43 292.26C287.857 291.967 287.43 291.54 287.15 290.98C286.87 290.407 286.73 289.7 286.73 288.86V284.6H285.69C285.37 284.6 285.123 284.52 284.95 284.36C284.777 284.187 284.69 283.953 284.69 283.66C284.69 283.353 284.777 283.12 284.95 282.96C285.123 282.8 285.37 282.72 285.69 282.72H286.73V280.9C286.73 280.487 286.837 280.173 287.05 279.96C287.277 279.747 287.59 279.64 287.99 279.64C288.39 279.64 288.697 279.747 288.91 279.96C289.123 280.173 289.23 280.487 289.23 280.9V282.72H291.35C291.67 282.72 291.917 282.8 292.09 282.96C292.263 283.12 292.35 283.353 292.35 283.66C292.35 283.953 292.263 284.187 292.09 284.36C291.917 284.52 291.67 284.6 291.35 284.6H289.23V288.72C289.23 289.36 289.37 289.84 289.65 290.16C289.93 290.48 290.383 290.64 291.01 290.64C291.237 290.64 291.437 290.62 291.61 290.58C291.783 290.54 291.937 290.513 292.07 290.5C292.23 290.487 292.363 290.54 292.47 290.66C292.577 290.767 292.63 290.993 292.63 291.34C292.63 291.607 292.583 291.847 292.49 292.06C292.41 292.26 292.257 292.4 292.03 292.48C291.857 292.533 291.63 292.58 291.35 292.62C291.07 292.673 290.823 292.7 290.61 292.7ZM298.168 292.7C297.155 292.7 296.275 292.493 295.528 292.08C294.782 291.667 294.202 291.08 293.788 290.32C293.375 289.547 293.168 288.64 293.168 287.6C293.168 286.813 293.282 286.113 293.508 285.5C293.748 284.873 294.088 284.34 294.528 283.9C294.968 283.447 295.495 283.107 296.108 282.88C296.722 282.64 297.408 282.52 298.168 282.52C299.182 282.52 300.062 282.727 300.808 283.14C301.555 283.553 302.135 284.14 302.548 284.9C302.962 285.66 303.168 286.56 303.168 287.6C303.168 288.387 303.048 289.093 302.808 289.72C302.582 290.347 302.248 290.887 301.808 291.34C301.368 291.78 300.842 292.12 300.228 292.36C299.615 292.587 298.928 292.7 298.168 292.7ZM298.168 290.8C298.662 290.8 299.095 290.68 299.468 290.44C299.842 290.2 300.128 289.847 300.328 289.38C300.542 288.9 300.648 288.307 300.648 287.6C300.648 286.533 300.422 285.74 299.968 285.22C299.515 284.687 298.915 284.42 298.168 284.42C297.675 284.42 297.242 284.54 296.868 284.78C296.495 285.007 296.202 285.36 295.988 285.84C295.788 286.307 295.688 286.893 295.688 287.6C295.688 288.653 295.915 289.453 296.368 290C296.822 290.533 297.422 290.8 298.168 290.8ZM306.472 292.66C306.072 292.66 305.765 292.553 305.552 292.34C305.338 292.113 305.232 291.793 305.232 291.38V283.82C305.232 283.407 305.338 283.093 305.552 282.88C305.765 282.667 306.065 282.56 306.452 282.56C306.838 282.56 307.138 282.667 307.352 282.88C307.565 283.093 307.672 283.407 307.672 283.82V285.18L307.452 284.68C307.745 283.973 308.198 283.44 308.812 283.08C309.438 282.707 310.145 282.52 310.932 282.52C311.718 282.52 312.365 282.667 312.872 282.96C313.378 283.253 313.758 283.7 314.012 284.3C314.265 284.887 314.392 285.633 314.392 286.54V291.38C314.392 291.793 314.285 292.113 314.072 292.34C313.858 292.553 313.552 292.66 313.152 292.66C312.752 292.66 312.438 292.553 312.212 292.34C311.998 292.113 311.892 291.793 311.892 291.38V286.66C311.892 285.9 311.745 285.347 311.452 285C311.172 284.653 310.732 284.48 310.132 284.48C309.398 284.48 308.812 284.713 308.372 285.18C307.945 285.633 307.732 286.24 307.732 287V291.38C307.732 292.233 307.312 292.66 306.472 292.66Z" fill="black"/>
<path d="M3.38633 20C2.94633 20 2.60633 19.8867 2.36633 19.66C2.13966 19.42 2.02633 19.08 2.02633 18.64V7.26C2.02633 6.82 2.13966 6.48667 2.36633 6.26C2.60633 6.02 2.94633 5.9 3.38633 5.9H8.18633C9.173 5.9 10.013 6.04667 10.7063 6.34C11.3997 6.63333 11.9263 7.05333 12.2863 7.6C12.6597 8.14667 12.8463 8.8 12.8463 9.56C12.8463 10.4133 12.5997 11.1333 12.1063 11.72C11.613 12.3067 10.9397 12.7 10.0863 12.9V12.6C11.073 12.7467 11.8397 13.12 12.3863 13.72C12.933 14.32 13.2063 15.1 13.2063 16.06C13.2063 17.3133 12.7797 18.2867 11.9263 18.98C11.0863 19.66 9.913 20 8.40633 20H3.38633ZM4.48633 18.06H8.08633C8.993 18.06 9.65966 17.8867 10.0863 17.54C10.513 17.18 10.7263 16.6467 10.7263 15.94C10.7263 15.22 10.513 14.6867 10.0863 14.34C9.65966 13.9933 8.993 13.82 8.08633 13.82H4.48633V18.06ZM4.48633 11.88H7.74633C8.62633 11.88 9.27966 11.7133 9.70633 11.38C10.1463 11.0333 10.3663 10.5267 10.3663 9.86C10.3663 9.19333 10.1463 8.69333 9.70633 8.36C9.27966 8.01333 8.62633 7.84 7.74633 7.84H4.48633V11.88ZM19.0959 20.2C18.2825 20.2 17.6092 20.0533 17.0759 19.76C16.5425 19.4533 16.1425 19 15.8759 18.4C15.6225 17.8 15.4959 17.0533 15.4959 16.16V11.32C15.4959 10.8933 15.6025 10.58 15.8159 10.38C16.0292 10.1667 16.3359 10.06 16.7359 10.06C17.1359 10.06 17.4425 10.1667 17.6559 10.38C17.8825 10.58 17.9959 10.8933 17.9959 11.32V16.2C17.9959 16.8933 18.1359 17.4067 18.4159 17.74C18.6959 18.0733 19.1425 18.24 19.7559 18.24C20.4225 18.24 20.9692 18.0133 21.3959 17.56C21.8225 17.0933 22.0359 16.48 22.0359 15.72V11.32C22.0359 10.8933 22.1425 10.58 22.3559 10.38C22.5692 10.1667 22.8759 10.06 23.2759 10.06C23.6759 10.06 23.9825 10.1667 24.1959 10.38C24.4225 10.58 24.5359 10.8933 24.5359 11.32V18.88C24.5359 19.7333 24.1292 20.16 23.3159 20.16C22.9292 20.16 22.6292 20.0533 22.4159 19.84C22.2025 19.6133 22.0959 19.2933 22.0959 18.88V17.36L22.3759 17.96C22.0959 18.68 21.6692 19.2333 21.0959 19.62C20.5359 20.0067 19.8692 20.2 19.0959 20.2ZM31.6179 20.2C30.7512 20.2 30.0246 20.0533 29.4379 19.76C28.8646 19.4667 28.4379 19.04 28.1579 18.48C27.8779 17.9067 27.7379 17.2 27.7379 16.36V12.1H26.6979C26.3779 12.1 26.1312 12.02 25.9579 11.86C25.7846 11.6867 25.6979 11.4533 25.6979 11.16C25.6979 10.8533 25.7846 10.62 25.9579 10.46C26.1312 10.3 26.3779 10.22 26.6979 10.22H27.7379V8.4C27.7379 7.98667 27.8446 7.67333 28.0579 7.46C28.2846 7.24667 28.5979 7.14 28.9979 7.14C29.3979 7.14 29.7046 7.24667 29.9179 7.46C30.1312 7.67333 30.2379 7.98667 30.2379 8.4V10.22H32.3579C32.6779 10.22 32.9246 10.3 33.0979 10.46C33.2712 10.62 33.3579 10.8533 33.3579 11.16C33.3579 11.4533 33.2712 11.6867 33.0979 11.86C32.9246 12.02 32.6779 12.1 32.3579 12.1H30.2379V16.22C30.2379 16.86 30.3779 17.34 30.6579 17.66C30.9379 17.98 31.3912 18.14 32.0179 18.14C32.2446 18.14 32.4446 18.12 32.6179 18.08C32.7912 18.04 32.9446 18.0133 33.0779 18C33.2379 17.9867 33.3712 18.04 33.4779 18.16C33.5846 18.2667 33.6379 18.4933 33.6379 18.84C33.6379 19.1067 33.5912 19.3467 33.4979 19.56C33.4179 19.76 33.2646 19.9 33.0379 19.98C32.8646 20.0333 32.6379 20.08 32.3579 20.12C32.0779 20.1733 31.8312 20.2 31.6179 20.2ZM38.7273 20.2C37.8606 20.2 37.1339 20.0533 36.5473 19.76C35.9739 19.4667 35.5473 19.04 35.2673 18.48C34.9873 17.9067 34.8473 17.2 34.8473 16.36V12.1H33.8073C33.4873 12.1 33.2406 12.02 33.0673 11.86C32.8939 11.6867 32.8073 11.4533 32.8073 11.16C32.8073 10.8533 32.8939 10.62 33.0673 10.46C33.2406 10.3 33.4873 10.22 33.8073 10.22H34.8473V8.4C34.8473 7.98667 34.9539 7.67333 35.1673 7.46C35.3939 7.24667 35.7073 7.14 36.1073 7.14C36.5073 7.14 36.8139 7.24667 37.0273 7.46C37.2406 7.67333 37.3473 7.98667 37.3473 8.4V10.22H39.4673C39.7873 10.22 40.0339 10.3 40.2073 10.46C40.3806 10.62 40.4673 10.8533 40.4673 11.16C40.4673 11.4533 40.3806 11.6867 40.2073 11.86C40.0339 12.02 39.7873 12.1 39.4673 12.1H37.3473V16.22C37.3473 16.86 37.4873 17.34 37.7673 17.66C38.0473 17.98 38.5006 18.14 39.1273 18.14C39.3539 18.14 39.5539 18.12 39.7273 18.08C39.9006 18.04 40.0539 18.0133 40.1873 18C40.3473 17.9867 40.4806 18.04 40.5873 18.16C40.6939 18.2667 40.7473 18.4933 40.7473 18.84C40.7473 19.1067 40.7006 19.3467 40.6073 19.56C40.5273 19.76 40.3739 19.9 40.1473 19.98C39.9739 20.0333 39.7473 20.08 39.4673 20.12C39.1873 20.1733 38.9406 20.2 38.7273 20.2ZM46.2854 20.2C45.2721 20.2 44.3921 19.9933 43.6454 19.58C42.8987 19.1667 42.3187 18.58 41.9054 17.82C41.4921 17.0467 41.2854 16.14 41.2854 15.1C41.2854 14.3133 41.3987 13.6133 41.6254 13C41.8654 12.3733 42.2054 11.84 42.6454 11.4C43.0854 10.9467 43.6121 10.6067 44.2254 10.38C44.8387 10.14 45.5254 10.02 46.2854 10.02C47.2987 10.02 48.1787 10.2267 48.9254 10.64C49.6721 11.0533 50.2521 11.64 50.6654 12.4C51.0787 13.16 51.2854 14.06 51.2854 15.1C51.2854 15.8867 51.1654 16.5933 50.9254 17.22C50.6987 17.8467 50.3654 18.3867 49.9254 18.84C49.4854 19.28 48.9587 19.62 48.3454 19.86C47.7321 20.0867 47.0454 20.2 46.2854 20.2ZM46.2854 18.3C46.7787 18.3 47.2121 18.18 47.5854 17.94C47.9587 17.7 48.2454 17.3467 48.4454 16.88C48.6587 16.4 48.7654 15.8067 48.7654 15.1C48.7654 14.0333 48.5387 13.24 48.0854 12.72C47.6321 12.1867 47.0321 11.92 46.2854 11.92C45.7921 11.92 45.3587 12.04 44.9854 12.28C44.6121 12.5067 44.3187 12.86 44.1054 13.34C43.9054 13.8067 43.8054 14.3933 43.8054 15.1C43.8054 16.1533 44.0321 16.9533 44.4854 17.5C44.9387 18.0333 45.5387 18.3 46.2854 18.3ZM54.5888 20.16C54.1888 20.16 53.8822 20.0533 53.6688 19.84C53.4555 19.6133 53.3488 19.2933 53.3488 18.88V11.32C53.3488 10.9067 53.4555 10.5933 53.6688 10.38C53.8822 10.1667 54.1822 10.06 54.5688 10.06C54.9555 10.06 55.2555 10.1667 55.4688 10.38C55.6822 10.5933 55.7888 10.9067 55.7888 11.32V12.68L55.5688 12.18C55.8622 11.4733 56.3155 10.94 56.9288 10.58C57.5555 10.2067 58.2622 10.02 59.0488 10.02C59.8355 10.02 60.4822 10.1667 60.9888 10.46C61.4955 10.7533 61.8755 11.2 62.1288 11.8C62.3822 12.3867 62.5088 13.1333 62.5088 14.04V18.88C62.5088 19.2933 62.4022 19.6133 62.1888 19.84C61.9755 20.0533 61.6688 20.16 61.2688 20.16C60.8688 20.16 60.5555 20.0533 60.3288 19.84C60.1155 19.6133 60.0088 19.2933 60.0088 18.88V14.16C60.0088 13.4 59.8622 12.8467 59.5688 12.5C59.2888 12.1533 58.8488 11.98 58.2488 11.98C57.5155 11.98 56.9288 12.2133 56.4888 12.68C56.0622 13.1333 55.8488 13.74 55.8488 14.5V18.88C55.8488 19.7333 55.4288 20.16 54.5888 20.16ZM68.628 20.2C68.0547 20.2 67.448 20.14 66.808 20.02C66.168 19.9 65.5947 19.6933 65.088 19.4C64.8747 19.2667 64.7214 19.1133 64.628 18.94C64.548 18.7533 64.5147 18.5733 64.528 18.4C64.5547 18.2133 64.6214 18.0533 64.728 17.92C64.848 17.7867 64.9947 17.7 65.168 17.66C65.3547 17.62 65.5547 17.6533 65.768 17.76C66.3014 18.0133 66.8014 18.1933 67.268 18.3C67.7347 18.3933 68.1947 18.44 68.648 18.44C69.288 18.44 69.7614 18.3333 70.068 18.12C70.388 17.8933 70.548 17.6 70.548 17.24C70.548 16.9333 70.4414 16.7 70.228 16.54C70.028 16.3667 69.7214 16.24 69.308 16.16L67.308 15.78C66.4814 15.62 65.848 15.32 65.408 14.88C64.9814 14.4267 64.768 13.8467 64.768 13.14C64.768 12.5 64.9414 11.9467 65.288 11.48C65.648 11.0133 66.1414 10.6533 66.768 10.4C67.3947 10.1467 68.1147 10.02 68.928 10.02C69.5147 10.02 70.0614 10.0867 70.568 10.22C71.088 10.34 71.588 10.5333 72.068 10.8C72.268 10.9067 72.4014 11.0467 72.468 11.22C72.548 11.3933 72.568 11.5733 72.528 11.76C72.488 11.9333 72.408 12.0933 72.288 12.24C72.168 12.3733 72.0147 12.46 71.828 12.5C71.6547 12.5267 71.4547 12.4867 71.228 12.38C70.8147 12.1667 70.4147 12.0133 70.028 11.92C69.6547 11.8267 69.2947 11.78 68.948 11.78C68.2947 11.78 67.808 11.8933 67.488 12.12C67.1814 12.3467 67.028 12.6467 67.028 13.02C67.028 13.3 67.1214 13.5333 67.308 13.72C67.4947 13.9067 67.7814 14.0333 68.168 14.1L70.168 14.48C71.0347 14.64 71.688 14.9333 72.128 15.36C72.5814 15.7867 72.808 16.36 72.808 17.08C72.808 18.0533 72.428 18.82 71.668 19.38C70.908 19.9267 69.8947 20.2 68.628 20.2Z" fill="black"/>
<path d="M15.0338 136.2C13.6738 136.2 12.4805 135.9 11.4538 135.3C10.4405 134.7 9.65383 133.86 9.09383 132.78C8.53383 131.687 8.25383 130.407 8.25383 128.94C8.25383 127.833 8.41383 126.84 8.73383 125.96C9.05383 125.067 9.50716 124.307 10.0938 123.68C10.6938 123.04 11.4072 122.553 12.2338 122.22C13.0738 121.873 14.0072 121.7 15.0338 121.7C16.4072 121.7 17.6005 122 18.6138 122.6C19.6272 123.187 20.4138 124.02 20.9738 125.1C21.5338 126.18 21.8138 127.453 21.8138 128.92C21.8138 130.027 21.6538 131.027 21.3338 131.92C21.0138 132.813 20.5538 133.58 19.9538 134.22C19.3672 134.86 18.6538 135.353 17.8138 135.7C16.9872 136.033 16.0605 136.2 15.0338 136.2ZM15.0338 134C15.9005 134 16.6338 133.8 17.2338 133.4C17.8472 133 18.3138 132.42 18.6338 131.66C18.9672 130.9 19.1338 129.993 19.1338 128.94C19.1338 127.34 18.7738 126.1 18.0538 125.22C17.3472 124.34 16.3405 123.9 15.0338 123.9C14.1805 123.9 13.4472 124.1 12.8338 124.5C12.2205 124.887 11.7472 125.46 11.4138 126.22C11.0938 126.967 10.9338 127.873 10.9338 128.94C10.9338 130.527 11.2938 131.767 12.0138 132.66C12.7338 133.553 13.7405 134 15.0338 134ZM25.417 136.16C25.017 136.16 24.7103 136.053 24.497 135.84C24.2836 135.613 24.177 135.293 24.177 134.88V127.32C24.177 126.907 24.2836 126.593 24.497 126.38C24.7103 126.167 25.0103 126.06 25.397 126.06C25.7836 126.06 26.0836 126.167 26.297 126.38C26.5103 126.593 26.617 126.907 26.617 127.32V128.68L26.397 128.18C26.6903 127.473 27.1436 126.94 27.757 126.58C28.3836 126.207 29.0903 126.02 29.877 126.02C30.6636 126.02 31.3103 126.167 31.817 126.46C32.3236 126.753 32.7036 127.2 32.957 127.8C33.2103 128.387 33.337 129.133 33.337 130.04V134.88C33.337 135.293 33.2303 135.613 33.017 135.84C32.8036 136.053 32.497 136.16 32.097 136.16C31.697 136.16 31.3836 136.053 31.157 135.84C30.9436 135.613 30.837 135.293 30.837 134.88V130.16C30.837 129.4 30.6903 128.847 30.397 128.5C30.117 128.153 29.677 127.98 29.077 127.98C28.3436 127.98 27.757 128.213 27.317 128.68C26.8903 129.133 26.677 129.74 26.677 130.5V134.88C26.677 135.733 26.257 136.16 25.417 136.16ZM42.8259 136.16C42.4125 136.16 42.0925 136.047 41.8659 135.82C41.6525 135.58 41.5459 135.253 41.5459 134.84V123.06C41.5459 122.633 41.6525 122.307 41.8659 122.08C42.0925 121.853 42.4125 121.74 42.8259 121.74C43.2392 121.74 43.5525 121.853 43.7659 122.08C43.9925 122.307 44.1059 122.633 44.1059 123.06V127.78H51.3659V123.06C51.3659 122.633 51.4725 122.307 51.6859 122.08C51.9125 121.853 52.2325 121.74 52.6459 121.74C53.0592 121.74 53.3725 121.853 53.5859 122.08C53.8125 122.307 53.9259 122.633 53.9259 123.06V134.84C53.9259 135.253 53.8125 135.58 53.5859 135.82C53.3725 136.047 53.0592 136.16 52.6459 136.16C52.2325 136.16 51.9125 136.047 51.6859 135.82C51.4725 135.58 51.3659 135.253 51.3659 134.84V129.92H44.1059V134.84C44.1059 135.253 43.9992 135.58 43.7859 135.82C43.5725 136.047 43.2525 136.16 42.8259 136.16ZM61.2346 136.2C60.2213 136.2 59.3413 135.993 58.5946 135.58C57.8479 135.167 57.2679 134.58 56.8546 133.82C56.4413 133.047 56.2346 132.14 56.2346 131.1C56.2346 130.313 56.3479 129.613 56.5746 129C56.8146 128.373 57.1546 127.84 57.5946 127.4C58.0346 126.947 58.5613 126.607 59.1746 126.38C59.7879 126.14 60.4746 126.02 61.2346 126.02C62.2479 126.02 63.1279 126.227 63.8746 126.64C64.6213 127.053 65.2013 127.64 65.6146 128.4C66.0279 129.16 66.2346 130.06 66.2346 131.1C66.2346 131.887 66.1146 132.593 65.8746 133.22C65.6479 133.847 65.3146 134.387 64.8746 134.84C64.4346 135.28 63.9079 135.62 63.2946 135.86C62.6813 136.087 61.9946 136.2 61.2346 136.2ZM61.2346 134.3C61.7279 134.3 62.1613 134.18 62.5346 133.94C62.9079 133.7 63.1946 133.347 63.3946 132.88C63.6079 132.4 63.7146 131.807 63.7146 131.1C63.7146 130.033 63.4879 129.24 63.0346 128.72C62.5813 128.187 61.9813 127.92 61.2346 127.92C60.7413 127.92 60.3079 128.04 59.9346 128.28C59.5613 128.507 59.2679 128.86 59.0546 129.34C58.8546 129.807 58.7546 130.393 58.7546 131.1C58.7546 132.153 58.9813 132.953 59.4346 133.5C59.8879 134.033 60.4879 134.3 61.2346 134.3ZM72.0627 136.16C71.7294 136.16 71.4361 136.073 71.1827 135.9C70.9427 135.727 70.7427 135.46 70.5827 135.1L67.4027 127.72C67.2827 127.427 67.2361 127.153 67.2627 126.9C67.3027 126.647 67.4227 126.447 67.6227 126.3C67.8361 126.14 68.1227 126.06 68.4827 126.06C68.7894 126.06 69.0361 126.133 69.2227 126.28C69.4094 126.413 69.5761 126.673 69.7227 127.06L72.4227 133.8H71.8227L74.6027 127.04C74.7494 126.667 74.9161 126.413 75.1027 126.28C75.3027 126.133 75.5694 126.06 75.9027 126.06C76.1961 126.06 76.4294 126.14 76.6027 126.3C76.7761 126.447 76.8827 126.647 76.9227 126.9C76.9627 127.14 76.9161 127.407 76.7827 127.7L73.5427 135.1C73.3961 135.46 73.1961 135.727 72.9427 135.9C72.7027 136.073 72.4094 136.16 72.0627 136.16ZM83.2743 136.2C82.1676 136.2 81.2143 135.993 80.4143 135.58C79.6143 135.167 78.9943 134.58 78.5543 133.82C78.1276 133.06 77.9143 132.16 77.9143 131.12C77.9143 130.107 78.121 129.22 78.5343 128.46C78.961 127.7 79.541 127.107 80.2743 126.68C81.021 126.24 81.8676 126.02 82.8143 126.02C83.5076 126.02 84.1276 126.133 84.6743 126.36C85.2343 126.587 85.7076 126.913 86.0943 127.34C86.4943 127.767 86.7943 128.287 86.9943 128.9C87.2076 129.5 87.3143 130.18 87.3143 130.94C87.3143 131.18 87.2276 131.367 87.0543 131.5C86.8943 131.62 86.661 131.68 86.3543 131.68H79.9343V130.24H85.5543L85.2343 130.54C85.2343 129.927 85.141 129.413 84.9543 129C84.781 128.587 84.521 128.273 84.1743 128.06C83.841 127.833 83.421 127.72 82.9143 127.72C82.3543 127.72 81.8743 127.853 81.4743 128.12C81.0876 128.373 80.7876 128.74 80.5743 129.22C80.3743 129.687 80.2743 130.247 80.2743 130.9V131.04C80.2743 132.133 80.5276 132.953 81.0343 133.5C81.5543 134.033 82.3143 134.3 83.3143 134.3C83.661 134.3 84.0476 134.26 84.4743 134.18C84.9143 134.087 85.3276 133.933 85.7143 133.72C85.9943 133.56 86.241 133.493 86.4543 133.52C86.6676 133.533 86.8343 133.607 86.9543 133.74C87.0876 133.873 87.1676 134.04 87.1943 134.24C87.221 134.427 87.181 134.62 87.0743 134.82C86.981 135.02 86.8143 135.193 86.5743 135.34C86.1076 135.633 85.5676 135.853 84.9543 136C84.3543 136.133 83.7943 136.2 83.2743 136.2ZM90.5741 136.16C90.1608 136.16 89.8408 136.053 89.6141 135.84C89.4008 135.613 89.2941 135.293 89.2941 134.88V127.32C89.2941 126.907 89.4008 126.593 89.6141 126.38C89.8275 126.167 90.1275 126.06 90.5141 126.06C90.9008 126.06 91.2008 126.167 91.4141 126.38C91.6275 126.593 91.7341 126.907 91.7341 127.32V128.58H91.5341C91.7208 127.78 92.0875 127.173 92.6341 126.76C93.1808 126.347 93.9075 126.1 94.8141 126.02C95.0941 125.993 95.3141 126.067 95.4741 126.24C95.6475 126.4 95.7475 126.653 95.7741 127C95.8008 127.333 95.7208 127.607 95.5341 127.82C95.3608 128.02 95.0941 128.14 94.7341 128.18L94.2941 128.22C93.4808 128.3 92.8675 128.553 92.4541 128.98C92.0408 129.393 91.8341 129.98 91.8341 130.74V134.88C91.8341 135.293 91.7275 135.613 91.5141 135.84C91.3008 136.053 90.9875 136.16 90.5741 136.16Z" fill="black"/>
<path d="M16.9948 236.2C15.6348 236.2 14.4414 235.9 13.4148 235.3C12.4014 234.7 11.6148 233.86 11.0548 232.78C10.4948 231.687 10.2148 230.407 10.2148 228.94C10.2148 227.833 10.3748 226.84 10.6948 225.96C11.0148 225.067 11.4681 224.307 12.0548 223.68C12.6548 223.04 13.3681 222.553 14.1948 222.22C15.0348 221.873 15.9681 221.7 16.9948 221.7C18.3681 221.7 19.5614 222 20.5748 222.6C21.5881 223.187 22.3748 224.02 22.9348 225.1C23.4948 226.18 23.7748 227.453 23.7748 228.92C23.7748 230.027 23.6148 231.027 23.2948 231.92C22.9748 232.813 22.5148 233.58 21.9148 234.22C21.3281 234.86 20.6148 235.353 19.7748 235.7C18.9481 236.033 18.0214 236.2 16.9948 236.2ZM16.9948 234C17.8614 234 18.5948 233.8 19.1948 233.4C19.8081 233 20.2748 232.42 20.5948 231.66C20.9281 230.9 21.0948 229.993 21.0948 228.94C21.0948 227.34 20.7348 226.1 20.0148 225.22C19.3081 224.34 18.3014 223.9 16.9948 223.9C16.1414 223.9 15.4081 224.1 14.7948 224.5C14.1814 224.887 13.7081 225.46 13.3748 226.22C13.0548 226.967 12.8948 227.873 12.8948 228.94C12.8948 230.527 13.2548 231.767 13.9748 232.66C14.6948 233.553 15.7014 234 16.9948 234ZM27.3779 236.16C26.9779 236.16 26.6712 236.053 26.4579 235.84C26.2446 235.613 26.1379 235.293 26.1379 234.88V227.32C26.1379 226.907 26.2446 226.593 26.4579 226.38C26.6712 226.167 26.9712 226.06 27.3579 226.06C27.7446 226.06 28.0446 226.167 28.2579 226.38C28.4712 226.593 28.5779 226.907 28.5779 227.32V228.68L28.3579 228.18C28.6512 227.473 29.1046 226.94 29.7179 226.58C30.3446 226.207 31.0512 226.02 31.8379 226.02C32.6246 226.02 33.2712 226.167 33.7779 226.46C34.2846 226.753 34.6646 227.2 34.9179 227.8C35.1712 228.387 35.2979 229.133 35.2979 230.04V234.88C35.2979 235.293 35.1912 235.613 34.9779 235.84C34.7646 236.053 34.4579 236.16 34.0579 236.16C33.6579 236.16 33.3446 236.053 33.1179 235.84C32.9046 235.613 32.7979 235.293 32.7979 234.88V230.16C32.7979 229.4 32.6512 228.847 32.3579 228.5C32.0779 228.153 31.6379 227.98 31.0379 227.98C30.3046 227.98 29.7179 228.213 29.2779 228.68C28.8512 229.133 28.6379 229.74 28.6379 230.5V234.88C28.6379 235.733 28.2179 236.16 27.3779 236.16ZM44.7868 236.16C44.3735 236.16 44.0535 236.047 43.8268 235.82C43.6135 235.58 43.5068 235.253 43.5068 234.84V223.2C43.5068 222.773 43.6201 222.453 43.8468 222.24C44.0735 222.013 44.3935 221.9 44.8068 221.9H49.6268C51.1735 221.9 52.3668 222.287 53.2068 223.06C54.0468 223.833 54.4668 224.913 54.4668 226.3C54.4668 227.687 54.0468 228.773 53.2068 229.56C52.3668 230.333 51.1735 230.72 49.6268 230.72H46.0668V234.84C46.0668 235.253 45.9601 235.58 45.7468 235.82C45.5335 236.047 45.2135 236.16 44.7868 236.16ZM46.0668 228.7H49.2268C50.1335 228.7 50.8201 228.5 51.2868 228.1C51.7535 227.687 51.9868 227.087 51.9868 226.3C51.9868 225.513 51.7535 224.92 51.2868 224.52C50.8201 224.12 50.1335 223.92 49.2268 223.92H46.0668V228.7ZM57.3984 236.16C56.985 236.16 56.665 236.053 56.4384 235.84C56.225 235.613 56.1184 235.293 56.1184 234.88V227.32C56.1184 226.907 56.225 226.593 56.4384 226.38C56.6517 226.167 56.9517 226.06 57.3384 226.06C57.725 226.06 58.025 226.167 58.2384 226.38C58.4517 226.593 58.5584 226.907 58.5584 227.32V228.58H58.3584C58.545 227.78 58.9117 227.173 59.4584 226.76C60.005 226.347 60.7317 226.1 61.6384 226.02C61.9184 225.993 62.1384 226.067 62.2984 226.24C62.4717 226.4 62.5717 226.653 62.5984 227C62.625 227.333 62.545 227.607 62.3584 227.82C62.185 228.02 61.9184 228.14 61.5584 228.18L61.1184 228.22C60.305 228.3 59.6917 228.553 59.2784 228.98C58.865 229.393 58.6584 229.98 58.6584 230.74V234.88C58.6584 235.293 58.5517 235.613 58.3384 235.84C58.125 236.053 57.8117 236.16 57.3984 236.16ZM68.6141 236.2C67.5075 236.2 66.5541 235.993 65.7541 235.58C64.9541 235.167 64.3341 234.58 63.8941 233.82C63.4675 233.06 63.2541 232.16 63.2541 231.12C63.2541 230.107 63.4608 229.22 63.8741 228.46C64.3008 227.7 64.8808 227.107 65.6141 226.68C66.3608 226.24 67.2075 226.02 68.1541 226.02C68.8475 226.02 69.4675 226.133 70.0141 226.36C70.5741 226.587 71.0475 226.913 71.4341 227.34C71.8341 227.767 72.1341 228.287 72.3341 228.9C72.5475 229.5 72.6541 230.18 72.6541 230.94C72.6541 231.18 72.5675 231.367 72.3941 231.5C72.2341 231.62 72.0008 231.68 71.6941 231.68H65.2741V230.24H70.8941L70.5741 230.54C70.5741 229.927 70.4808 229.413 70.2941 229C70.1208 228.587 69.8608 228.273 69.5141 228.06C69.1808 227.833 68.7608 227.72 68.2541 227.72C67.6941 227.72 67.2141 227.853 66.8141 228.12C66.4275 228.373 66.1275 228.74 65.9141 229.22C65.7141 229.687 65.6141 230.247 65.6141 230.9V231.04C65.6141 232.133 65.8675 232.953 66.3741 233.5C66.8941 234.033 67.6541 234.3 68.6541 234.3C69.0008 234.3 69.3875 234.26 69.8141 234.18C70.2541 234.087 70.6675 233.933 71.0541 233.72C71.3341 233.56 71.5808 233.493 71.7941 233.52C72.0075 233.533 72.1741 233.607 72.2941 233.74C72.4275 233.873 72.5075 234.04 72.5341 234.24C72.5608 234.427 72.5208 234.62 72.4141 234.82C72.3208 235.02 72.1541 235.193 71.9141 235.34C71.4475 235.633 70.9075 235.853 70.2941 236C69.6941 236.133 69.1341 236.2 68.6141 236.2ZM78.214 236.2C77.6407 236.2 77.034 236.14 76.394 236.02C75.754 235.9 75.1807 235.693 74.674 235.4C74.4607 235.267 74.3073 235.113 74.214 234.94C74.134 234.753 74.1007 234.573 74.114 234.4C74.1407 234.213 74.2073 234.053 74.314 233.92C74.434 233.787 74.5807 233.7 74.754 233.66C74.9407 233.62 75.1407 233.653 75.354 233.76C75.8873 234.013 76.3873 234.193 76.854 234.3C77.3207 234.393 77.7807 234.44 78.234 234.44C78.874 234.44 79.3473 234.333 79.654 234.12C79.974 233.893 80.134 233.6 80.134 233.24C80.134 232.933 80.0273 232.7 79.814 232.54C79.614 232.367 79.3073 232.24 78.894 232.16L76.894 231.78C76.0673 231.62 75.434 231.32 74.994 230.88C74.5673 230.427 74.354 229.847 74.354 229.14C74.354 228.5 74.5273 227.947 74.874 227.48C75.234 227.013 75.7273 226.653 76.354 226.4C76.9807 226.147 77.7007 226.02 78.514 226.02C79.1007 226.02 79.6473 226.087 80.154 226.22C80.674 226.34 81.174 226.533 81.654 226.8C81.854 226.907 81.9873 227.047 82.054 227.22C82.134 227.393 82.154 227.573 82.114 227.76C82.074 227.933 81.994 228.093 81.874 228.24C81.754 228.373 81.6007 228.46 81.414 228.5C81.2407 228.527 81.0407 228.487 80.814 228.38C80.4007 228.167 80.0007 228.013 79.614 227.92C79.2407 227.827 78.8807 227.78 78.534 227.78C77.8807 227.78 77.394 227.893 77.074 228.12C76.7673 228.347 76.614 228.647 76.614 229.02C76.614 229.3 76.7073 229.533 76.894 229.72C77.0807 229.907 77.3673 230.033 77.754 230.1L79.754 230.48C80.6207 230.64 81.274 230.933 81.714 231.36C82.1673 231.787 82.394 232.36 82.394 233.08C82.394 234.053 82.014 234.82 81.254 235.38C80.494 235.927 79.4807 236.2 78.214 236.2ZM87.9796 236.2C87.4063 236.2 86.7996 236.14 86.1596 236.02C85.5196 235.9 84.9463 235.693 84.4396 235.4C84.2263 235.267 84.0729 235.113 83.9796 234.94C83.8996 234.753 83.8663 234.573 83.8796 234.4C83.9063 234.213 83.9729 234.053 84.0796 233.92C84.1996 233.787 84.3463 233.7 84.5196 233.66C84.7063 233.62 84.9063 233.653 85.1196 233.76C85.6529 234.013 86.1529 234.193 86.6196 234.3C87.0863 234.393 87.5463 234.44 87.9996 234.44C88.6396 234.44 89.1129 234.333 89.4196 234.12C89.7396 233.893 89.8996 233.6 89.8996 233.24C89.8996 232.933 89.7929 232.7 89.5796 232.54C89.3796 232.367 89.0729 232.24 88.6596 232.16L86.6596 231.78C85.8329 231.62 85.1996 231.32 84.7596 230.88C84.3329 230.427 84.1196 229.847 84.1196 229.14C84.1196 228.5 84.2929 227.947 84.6396 227.48C84.9996 227.013 85.4929 226.653 86.1196 226.4C86.7463 226.147 87.4663 226.02 88.2796 226.02C88.8663 226.02 89.4129 226.087 89.9196 226.22C90.4396 226.34 90.9396 226.533 91.4196 226.8C91.6196 226.907 91.7529 227.047 91.8196 227.22C91.8996 227.393 91.9196 227.573 91.8796 227.76C91.8396 227.933 91.7596 228.093 91.6396 228.24C91.5196 228.373 91.3663 228.46 91.1796 228.5C91.0063 228.527 90.8063 228.487 90.5796 228.38C90.1663 228.167 89.7663 228.013 89.3796 227.92C89.0063 227.827 88.6463 227.78 88.2996 227.78C87.6463 227.78 87.1596 227.893 86.8396 228.12C86.5329 228.347 86.3796 228.647 86.3796 229.02C86.3796 229.3 86.4729 229.533 86.6596 229.72C86.8463 229.907 87.1329 230.033 87.5196 230.1L89.5196 230.48C90.3863 230.64 91.0396 230.933 91.4796 231.36C91.9329 231.787 92.1596 232.36 92.1596 233.08C92.1596 234.053 91.7796 234.82 91.0196 235.38C90.2596 235.927 89.2463 236.2 87.9796 236.2Z" fill="black"/>
</svg>
