<svg width="308" height="95" viewBox="0 0 308 95" fill="none" xmlns="http://www.w3.org/2000/svg">
<g clip-path="url(#clip0_815_5620)">
<path d="M54.41 73.39C54.41 66.16 51.66 59.73 47.38 55.52C43.1 59.72 40.35 66.16 40.35 73.39C40.35 80.62 43.1 87.05 47.38 91.26C51.66 87.06 54.41 80.62 54.41 73.39Z" stroke="#FAE033" stroke-width="5" stroke-miterlimit="10"/>
<path d="M37.78 72.56C42.03 66.71 43.59 59.89 42.59 53.97C36.65 54.85 30.65 58.44 26.4 64.29C22.15 70.14 20.59 76.96 21.59 82.88C27.53 82 33.53 78.41 37.78 72.56Z" stroke="#FAE033" stroke-width="5" stroke-miterlimit="10"/>
<path d="M24.82 62.11C31.69 59.88 36.97 55.27 39.64 49.9C34.32 47.12 27.35 46.5 20.47 48.73C13.59 50.96 8.32002 55.57 5.65002 60.94C10.97 63.72 17.94 64.34 24.82 62.11Z" stroke="#FAE033" stroke-width="5" stroke-miterlimit="10"/>
<path d="M20.47 46.03C27.34 48.26 34.32 47.64 39.64 44.86C36.97 39.49 31.69 34.88 24.82 32.65C17.95 30.42 10.97 31.04 5.65002 33.82C8.32002 39.19 13.6 43.8 20.47 46.03Z" stroke="#FAE033" stroke-width="5" stroke-miterlimit="10"/>
<path d="M26.4 30.47C30.65 36.32 36.66 39.91 42.59 40.79C43.59 34.87 42.03 28.05 37.78 22.2C33.53 16.35 27.52 12.76 21.59 11.88C20.59 17.8 22.15 24.62 26.4 30.47Z" stroke="#FAE033" stroke-width="5" stroke-miterlimit="10"/>
<path d="M40.35 21.37C40.35 28.6 43.1 35.03 47.38 39.24C51.66 35.04 54.41 28.6 54.41 21.37C54.41 14.14 51.66 7.71 47.38 3.5C43.1 7.7 40.35 14.14 40.35 21.37Z" stroke="#FAE033" stroke-width="5" stroke-miterlimit="10"/>
<path d="M56.98 22.2C52.73 28.05 51.17 34.87 52.17 40.79C58.11 39.91 64.11 36.32 68.36 30.47C72.61 24.62 74.17 17.8 73.17 11.88C67.23 12.76 61.23 16.35 56.98 22.2Z" stroke="#FAE033" stroke-width="5" stroke-miterlimit="10"/>
<path d="M69.94 32.65C63.07 34.88 57.79 39.49 55.12 44.86C60.44 47.64 67.41 48.26 74.29 46.03C81.17 43.8 86.44 39.19 89.11 33.82C83.79 31.04 76.82 30.42 69.94 32.65Z" stroke="#FAE033" stroke-width="5" stroke-miterlimit="10"/>
<path d="M74.29 48.73C67.42 46.5 60.44 47.12 55.12 49.9C57.79 55.27 63.07 59.88 69.94 62.11C76.81 64.34 83.79 63.72 89.11 60.94C86.44 55.57 81.16 50.96 74.29 48.73Z" stroke="#FAE033" stroke-width="5" stroke-miterlimit="10"/>
<path d="M68.36 64.29C64.11 58.44 58.1 54.85 52.17 53.97C51.17 59.89 52.73 66.71 56.98 72.56C61.23 78.41 67.24 82 73.17 82.88C74.17 76.96 72.61 70.14 68.36 64.29Z" stroke="#FAE033" stroke-width="5" stroke-miterlimit="10"/>
<path d="M33.27 85.84C32.85 87.16 33.08 88.53 33.79 89.6C34.99 89.14 35.98 88.17 36.41 86.85C36.84 85.53 36.6 84.16 35.89 83.09C34.69 83.55 33.7 84.52 33.27 85.84Z" fill="#FAE033"/>
<path d="M13.3501 70.2C12.2301 71.02 11.6201 72.26 11.5601 73.55C12.8001 73.89 14.1801 73.68 15.2901 72.87C16.4001 72.06 17.0201 70.81 17.0801 69.52C15.8401 69.18 14.4601 69.39 13.3501 70.2Z" fill="#FAE033"/>
<path d="M6.44003 45.84C5.06003 45.84 3.83003 46.49 3.03003 47.5C3.84003 48.5 5.07003 49.14 6.45003 49.14C7.83003 49.14 9.06003 48.49 9.86003 47.48C9.05003 46.48 7.82003 45.84 6.44003 45.84Z" fill="#FAE033"/>
<path d="M15.16 22.07C14.04 21.26 12.66 21.06 11.42 21.41C11.48 22.7 12.1 23.94 13.22 24.75C14.34 25.56 15.72 25.76 16.96 25.41C16.9 24.12 16.28 22.88 15.16 22.07Z" fill="#FAE033"/>
<path d="M36.19 7.97001C35.76 6.66001 34.76 5.69001 33.56 5.24001C32.86 6.32001 32.63 7.69001 33.06 9.00001C33.49 10.31 34.49 11.28 35.69 11.73C36.39 10.65 36.62 9.28001 36.19 7.97001Z" fill="#FAE033"/>
<path d="M61.49 8.92C61.91 7.6 61.68 6.23 60.97 5.16C59.77 5.62 58.78 6.59 58.35 7.91C57.92 9.23 58.16 10.6 58.87 11.67C60.07 11.21 61.06 10.24 61.49 8.92Z" fill="#FAE033"/>
<path d="M81.4 24.56C82.52 23.74 83.13 22.5 83.19 21.21C81.95 20.87 80.57 21.08 79.46 21.89C78.35 22.7 77.73 23.95 77.67 25.24C78.91 25.58 80.29 25.37 81.4 24.56Z" fill="#FAE033"/>
<path d="M88.32 48.92C89.7 48.92 90.93 48.27 91.73 47.26C90.92 46.26 89.69 45.62 88.31 45.62C86.93 45.62 85.7 46.27 84.9 47.28C85.71 48.28 86.94 48.92 88.32 48.92Z" fill="#FAE033"/>
<path d="M79.6 72.69C80.72 73.5 82.1 73.7 83.34 73.35C83.28 72.06 82.66 70.82 81.54 70.01C80.42 69.2 79.04 69 77.8 69.35C77.86 70.64 78.48 71.88 79.6 72.69Z" fill="#FAE033"/>
<path d="M58.57 86.79C59 88.1 60 89.07 61.2 89.52C61.9 88.44 62.13 87.07 61.7 85.76C61.27 84.45 60.27 83.48 59.07 83.03C58.37 84.11 58.14 85.48 58.57 86.79Z" fill="#FAE033"/>
<path d="M122.32 36.34C120.25 36.34 118.64 37.12 117.5 38.68C116.36 40.24 115.79 42.41 115.79 45.19C115.79 50.98 117.96 53.88 122.31 53.88C124.13 53.88 126.34 53.42 128.94 52.51V57.13C126.81 58.02 124.43 58.46 121.8 58.46C118.02 58.46 115.13 57.31 113.13 55.02C111.13 52.73 110.13 49.44 110.13 45.15C110.13 42.45 110.62 40.08 111.61 38.05C112.6 36.02 114.01 34.46 115.85 33.38C117.69 32.3 119.85 31.75 122.33 31.75C124.81 31.75 127.39 32.36 129.94 33.58L128.16 38.06C127.19 37.6 126.21 37.2 125.23 36.85C124.25 36.5 123.28 36.33 122.33 36.33L122.32 36.34Z" fill="black"/>
<path d="M146.66 58.11L145.61 55.41H145.47C144.56 56.56 143.62 57.36 142.65 57.8C141.68 58.24 140.43 58.47 138.87 58.47C136.96 58.47 135.46 57.93 134.37 56.84C133.28 55.75 132.73 54.2 132.73 52.18C132.73 50.16 133.47 48.52 134.94 47.52C136.41 46.52 138.64 45.97 141.61 45.86L145.06 45.75V44.88C145.06 42.87 144.03 41.86 141.97 41.86C140.38 41.86 138.52 42.34 136.37 43.3L134.58 39.64C136.87 38.44 139.4 37.85 142.19 37.85C144.98 37.85 146.9 38.43 148.32 39.59C149.74 40.75 150.45 42.52 150.45 44.89V58.13H146.66V58.11ZM145.06 48.91L142.96 48.98C141.38 49.03 140.21 49.31 139.44 49.83C138.67 50.35 138.28 51.15 138.28 52.21C138.28 53.74 139.16 54.5 140.91 54.5C142.17 54.5 143.17 54.14 143.92 53.42C144.67 52.7 145.05 51.74 145.05 50.54V48.91H145.06Z" fill="black"/>
<path d="M161.45 58.11H156.03V30.46H161.45V58.11Z" fill="black"/>
<path d="M184.93 58.11H179.51V46.51C179.51 45.08 179.27 44 178.79 43.28C178.31 42.56 177.55 42.2 176.52 42.2C175.13 42.2 174.13 42.71 173.5 43.73C172.87 44.75 172.56 46.43 172.56 48.76V58.11H167.14V38.24H171.28L172.01 40.78H172.31C172.84 39.87 173.61 39.15 174.62 38.64C175.63 38.13 176.78 37.87 178.09 37.87C181.06 37.87 183.08 38.84 184.13 40.78H184.61C185.14 39.86 185.93 39.14 186.96 38.63C187.99 38.12 189.17 37.87 190.47 37.87C192.72 37.87 194.42 38.45 195.58 39.6C196.74 40.75 197.31 42.61 197.31 45.15V58.11H191.87V46.51C191.87 45.08 191.63 44 191.15 43.28C190.67 42.56 189.91 42.2 188.88 42.2C187.55 42.2 186.56 42.67 185.9 43.62C185.24 44.57 184.91 46.07 184.91 48.13V58.1L184.93 58.11Z" fill="black"/>
<path d="M226.88 45.09C226.88 48.15 226.34 50.71 225.25 52.78C224.16 54.85 222.58 56.36 220.48 57.32L226.74 64.3H219.68L214.92 58.47H214.51C210.53 58.47 207.47 57.31 205.34 55C203.21 52.69 202.14 49.37 202.14 45.05C202.14 40.73 203.21 37.42 205.35 35.14C207.49 32.86 210.55 31.72 214.55 31.72C218.55 31.72 221.6 32.87 223.71 35.17C225.82 37.47 226.88 40.77 226.88 45.09ZM207.92 45.09C207.92 47.99 208.47 50.18 209.57 51.65C210.67 53.12 212.32 53.85 214.51 53.85C218.91 53.85 221.1 50.93 221.1 45.09C221.1 39.25 218.91 36.31 214.54 36.31C212.35 36.31 210.7 37.05 209.58 38.52C208.46 39.99 207.91 42.18 207.91 45.09H207.92Z" fill="black"/>
<path d="M245.92 58.11L245.19 55.57H244.91C244.33 56.49 243.51 57.21 242.44 57.71C241.37 58.21 240.16 58.47 238.8 58.47C236.47 58.47 234.71 57.85 233.52 56.6C232.33 55.35 231.74 53.55 231.74 51.21V38.25H237.16V49.85C237.16 51.28 237.41 52.36 237.92 53.08C238.43 53.8 239.24 54.16 240.35 54.16C241.87 54.16 242.96 53.65 243.64 52.64C244.32 51.63 244.65 49.95 244.65 47.6V38.25H250.07V58.12H245.91L245.92 58.11Z" fill="black"/>
<path d="M264.75 58.47C261.55 58.47 259.05 57.59 257.25 55.82C255.45 54.05 254.55 51.55 254.55 48.32C254.55 45.09 255.38 42.42 257.05 40.6C258.72 38.78 261.02 37.87 263.95 37.87C266.88 37.87 268.94 38.67 270.51 40.27C272.08 41.87 272.86 44.08 272.86 46.9V49.53H260.05C260.11 51.07 260.57 52.27 261.42 53.14C262.27 54.01 263.47 54.44 265.01 54.44C266.21 54.44 267.34 54.32 268.4 54.07C269.46 53.82 270.58 53.42 271.74 52.88V57.07C270.79 57.54 269.78 57.9 268.7 58.13C267.62 58.36 266.31 58.48 264.75 58.48V58.47ZM263.99 41.73C262.84 41.73 261.94 42.09 261.29 42.82C260.64 43.55 260.27 44.58 260.17 45.92H267.78C267.76 44.58 267.41 43.55 266.73 42.82C266.05 42.09 265.14 41.73 263.99 41.73Z" fill="black"/>
<path d="M291.13 52.21C291.13 54.25 290.42 55.8 289.01 56.87C287.6 57.94 285.48 58.47 282.66 58.47C281.21 58.47 279.98 58.37 278.96 58.18C277.94 57.99 276.99 57.7 276.1 57.32V52.84C277.11 53.31 278.24 53.71 279.5 54.03C280.76 54.35 281.87 54.51 282.83 54.51C284.8 54.51 285.78 53.94 285.78 52.8C285.78 52.37 285.65 52.03 285.39 51.76C285.13 51.49 284.68 51.19 284.04 50.85C283.4 50.51 282.55 50.12 281.48 49.67C279.95 49.03 278.83 48.44 278.11 47.89C277.39 47.34 276.87 46.72 276.55 46.02C276.23 45.32 276.06 44.45 276.06 43.42C276.06 41.65 276.74 40.29 278.11 39.32C279.48 38.35 281.42 37.87 283.93 37.87C286.44 37.87 288.65 38.39 290.91 39.43L289.28 43.34C288.28 42.91 287.35 42.56 286.49 42.29C285.63 42.02 284.74 41.88 283.84 41.88C282.24 41.88 281.44 42.31 281.44 43.18C281.44 43.67 281.7 44.09 282.21 44.44C282.72 44.79 283.85 45.32 285.6 46.02C287.15 46.65 288.29 47.23 289.01 47.78C289.73 48.33 290.27 48.95 290.61 49.66C290.95 50.37 291.13 51.22 291.13 52.2V52.21Z" fill="black"/>
<path d="M303.73 54.15C304.68 54.15 305.82 53.94 307.14 53.53V57.56C305.79 58.16 304.13 58.47 302.16 58.47C299.99 58.47 298.41 57.92 297.42 56.83C296.43 55.74 295.94 54.09 295.94 51.9V42.32H293.35V40.03L296.34 38.22L297.9 34.03H301.37V38.26H306.93V42.33H301.37V51.91C301.37 52.68 301.59 53.25 302.02 53.62C302.45 53.99 303.02 54.17 303.73 54.17V54.15Z" fill="black"/>
</g>
<defs>
<clipPath id="clip0_815_5620">
<rect width="307.14" height="94.76" fill="white"/>
</clipPath>
</defs>
</svg>
