<svg width="430" height="50" viewBox="0 0 430 50" fill="none" xmlns="http://www.w3.org/2000/svg">
<path d="M392.5 45.8333C391.354 45.8333 390.374 45.4257 389.558 44.6104C388.743 43.7951 388.335 42.8138 388.333 41.6666V16.6666C388.333 15.5208 388.742 14.5402 389.558 13.725C390.375 12.9097 391.355 12.5013 392.5 12.5H396.667C396.667 10.2083 397.483 8.24649 399.115 6.61454C400.746 4.9826 402.708 4.16663 405 4.16663C407.292 4.16663 409.253 4.9826 410.885 6.61454C412.517 8.24649 413.333 10.2083 413.333 12.5H417.5C418.646 12.5 419.627 12.9083 420.444 13.725C421.26 14.5416 421.668 15.5222 421.667 16.6666V41.6666C421.667 42.8125 421.259 43.7937 420.444 44.6104C419.628 45.427 418.647 45.8347 417.5 45.8333H392.5ZM400.833 12.5H409.167C409.167 11.3541 408.759 10.3736 407.944 9.55829C407.128 8.74301 406.147 8.33468 405 8.33329C403.854 8.33329 402.874 8.74163 402.058 9.55829C401.243 10.375 400.835 11.3555 400.833 12.5ZM411.25 22.9166C411.84 22.9166 412.335 22.7166 412.735 22.3166C413.135 21.9166 413.335 21.4222 413.333 20.8333V16.6666H409.167V20.8333C409.167 21.4236 409.367 21.9187 409.767 22.3187C410.167 22.7187 410.661 22.918 411.25 22.9166ZM398.75 22.9166C399.34 22.9166 399.835 22.7166 400.235 22.3166C400.635 21.9166 400.835 21.4222 400.833 20.8333V16.6666H396.667V20.8333C396.667 21.4236 396.867 21.9187 397.267 22.3187C397.667 22.7187 398.161 22.918 398.75 22.9166Z" fill="black"/>
<path d="M309 25C309 24.54 308.98 24.1 308.94 23.64L312.66 20.82C313.46 20.22 313.68 19.1 313.18 18.22L309.44 11.76C309.2 11.3364 308.812 11.0163 308.351 10.8612C307.889 10.7062 307.387 10.7271 306.94 10.92L302.64 12.74C301.9 12.22 301.12 11.76 300.3 11.38L299.72 6.76C299.6 5.76 298.74 5 297.74 5H290.28C289.26 5 288.4 5.76 288.28 6.76L287.7 11.38C286.88 11.76 286.1 12.22 285.36 12.74L281.06 10.92C280.14 10.52 279.06 10.88 278.56 11.76L274.82 18.24C274.32 19.12 274.54 20.22 275.34 20.84L279.06 23.66C278.977 24.5581 278.977 25.4619 279.06 26.36L275.34 29.18C274.54 29.78 274.32 30.9 274.82 31.78L278.56 38.24C279.06 39.12 280.14 39.48 281.06 39.08L285.36 37.26C286.1 37.78 286.88 38.24 287.7 38.62L288.28 43.24C288.4 44.24 289.26 45 290.26 45H297.72C298.72 45 299.58 44.24 299.7 43.24L300.28 38.62C301.1 38.24 301.88 37.78 302.62 37.26L306.92 39.08C307.84 39.48 308.92 39.12 309.42 38.24L313.16 31.78C313.66 30.9 313.44 29.8 312.64 29.18L308.92 26.36C308.98 25.9 309 25.46 309 25ZM294.08 32C290.22 32 287.08 28.86 287.08 25C287.08 21.14 290.22 18 294.08 18C297.94 18 301.08 21.14 301.08 25C301.08 28.86 297.94 32 294.08 32Z" fill="black"/>
<path d="M254.86 26.96C254.94 26.32 255 25.68 255 25C255 24.32 254.94 23.68 254.86 23.04L259.08 19.74C259.46 19.44 259.56 18.9 259.32 18.46L255.32 11.54C255.202 11.3336 255.014 11.176 254.791 11.0954C254.567 11.0148 254.322 11.0164 254.1 11.1L249.12 13.1C248.08 12.3 246.96 11.64 245.74 11.14L244.98 5.83997C244.947 5.60465 244.829 5.38949 244.649 5.23484C244.468 5.08019 244.238 4.99668 244 4.99997H236C235.5 4.99997 235.08 5.35997 235.02 5.83997L234.26 11.14C233.04 11.64 231.92 12.32 230.88 13.1L225.9 11.1C225.784 11.0606 225.662 11.0404 225.54 11.04C225.2 11.04 224.86 11.22 224.68 11.54L220.68 18.46C220.42 18.9 220.54 19.44 220.92 19.74L225.14 23.04C225.06 23.68 225 24.34 225 25C225 25.66 225.06 26.32 225.14 26.96L220.92 30.26C220.54 30.56 220.44 31.1 220.68 31.54L224.68 38.46C224.798 38.6663 224.985 38.8239 225.209 38.9046C225.432 38.9852 225.677 38.9836 225.9 38.9L230.88 36.9C231.92 37.7 233.04 38.36 234.26 38.86L235.02 44.16C235.08 44.64 235.5 45 236 45H244C244.5 45 244.92 44.64 244.98 44.16L245.74 38.86C246.96 38.36 248.08 37.68 249.12 36.9L254.1 38.9C254.22 38.94 254.34 38.96 254.46 38.96C254.8 38.96 255.14 38.78 255.32 38.46L259.32 31.54C259.56 31.1 259.46 30.56 259.08 30.26L254.86 26.96ZM250.9 23.54C250.98 24.16 251 24.58 251 25C251 25.42 250.96 25.86 250.9 26.46L250.62 28.72L252.4 30.12L254.56 31.8L253.16 34.22L250.62 33.2L248.54 32.36L246.74 33.72C245.88 34.36 245.06 34.84 244.24 35.18L242.12 36.04L241.8 38.3L241.4 41H238.6L238.22 38.3L237.9 36.04L235.78 35.18C234.92 34.82 234.12 34.36 233.32 33.76L231.5 32.36L229.38 33.22L226.84 34.24L225.44 31.82L227.6 30.14L229.38 28.74L229.1 26.48C229.04 25.86 229 25.4 229 25C229 24.6 229.04 24.14 229.1 23.54L229.38 21.28L227.6 19.88L225.44 18.2L226.84 15.78L229.38 16.8L231.46 17.64L233.26 16.28C234.12 15.64 234.94 15.16 235.76 14.82L237.88 13.96L238.2 11.7L238.6 8.99997H241.38L241.76 11.7L242.08 13.96L244.2 14.82C245.06 15.18 245.86 15.64 246.66 16.24L248.48 17.64L250.6 16.78L253.14 15.76L254.54 18.18L252.4 19.88L250.62 21.28L250.9 23.54ZM240 17C235.58 17 232 20.58 232 25C232 29.42 235.58 33 240 33C244.42 33 248 29.42 248 25C248 20.58 244.42 17 240 17ZM240 29C237.8 29 236 27.2 236 25C236 22.8 237.8 21 240 21C242.2 21 244 22.8 244 25C244 27.2 242.2 29 240 29Z" fill="black"/>
<path fill-rule="evenodd" clip-rule="evenodd" d="M178 15C178 12.8783 178.843 10.8434 180.343 9.34315C181.843 7.84285 183.878 7 186 7C188.122 7 190.157 7.84285 191.657 9.34315C193.157 10.8434 194 12.8783 194 15C194 17.1217 193.157 19.1566 191.657 20.6569C190.157 22.1571 188.122 23 186 23C183.878 23 181.843 22.1571 180.343 20.6569C178.843 19.1566 178 17.1217 178 15ZM178 27C175.348 27 172.804 28.0536 170.929 29.9289C169.054 31.8043 168 34.3478 168 37C168 38.5913 168.632 40.1174 169.757 41.2426C170.883 42.3679 172.409 43 174 43H198C199.591 43 201.117 42.3679 202.243 41.2426C203.368 40.1174 204 38.5913 204 37C204 34.3478 202.946 31.8043 201.071 29.9289C199.196 28.0536 196.652 27 194 27H178Z" fill="black"/>
<path d="M116 37C116 34.8783 116.843 32.8434 118.343 31.3431C119.843 29.8429 121.878 29 124 29H140C142.122 29 144.157 29.8429 145.657 31.3431C147.157 32.8434 148 34.8783 148 37C148 38.0609 147.579 39.0783 146.828 39.8284C146.078 40.5786 145.061 41 144 41H120C118.939 41 117.922 40.5786 117.172 39.8284C116.421 39.0783 116 38.0609 116 37Z" stroke="black" stroke-width="2.5" stroke-linejoin="round"/>
<path d="M132 21C135.314 21 138 18.3137 138 15C138 11.6863 135.314 9 132 9C128.686 9 126 11.6863 126 15C126 18.3137 128.686 21 132 21Z" stroke="black" stroke-width="2.5"/>
<mask id="mask0_770_5960" style="mask-type:alpha" maskUnits="userSpaceOnUse" x="54" y="1" width="48" height="48">
<rect x="54" y="1" width="48" height="48" fill="#D9D9D9"/>
</mask>
<g mask="url(#mask0_770_5960)">
<path d="M62 43V19L78 7L94 19V43H82V29H74V43H62Z" fill="black"/>
</g>
<mask id="mask1_770_5960" style="mask-type:alpha" maskUnits="userSpaceOnUse" x="0" y="1" width="48" height="48">
<rect y="1" width="48" height="48" fill="#D9D9D9"/>
</mask>
<g mask="url(#mask1_770_5960)">
<path d="M12 39H18V27H30V39H36V21L24 12L12 21V39ZM8 43V19L24 7L40 19V43H26V31H22V43H8Z" fill="black"/>
</g>
<path d="M336.5 45.8333C335.354 45.8333 334.374 45.4257 333.558 44.6104C332.743 43.7951 332.335 42.8138 332.333 41.6666V16.6666C332.333 15.5208 332.742 14.5402 333.558 13.725C334.375 12.9097 335.355 12.5013 336.5 12.5H340.667C340.667 10.2083 341.483 8.24649 343.115 6.61454C344.746 4.9826 346.708 4.16663 349 4.16663C351.292 4.16663 353.253 4.9826 354.885 6.61454C356.517 8.24649 357.333 10.2083 357.333 12.5H361.5C362.646 12.5 363.627 12.9083 364.444 13.725C365.26 14.5416 365.668 15.5222 365.667 16.6666V41.6666C365.667 42.8125 365.259 43.7937 364.444 44.6104C363.628 45.427 362.647 45.8347 361.5 45.8333H336.5ZM336.5 41.6666H361.5V16.6666H357.333V20.8333C357.333 21.4236 357.133 21.9187 356.733 22.3187C356.333 22.7187 355.839 22.918 355.25 22.9166C354.66 22.9166 354.165 22.7166 353.767 22.3166C353.368 21.9166 353.168 21.4222 353.167 20.8333V16.6666H344.833V20.8333C344.833 21.4236 344.633 21.9187 344.233 22.3187C343.833 22.7187 343.339 22.918 342.75 22.9166C342.16 22.9166 341.665 22.7166 341.267 22.3166C340.868 21.9166 340.668 21.4222 340.667 20.8333V16.6666H336.5V41.6666ZM344.833 12.5H353.167C353.167 11.3541 352.759 10.3736 351.944 9.55829C351.128 8.74301 350.147 8.33468 349 8.33329C347.854 8.33329 346.874 8.74163 346.058 9.55829C345.243 10.375 344.835 11.3555 344.833 12.5Z" fill="black"/>
</svg>
