<svg width="648" height="214" viewBox="0 0 648 214" fill="none" xmlns="http://www.w3.org/2000/svg">
<g clip-path="url(#clip0_834_8873)">
<path d="M136.01 128.92L143.74 136.94C135.23 130.92 122.43 135.31 122.43 135.31M69.8 160.22C77.41 163.99 88.62 159.65 97.55 154.7C104.42 150.88 110.67 146.07 116.35 140.63C132.12 125.53 137.19 130.2 137.19 130.2C105.28 94.1 66.18 160.15 69.81 160.22H69.8Z" fill="#49962E"/>
<path d="M136.01 128.92L143.74 136.94C135.23 130.92 122.43 135.31 122.43 135.31M69.8 160.22C77.41 163.99 88.62 159.65 97.55 154.7C104.42 150.88 110.67 146.07 116.35 140.63C132.12 125.53 137.19 130.2 137.19 130.2C105.28 94.1 66.18 160.15 69.81 160.22H69.8Z" stroke="black" stroke-width="1.79" stroke-miterlimit="10"/>
<path d="M21.96 135.31C21.96 135.31 9.16002 130.91 0.650024 136.94L8.38002 128.92M7.21002 130.19C7.21002 130.19 12.28 125.52 28.05 140.62C33.72 146.06 39.98 150.87 46.85 154.69C55.77 159.65 66.99 163.98 74.6 160.21C78.23 160.13 39.13 94.0901 7.22002 130.19H7.21002Z" fill="#49962E"/>
<path d="M21.96 135.31C21.96 135.31 9.16002 130.91 0.650024 136.94L8.38002 128.92M7.21002 130.19C7.21002 130.19 12.28 125.52 28.05 140.62C33.72 146.06 39.98 150.87 46.85 154.69C55.77 159.65 66.99 163.98 74.6 160.21C78.23 160.13 39.13 94.0901 7.22002 130.19H7.21002Z" stroke="black" stroke-width="1.79" stroke-miterlimit="10"/>
<path d="M76.1 84.5901H69.45V187.37H76.1V84.5901Z" fill="#49962E"/>
<path d="M76.96 188.22H68.6V83.73H76.96V188.22ZM70.31 186.51H75.25V85.45H70.31V186.51Z" fill="black"/>
<path d="M85.7402 101.46C86.1002 91.4099 81.6002 82.2799 74.3002 76.1699C66.5802 81.7499 61.4402 90.5299 61.0802 100.58C60.7202 110.63 65.2202 119.76 72.5202 125.87C80.2402 120.29 85.3802 111.51 85.7402 101.46Z" fill="#FAE033"/>
<path d="M72.4701 127.38L71.7601 126.78C63.8601 120.16 59.5401 110.6 59.9001 100.53C60.2601 90.4699 65.2601 81.2299 73.6101 75.1999L74.3601 74.6599L75.0701 75.2599C82.9701 81.8799 87.2901 91.4399 86.9301 101.51C86.5701 111.57 81.5701 120.81 73.2201 126.84L72.4701 127.38ZM74.2501 77.6999C66.9501 83.2999 62.6001 91.5999 62.2701 100.62C61.9501 109.64 65.6901 118.23 72.5701 124.34C79.8701 118.74 84.2201 110.44 84.5501 101.42C84.8701 92.3999 81.1301 83.8099 74.2501 77.6999Z" fill="black"/>
<path d="M60.9601 102.21C67.1601 94.2899 68.8901 84.2699 66.5701 75.0299C57.0501 74.9999 47.7301 79.08 41.5301 87C35.3301 94.92 33.6101 104.94 35.9201 114.18C45.4401 114.21 54.7601 110.13 60.9601 102.21Z" fill="#FAE033"/>
<path d="M36.7601 115.37C36.4801 115.37 36.2001 115.37 35.9101 115.37H34.9801L34.7601 114.47C32.2601 104.47 34.3801 94.1899 40.5901 86.2599C46.8001 78.3299 56.2801 73.8099 66.5701 73.8299H67.5001L67.7301 74.7299C70.2301 84.7299 68.1101 95.0099 61.9001 102.94C55.8601 110.65 46.7401 115.15 36.7601 115.36V115.37ZM65.6301 76.2299C56.4301 76.4699 48.0301 80.6299 42.4701 87.7399C36.9101 94.8399 34.8901 104 36.8601 112.99C46.0601 112.75 54.4601 108.59 60.0201 101.48C65.5801 94.3699 67.6001 85.2199 65.6301 76.2299Z" fill="black"/>
<path d="M40.46 88.24C50.13 85.48 57.42 78.38 60.98 69.55C53.29 63.93 43.35 61.75 33.68 64.52C24.01 67.28 16.72 74.38 13.16 83.21C20.85 88.83 30.79 91.01 40.46 88.24Z" fill="#FAE033"/>
<path d="M32.6301 90.6201C25.5301 90.7701 18.4701 88.5601 12.4701 84.1701L11.7201 83.6201L12.0701 82.7601C15.9201 73.2001 23.6801 66.1301 33.3701 63.3601C43.0501 60.5901 53.3801 62.4901 61.7001 68.5801L62.4501 69.1301L62.1001 69.9901C58.2501 79.5501 50.4901 86.6201 40.8001 89.3801C38.1101 90.1501 35.3701 90.5601 32.6401 90.6201H32.6301ZM14.6301 82.7901C22.2101 88.0001 31.4501 89.5801 40.1301 87.1001C48.8101 84.6201 55.8201 78.4001 59.5101 69.9701C51.9301 64.7601 42.6801 63.1801 34.0101 65.6601C25.3301 68.1401 18.3201 74.3601 14.6301 82.7901Z" fill="black"/>
<path d="M32.0901 64.8999C41.5401 68.3499 51.6101 66.8899 59.6801 61.8399C56.7601 52.7699 50.0001 45.1699 40.5501 41.7199C31.1001 38.2699 21.0301 39.7299 12.9601 44.7799C15.8801 53.8499 22.6401 61.4499 32.0901 64.8999Z" fill="#FAE033"/>
<path d="M43.4101 67.9599C39.4601 68.0399 35.4901 67.3999 31.6901 66.0099C22.2301 62.5599 14.9901 54.9499 11.8401 45.1399L11.5601 44.2599L12.3501 43.7699C21.0801 38.2999 31.5201 37.1399 40.9801 40.5999C50.4401 44.0499 57.6801 51.6599 60.8301 61.4699L61.1101 62.3499L60.3201 62.8399C55.1001 66.1099 49.2801 67.8399 43.4101 67.9599ZM14.4001 45.2999C17.4701 53.9799 24.0201 60.6799 32.5001 63.7699C40.9801 66.8599 50.3101 65.9599 58.2401 61.2999C55.1701 52.6199 48.6201 45.9199 40.1401 42.8299C31.6601 39.7399 22.3301 40.6399 14.4001 45.2999Z" fill="black"/>
<path d="M39.04 41.0901C44.66 49.4301 53.66 54.1701 63.16 54.8301C66.13 45.7801 65.13 35.6601 59.51 27.3101C53.89 18.9701 44.89 14.2301 35.39 13.5701C32.42 22.6201 33.42 32.7401 39.04 41.0901Z" fill="#FAE033"/>
<path d="M64 56.0801L63.07 56.0201C52.79 55.3101 43.67 50.1101 38.04 41.7601C32.42 33.4001 31.03 23.0001 34.25 13.2101L34.54 12.3301L35.47 12.3901C45.75 13.1001 54.87 18.3001 60.5 26.6501C66.12 35.0101 67.51 45.4101 64.29 55.2001L64 56.0801ZM40.03 40.4201C45.07 47.9101 53.15 52.6601 62.31 53.5601C64.92 44.7401 63.56 35.4601 58.52 27.9801C53.48 20.4901 45.4 15.7401 36.24 14.8401C33.63 23.6601 34.99 32.9401 40.03 40.4201Z" fill="black"/>
<path d="M58.66 25.92C58.3 35.97 62.8 45.1 70.1 51.21C77.82 45.63 82.96 36.85 83.32 26.8C83.68 16.75 79.18 7.62001 71.88 1.51001C64.16 7.09001 59.02 15.87 58.66 25.92Z" fill="#FAE033"/>
<path d="M70.0401 52.72L69.3301 52.12C61.4301 45.5 57.1101 35.94 57.4701 25.87C57.8301 15.81 62.83 6.57 71.18 0.54L71.93 0L72.64 0.6C80.54 7.22 84.8601 16.78 84.5 26.85C84.14 36.91 79.1401 46.15 70.7901 52.18L70.0401 52.72ZM71.8301 3.04C64.5301 8.64 60.18 16.94 59.85 25.96C59.53 34.98 63.2701 43.57 70.1501 49.68C77.4501 44.08 81.8 35.78 82.13 26.76C82.45 17.74 78.7101 9.15 71.8301 3.04Z" fill="black"/>
<path d="M83.45 25.1701C77.25 33.0901 75.52 43.1101 77.84 52.3501C87.36 52.3801 96.68 48.3001 102.88 40.3801C109.08 32.4601 110.8 22.4401 108.49 13.2001C98.97 13.1701 89.65 17.2501 83.45 25.1701Z" fill="#FAE033"/>
<path d="M78.68 53.5401C78.4 53.5401 78.12 53.5401 77.83 53.5401H76.9L76.67 52.6401C74.17 42.6401 76.29 32.3601 82.5 24.4301C88.71 16.5001 98.2 11.9801 108.48 12.0001H109.41L109.63 12.9001C112.13 22.9001 110.01 33.1801 103.8 41.1101C97.76 48.8201 88.64 53.3201 78.66 53.5301L78.68 53.5401ZM84.39 25.9001C78.83 33.0101 76.81 42.1601 78.78 51.1501C87.98 50.9101 96.38 46.7501 101.94 39.6401C107.5 32.5401 109.52 23.3801 107.55 14.3901C98.35 14.6301 89.95 18.7901 84.39 25.9001Z" fill="black"/>
<path d="M103.94 39.1401C94.27 41.9001 86.98 49.0001 83.42 57.8301C91.11 63.4501 101.05 65.6301 110.72 62.8601C120.39 60.0901 127.68 53.0001 131.24 44.1701C123.55 38.5501 113.61 36.3701 103.94 39.1401Z" fill="#FAE033"/>
<path d="M102.89 65.24C95.7901 65.39 88.7301 63.18 82.7201 58.79L81.9701 58.24L82.3201 57.38C86.1701 47.82 93.9301 40.75 103.62 37.98C113.3 35.22 123.63 37.12 131.95 43.2L132.7 43.75L132.35 44.61C128.5 54.17 120.74 61.24 111.05 64.01C108.36 64.78 105.62 65.19 102.89 65.24ZM84.8901 57.41C92.4701 62.62 101.71 64.2 110.39 61.72C119.07 59.24 126.08 53.02 129.77 44.59C122.19 39.38 112.95 37.81 104.27 40.28C95.5901 42.76 88.5801 48.98 84.8901 57.41Z" fill="black"/>
<path d="M112.31 62.4799C102.86 59.0299 92.7901 60.4899 84.7201 65.5399C87.6401 74.6099 94.4001 82.2099 103.85 85.6599C113.3 89.1099 123.37 87.6499 131.44 82.5999C128.52 73.5299 121.76 65.9299 112.31 62.4799Z" fill="#FAE033"/>
<path d="M115.17 88.7299C111.22 88.8099 107.25 88.1699 103.45 86.7799C93.9901 83.3299 86.7501 75.7199 83.6001 65.9099L83.3201 65.0299L84.1101 64.5399C92.8401 59.0699 103.28 57.9099 112.74 61.3699C122.2 64.8199 129.44 72.4299 132.59 82.2399L132.87 83.1199L132.08 83.6099C126.86 86.8799 121.04 88.6099 115.17 88.7299ZM86.1601 66.0699C89.2301 74.7499 95.7801 81.4499 104.26 84.5399C112.74 87.6299 122.07 86.7299 130 82.0699C126.93 73.3899 120.38 66.6899 111.9 63.5999C103.42 60.5099 94.0901 61.4099 86.1601 66.0699Z" fill="black"/>
<path d="M105.36 86.29C99.7401 77.95 90.7401 73.21 81.2401 72.55C78.2701 81.6 79.2701 91.72 84.8901 100.07C90.5101 108.41 99.5101 113.15 109.01 113.81C111.98 104.76 110.98 94.64 105.36 86.29Z" fill="#FAE033"/>
<path d="M109.85 115.06L108.92 115C98.6401 114.29 89.5201 109.09 83.8901 100.74C78.2701 92.3901 76.8801 81.9801 80.1001 72.1901L80.3901 71.3101L81.3201 71.3701C91.6001 72.0801 100.72 77.2801 106.35 85.6301C111.97 93.9801 113.36 104.39 110.14 114.18L109.85 115.06ZM82.0901 73.8201C79.4801 82.6401 80.8401 91.9201 85.8801 99.4001C90.9201 106.89 99.0001 111.64 108.16 112.54C110.77 103.72 109.41 94.4401 104.37 86.9601C99.3301 79.4701 91.2501 74.7201 82.0901 73.8201Z" fill="black"/>
<path d="M72.2 93.17C88.4813 93.17 101.68 79.9713 101.68 63.69C101.68 47.4086 88.4813 34.21 72.2 34.21C55.9186 34.21 42.72 47.4086 42.72 63.69C42.72 79.9713 55.9186 93.17 72.2 93.17Z" fill="#C4996C"/>
<path d="M72.2 94.2499C55.35 94.2499 41.64 80.5399 41.64 63.6899C41.64 46.8399 55.35 33.1299 72.2 33.1299C89.05 33.1299 102.76 46.8399 102.76 63.6899C102.76 80.5399 89.05 94.2499 72.2 94.2499ZM72.2 35.2799C56.54 35.2799 43.79 48.0199 43.79 63.6899C43.79 79.3599 56.53 92.0999 72.2 92.0999C87.87 92.0999 100.61 79.3599 100.61 63.6899C100.61 48.0199 87.87 35.2799 72.2 35.2799Z" fill="black"/>
<path d="M59.53 68.7599C61.7778 68.7599 63.6 66.9377 63.6 64.6899C63.6 62.4421 61.7778 60.6199 59.53 60.6199C57.2822 60.6199 55.46 62.4421 55.46 64.6899C55.46 66.9377 57.2822 68.7599 59.53 68.7599Z" fill="black"/>
<path d="M54.4 72.3599C55.9906 72.3599 57.28 71.7018 57.28 70.8899C57.28 70.0781 55.9906 69.4199 54.4 69.4199C52.8094 69.4199 51.52 70.0781 51.52 70.8899C51.52 71.7018 52.8094 72.3599 54.4 72.3599Z" fill="#B37F4D"/>
<path d="M88.9401 72.3599C90.5306 72.3599 91.8201 71.7018 91.8201 70.8899C91.8201 70.0781 90.5306 69.4199 88.9401 69.4199C87.3495 69.4199 86.0601 70.0781 86.0601 70.8899C86.0601 71.7018 87.3495 72.3599 88.9401 72.3599Z" fill="#B37F4D"/>
<path d="M84.87 68.7599C87.1178 68.7599 88.94 66.9377 88.94 64.6899C88.94 62.4421 87.1178 60.6199 84.87 60.6199C82.6222 60.6199 80.8 62.4421 80.8 64.6899C80.8 66.9377 82.6222 68.7599 84.87 68.7599Z" fill="black"/>
<path d="M67.8 71.7598C67.46 71.7598 67.21 72.0698 67.26 72.4098C67.62 74.8198 69.7 76.6698 72.21 76.6698C74.72 76.6698 76.8 74.8198 77.16 72.4098C77.21 72.0698 76.96 71.7598 76.62 71.7598H67.81H67.8Z" fill="black"/>
<path d="M67.44 39.6698C60.32 41.4798 54.26 46.5198 50.82 52.9598C49.84 54.7898 52.63 56.4198 53.61 54.5898C56.68 48.8498 61.95 44.3998 68.3 42.7798C70.31 42.2698 69.46 39.1498 67.44 39.6698Z" fill="#FFDFC0"/>
<path d="M48.2201 59.1698C47.8301 60.3298 47.6801 61.5498 47.5201 62.7598C47.4701 63.1398 47.7401 63.6498 47.9901 63.8998C48.2701 64.1798 48.7301 64.3898 49.1301 64.3698C49.5301 64.3498 49.9801 64.2098 50.2701 63.8998L50.5201 63.5698C50.6701 63.3198 50.7401 63.0498 50.7401 62.7598V62.6998C50.7301 62.8398 50.7101 62.9898 50.6901 63.1298C50.8301 62.0798 50.9901 61.0298 51.3301 60.0198C51.4601 59.6398 51.3701 59.1198 51.1701 58.7798C50.9701 58.4398 50.5901 58.1298 50.2101 58.0398C49.8001 57.9498 49.3301 57.9698 48.9701 58.1998C48.6101 58.4298 48.3701 58.7498 48.2301 59.1598L48.2201 59.1698Z" fill="#FFDFC0"/>
<path d="M71.1601 172.31C78.4501 173.05 82.1601 181.73 77.5901 187.46C72.5601 193.77 63.2201 199.47 47.9801 204.05C44.8201 205 41.6801 206.32 39.1601 209.05L35.9401 212.55C38.2301 201.52 46.9601 169.86 71.1501 172.31H71.1601Z" fill="#49962E"/>
<path d="M35.94 213.54C35.79 213.54 35.63 213.5 35.49 213.43C35.1 213.23 34.89 212.79 34.98 212.35C37.12 202.08 46.06 168.78 71.26 171.33C75.07 171.72 78.24 174.08 79.75 177.67C81.24 181.22 80.73 185.11 78.36 188.07C72.88 194.94 62.76 200.63 48.27 204.99C45.52 205.82 42.37 207.03 39.89 209.71L36.68 213.21C36.49 213.42 36.22 213.53 35.95 213.53L35.94 213.54ZM68.58 173.16C49.16 173.16 40.71 197.26 37.73 209.14L38.43 208.38C41.23 205.34 44.68 204.01 47.69 203.11C61.79 198.87 71.59 193.39 76.81 186.84C78.72 184.45 79.13 181.3 77.92 178.43C76.7 175.52 74.13 173.6 71.05 173.29C70.21 173.21 69.38 173.16 68.58 173.16Z" fill="black"/>
<path d="M75.86 173.05C75.86 173.05 69.96 192.27 34.15 197.65C30.39 198.21 26.78 199.65 23.84 202.06C21.88 203.67 20.06 205.78 19.29 208.42C19.29 208.42 29.19 155.67 75.86 173.05Z" fill="#49962E"/>
<path d="M19.2901 209.42C19.2101 209.42 19.1301 209.42 19.0601 209.39C18.5401 209.27 18.2101 208.76 18.3101 208.23C18.5001 207.21 23.2201 183.04 41.2201 172.87C50.9801 167.35 62.7601 167.1 76.2101 172.11C76.7101 172.3 76.9701 172.83 76.8201 173.34C76.5701 174.15 70.3201 193.23 34.3001 198.64C30.5301 199.21 27.1301 200.66 24.4701 202.83C22.2801 204.62 20.8601 206.6 20.2401 208.7C20.1101 209.13 19.7201 209.42 19.2801 209.42H19.2901ZM58.1901 170.55C52.3501 170.55 47.0101 171.91 42.2101 174.62C30.4901 181.24 24.5701 194.53 21.9801 202.39C22.3601 202.02 22.7701 201.65 23.2101 201.3C26.1501 198.89 29.8801 197.3 34.0101 196.68C64.3001 192.13 72.8401 177.42 74.5501 173.65C68.7401 171.59 63.2801 170.56 58.2001 170.56L58.1901 170.55Z" fill="black"/>
<path d="M70.63 173.05C70.63 173.05 76.53 192.27 112.34 197.65C116.1 198.21 119.71 199.65 122.65 202.06C124.61 203.67 126.43 205.78 127.2 208.42C127.2 208.42 117.3 155.67 70.63 173.05Z" fill="#49962E"/>
<path d="M127.21 209.42C126.78 209.42 126.38 209.14 126.25 208.7C125.63 206.6 124.21 204.62 122.02 202.83C119.36 200.65 115.96 199.2 112.19 198.64C76.1701 193.23 69.9201 174.15 69.6701 173.34C69.5101 172.83 69.7801 172.3 70.2801 172.11C83.7401 167.1 95.5101 167.36 105.27 172.87C123.27 183.04 127.99 207.21 128.18 208.23C128.28 208.75 127.95 209.26 127.43 209.39C127.35 209.41 127.27 209.42 127.2 209.42H127.21ZM71.9501 173.64C73.6601 177.4 82.2001 192.12 112.49 196.67C116.61 197.29 120.35 198.89 123.29 201.29C123.73 201.65 124.14 202.01 124.52 202.38C121.93 194.52 116.01 181.23 104.29 174.61C95.3001 169.53 84.4201 169.2 71.9501 173.63V173.64Z" fill="black"/>
<path d="M71.4401 172.31C64.1501 173.05 60.4401 181.73 65.0101 187.46C70.0401 193.77 79.3801 199.47 94.6201 204.05C97.7801 205 100.92 206.32 103.44 209.05L106.66 212.55C104.37 201.52 95.6401 169.86 71.4501 172.31H71.4401Z" fill="#49962E"/>
<path d="M106.66 213.54C106.39 213.54 106.13 213.43 105.93 213.22L102.71 209.72C100.24 207.04 97.0901 205.83 94.3301 205C79.8401 200.64 69.7201 194.94 64.2401 188.08C61.8801 185.12 61.3601 181.23 62.8501 177.68C64.3601 174.1 67.5301 171.73 71.3401 171.34C96.5501 168.8 105.48 202.09 107.62 212.36C107.71 212.79 107.5 213.23 107.11 213.44C106.97 213.51 106.81 213.55 106.66 213.55V213.54ZM71.5401 173.29C68.4601 173.6 65.8901 175.52 64.6701 178.43C63.4601 181.31 63.8801 184.45 65.7801 186.84C71.0101 193.39 80.8001 198.86 94.9001 203.11C97.9101 204.01 101.36 205.35 104.16 208.38L104.86 209.14C101.76 196.77 92.7401 171.16 71.5401 173.29Z" fill="black"/>
</g>
<g clip-path="url(#clip1_834_8873)">
<path d="M537.45 134.26C537.45 134.26 524.9 129.2 516.08 134.78L524.22 127.17M522.99 128.38C522.99 128.38 528.3 123.98 543.26 139.88C548.64 145.6 554.64 150.74 561.3 154.91C569.95 160.32 580.93 165.24 588.72 161.87C592.35 161.98 556.74 93.99 522.99 128.38Z" fill="#49962E"/>
<path d="M537.45 134.26C537.45 134.26 524.9 129.2 516.08 134.78L524.22 127.17M522.99 128.38C522.99 128.38 528.3 123.98 543.26 139.88C548.64 145.6 554.64 150.74 561.3 154.91C569.95 160.32 580.93 165.24 588.72 161.87C592.35 161.98 556.74 93.99 522.99 128.38Z" stroke="black" stroke-width="1.79" stroke-miterlimit="10"/>
<path d="M590.89 84.5901H584.24V187.37H590.89V84.5901Z" fill="#49962E"/>
<path d="M591.75 188.22H583.39V83.73H591.75V188.22ZM585.1 186.51H590.04V85.45H585.1V186.51Z" fill="black"/>
<path d="M600.54 101.46C600.9 91.4099 596.4 82.2799 589.1 76.1699C581.38 81.7499 576.24 90.5299 575.88 100.58C575.52 110.63 580.02 119.76 587.32 125.87C595.04 120.29 600.18 111.51 600.54 101.46Z" fill="#FAE033"/>
<path d="M587.26 127.38L586.55 126.78C578.65 120.16 574.33 110.6 574.69 100.53C575.05 90.4699 580.05 81.2299 588.4 75.1999L589.15 74.6599L589.86 75.2599C597.76 81.8799 602.08 91.4399 601.72 101.51C601.36 111.57 596.36 120.81 588.01 126.84L587.26 127.38ZM589.04 77.6999C581.74 83.2999 577.39 91.5999 577.06 100.62C576.74 109.64 580.48 118.23 587.36 124.34C594.66 118.74 599.01 110.44 599.34 101.42C599.66 92.3999 595.92 83.8099 589.04 77.6999Z" fill="black"/>
<path d="M575.75 102.21C581.95 94.2899 583.68 84.2699 581.36 75.0299C571.84 74.9999 562.52 79.08 556.32 87C550.12 94.92 548.4 104.94 550.71 114.18C560.23 114.21 569.55 110.13 575.75 102.21Z" fill="#FAE033"/>
<path d="M551.55 115.37C551.27 115.37 550.99 115.37 550.7 115.37H549.77L549.55 114.47C547.05 104.47 549.17 94.1899 555.38 86.2599C561.59 78.3299 571.07 73.8099 581.36 73.8299H582.29L582.52 74.7299C585.02 84.7299 582.9 95.0099 576.69 102.94C570.65 110.65 561.53 115.15 551.55 115.36V115.37ZM580.42 76.2299C571.22 76.4699 562.82 80.6299 557.26 87.7399C551.7 94.8399 549.68 104 551.65 112.99C560.85 112.75 569.25 108.59 574.81 101.48C580.37 94.3699 582.39 85.2199 580.42 76.2299Z" fill="black"/>
<path d="M555.25 88.24C564.92 85.48 572.21 78.38 575.77 69.55C568.08 63.93 558.14 61.75 548.47 64.52C538.8 67.28 531.51 74.38 527.95 83.21C535.64 88.83 545.58 91.01 555.25 88.24Z" fill="#FAE033"/>
<path d="M547.42 90.6201C540.32 90.7701 533.26 88.5601 527.26 84.1701L526.51 83.6201L526.86 82.7601C530.71 73.2001 538.47 66.1301 548.16 63.3601C557.84 60.5901 568.17 62.4901 576.49 68.5801L577.24 69.1301L576.89 69.9901C573.04 79.5501 565.28 86.6201 555.59 89.3801C552.9 90.1501 550.16 90.5601 547.43 90.6201H547.42ZM529.42 82.7901C537 88.0001 546.24 89.5801 554.92 87.1001C563.6 84.6201 570.61 78.4001 574.3 69.9701C566.72 64.7601 557.47 63.1801 548.8 65.6601C540.12 68.1401 533.11 74.3601 529.42 82.7901Z" fill="black"/>
<path d="M546.88 64.8999C556.33 68.3499 566.4 66.8899 574.47 61.8399C571.55 52.7699 564.79 45.1699 555.34 41.7199C545.89 38.2699 535.82 39.7299 527.75 44.7799C530.67 53.8499 537.43 61.4499 546.88 64.8999Z" fill="#FAE033"/>
<path d="M558.2 67.9599C554.25 68.0399 550.28 67.3999 546.48 66.0099C537.02 62.5599 529.78 54.9499 526.63 45.1399L526.35 44.2599L527.14 43.7699C535.87 38.2999 546.31 37.1399 555.77 40.5999C565.23 44.0499 572.47 51.6599 575.62 61.4699L575.9 62.3499L575.11 62.8399C569.89 66.1099 564.07 67.8399 558.2 67.9599ZM529.19 45.2999C532.26 53.9799 538.81 60.6799 547.29 63.7699C555.77 66.8599 565.1 65.9599 573.03 61.2999C569.96 52.6199 563.41 45.9199 554.93 42.8299C546.45 39.7399 537.12 40.6399 529.19 45.2999Z" fill="black"/>
<path d="M553.83 41.0901C559.45 49.4301 568.45 54.1701 577.95 54.8301C580.92 45.7801 579.92 35.6601 574.3 27.3101C568.68 18.9701 559.68 14.2301 550.18 13.5701C547.21 22.6201 548.21 32.7401 553.83 41.0901Z" fill="#FAE033"/>
<path d="M578.8 56.0801L577.87 56.0201C567.59 55.3101 558.47 50.1101 552.84 41.7601C547.22 33.4001 545.83 23.0001 549.05 13.2101L549.34 12.3301L550.27 12.3901C560.55 13.1001 569.67 18.3001 575.3 26.6501C580.92 35.0101 582.31 45.4101 579.09 55.2001L578.8 56.0801ZM554.82 40.4201C559.86 47.9101 567.94 52.6601 577.1 53.5601C579.71 44.7401 578.35 35.4601 573.31 27.9801C568.27 20.4901 560.19 15.7401 551.03 14.8401C548.42 23.6601 549.78 32.9401 554.82 40.4201Z" fill="black"/>
<path d="M573.45 25.92C573.09 35.97 577.59 45.1 584.89 51.21C592.61 45.63 597.75 36.85 598.11 26.8C598.47 16.75 593.97 7.62001 586.67 1.51001C578.95 7.09001 573.81 15.87 573.45 25.92Z" fill="#FAE033"/>
<path d="M584.83 52.72L584.12 52.12C576.22 45.5 571.9 35.94 572.26 25.87C572.62 15.81 577.62 6.57 585.97 0.54L586.72 0L587.43 0.6C595.33 7.22 599.65 16.78 599.29 26.85C598.93 36.91 593.93 46.15 585.58 52.18L584.83 52.72ZM586.62 3.04C579.32 8.64 574.97 16.94 574.64 25.96C574.32 34.98 578.06 43.57 584.94 49.68C592.24 44.08 596.59 35.78 596.92 26.76C597.24 17.74 593.5 9.15 586.62 3.04Z" fill="black"/>
<path d="M598.24 25.1701C592.04 33.0901 590.31 43.1101 592.63 52.3501C602.15 52.3801 611.47 48.3001 617.67 40.3801C623.87 32.4601 625.59 22.4401 623.28 13.2001C613.76 13.1701 604.44 17.2501 598.24 25.1701Z" fill="#FAE033"/>
<path d="M593.47 53.5401C593.19 53.5401 592.91 53.5401 592.62 53.5401H591.69L591.46 52.6401C588.96 42.6401 591.08 32.3601 597.29 24.4301C603.5 16.5001 612.99 11.9801 623.27 12.0001H624.2L624.42 12.9001C626.92 22.9001 624.8 33.1801 618.59 41.1101C612.55 48.8201 603.43 53.3201 593.45 53.5301L593.47 53.5401ZM599.18 25.9001C593.62 33.0101 591.6 42.1601 593.57 51.1501C602.77 50.9101 611.17 46.7501 616.73 39.6401C622.29 32.5401 624.31 23.3801 622.34 14.3901C613.14 14.6301 604.74 18.7901 599.18 25.9001Z" fill="black"/>
<path d="M618.73 39.1401C609.06 41.9001 601.77 49.0001 598.21 57.8301C605.9 63.4501 615.84 65.6301 625.51 62.8601C635.18 60.0901 642.47 53.0001 646.03 44.1701C638.34 38.5501 628.4 36.3701 618.73 39.1401Z" fill="#FAE033"/>
<path d="M617.68 65.24C610.58 65.39 603.52 63.18 597.51 58.79L596.76 58.24L597.11 57.38C600.96 47.82 608.72 40.75 618.41 37.98C628.09 35.22 638.42 37.12 646.74 43.2L647.49 43.75L647.14 44.61C643.29 54.17 635.53 61.24 625.84 64.01C623.15 64.78 620.41 65.19 617.68 65.24ZM599.68 57.41C607.26 62.62 616.5 64.2 625.18 61.72C633.86 59.24 640.87 53.02 644.56 44.59C636.98 39.38 627.74 37.81 619.06 40.28C610.38 42.76 603.37 48.98 599.68 57.41Z" fill="black"/>
<path d="M627.1 62.4799C617.65 59.0299 607.58 60.4899 599.51 65.5399C602.43 74.6099 609.19 82.2099 618.64 85.6599C628.09 89.1099 638.16 87.6499 646.23 82.5999C643.31 73.5299 636.55 65.9299 627.1 62.4799Z" fill="#FAE033"/>
<path d="M629.96 88.7299C626.01 88.8099 622.04 88.1699 618.24 86.7799C608.78 83.3299 601.54 75.7199 598.39 65.9099L598.11 65.0299L598.9 64.5399C607.63 59.0699 618.07 57.9099 627.53 61.3699C636.99 64.8199 644.23 72.4299 647.38 82.2399L647.66 83.1199L646.87 83.6099C641.65 86.8799 635.83 88.6099 629.96 88.7299ZM600.95 66.0699C604.02 74.7499 610.57 81.4499 619.05 84.5399C627.53 87.6299 636.86 86.7299 644.79 82.0699C641.72 73.3899 635.17 66.6899 626.69 63.5999C618.21 60.5099 608.88 61.4099 600.95 66.0699Z" fill="black"/>
<path d="M620.15 86.29C614.53 77.95 605.53 73.21 596.03 72.55C593.06 81.6 594.06 91.72 599.68 100.07C605.3 108.41 614.3 113.15 623.8 113.81C626.77 104.76 625.77 94.64 620.15 86.29Z" fill="#FAE033"/>
<path d="M624.64 115.06L623.71 115C613.43 114.29 604.31 109.09 598.68 100.74C593.06 92.3901 591.67 81.9801 594.89 72.1901L595.18 71.3101L596.11 71.3701C606.39 72.0801 615.51 77.2801 621.14 85.6301C626.76 93.9801 628.15 104.39 624.93 114.18L624.64 115.06ZM596.89 73.8201C594.28 82.6401 595.64 91.9201 600.68 99.4001C605.72 106.89 613.8 111.64 622.96 112.54C625.57 103.72 624.21 94.4401 619.17 86.9601C614.13 79.4701 606.05 74.7201 596.89 73.8201Z" fill="black"/>
<path d="M586.99 93.17C603.272 93.17 616.47 79.9713 616.47 63.69C616.47 47.4086 603.272 34.21 586.99 34.21C570.709 34.21 557.51 47.4086 557.51 63.69C557.51 79.9713 570.709 93.17 586.99 93.17Z" fill="#C4996C"/>
<path d="M586.99 94.2499C570.14 94.2499 556.43 80.5399 556.43 63.6899C556.43 46.8399 570.14 33.1299 586.99 33.1299C603.84 33.1299 617.55 46.8399 617.55 63.6899C617.55 80.5399 603.84 94.2499 586.99 94.2499ZM586.99 35.2799C571.33 35.2799 558.58 48.0199 558.58 63.6899C558.58 79.3599 571.32 92.0999 586.99 92.0999C602.66 92.0999 615.4 79.3599 615.4 63.6899C615.4 48.0199 602.66 35.2799 586.99 35.2799Z" fill="black"/>
<path d="M574.32 68.7599C576.568 68.7599 578.39 66.9377 578.39 64.6899C578.39 62.4421 576.568 60.6199 574.32 60.6199C572.072 60.6199 570.25 62.4421 570.25 64.6899C570.25 66.9377 572.072 68.7599 574.32 68.7599Z" fill="black"/>
<path d="M569.19 72.3599C570.781 72.3599 572.07 71.7018 572.07 70.8899C572.07 70.0781 570.781 69.4199 569.19 69.4199C567.599 69.4199 566.31 70.0781 566.31 70.8899C566.31 71.7018 567.599 72.3599 569.19 72.3599Z" fill="#B37F4D"/>
<path d="M603.73 72.3599C605.321 72.3599 606.61 71.7018 606.61 70.8899C606.61 70.0781 605.321 69.4199 603.73 69.4199C602.14 69.4199 600.85 70.0781 600.85 70.8899C600.85 71.7018 602.14 72.3599 603.73 72.3599Z" fill="#B37F4D"/>
<path d="M599.66 68.7599C601.908 68.7599 603.73 66.9377 603.73 64.6899C603.73 62.4421 601.908 60.6199 599.66 60.6199C597.412 60.6199 595.59 62.4421 595.59 64.6899C595.59 66.9377 597.412 68.7599 599.66 68.7599Z" fill="black"/>
<path d="M582.59 72.7598C582.25 72.7598 582 72.9198 582.05 73.0898C582.41 74.2998 584.49 75.2198 587 75.2198C589.51 75.2198 591.59 74.2898 591.95 73.0898C592 72.9198 591.75 72.7598 591.41 72.7598H582.6H582.59Z" fill="black"/>
<path d="M582.23 39.6698C575.11 41.4798 569.05 46.5198 565.61 52.9598C564.63 54.7898 567.42 56.4198 568.4 54.5898C571.47 48.8498 576.74 44.3998 583.09 42.7798C585.1 42.2698 584.25 39.1498 582.23 39.6698Z" fill="#FFDFC0"/>
<path d="M563.01 59.1698C562.62 60.3298 562.47 61.5498 562.31 62.7598C562.26 63.1398 562.53 63.6498 562.78 63.8998C563.06 64.1798 563.52 64.3898 563.92 64.3698C564.32 64.3498 564.77 64.2098 565.06 63.8998L565.31 63.5698C565.46 63.3198 565.53 63.0498 565.53 62.7598V62.6998C565.52 62.8398 565.5 62.9898 565.48 63.1298C565.62 62.0798 565.78 61.0298 566.12 60.0198C566.25 59.6398 566.16 59.1198 565.96 58.7798C565.76 58.4398 565.38 58.1298 565 58.0398C564.59 57.9498 564.12 57.9698 563.76 58.1998C563.4 58.4298 563.16 58.7498 563.02 59.1598L563.01 59.1698Z" fill="#FFDFC0"/>
<path d="M585.95 172.31C593.24 173.05 596.95 181.73 592.38 187.46C587.35 193.77 578.01 199.47 562.77 204.05C559.61 205 556.47 206.32 553.95 209.05L550.73 212.55C553.02 201.52 561.75 169.86 585.94 172.31H585.95Z" fill="#49962E"/>
<path d="M550.73 213.54C550.58 213.54 550.42 213.5 550.28 213.43C549.89 213.23 549.68 212.79 549.77 212.35C551.91 202.08 560.85 168.78 586.05 171.33C589.86 171.72 593.03 174.08 594.54 177.67C596.03 181.22 595.52 185.11 593.15 188.07C587.67 194.94 577.55 200.63 563.06 204.99C560.31 205.82 557.16 207.03 554.68 209.71L551.47 213.21C551.28 213.42 551.01 213.53 550.74 213.53L550.73 213.54ZM583.37 173.16C563.95 173.16 555.5 197.26 552.52 209.14L553.22 208.38C556.02 205.34 559.47 204.01 562.48 203.11C576.58 198.87 586.38 193.39 591.6 186.84C593.51 184.45 593.92 181.3 592.71 178.43C591.49 175.52 588.92 173.6 585.84 173.29C585 173.21 584.17 173.16 583.37 173.16Z" fill="black"/>
<path d="M590.65 173.05C590.65 173.05 584.75 192.27 548.94 197.65C545.18 198.21 541.57 199.65 538.63 202.06C536.67 203.67 534.85 205.78 534.08 208.42C534.08 208.42 543.98 155.67 590.65 173.05Z" fill="#49962E"/>
<path d="M534.08 209.42C534 209.42 533.92 209.42 533.85 209.39C533.33 209.27 533 208.76 533.1 208.23C533.29 207.21 538.01 183.04 556.01 172.87C565.77 167.35 577.55 167.1 591 172.11C591.5 172.3 591.76 172.83 591.61 173.34C591.36 174.15 585.11 193.23 549.09 198.64C545.32 199.21 541.92 200.66 539.26 202.83C537.07 204.62 535.65 206.6 535.03 208.7C534.9 209.13 534.51 209.42 534.07 209.42H534.08ZM572.98 170.55C567.14 170.55 561.8 171.91 557 174.62C545.28 181.24 539.36 194.53 536.77 202.39C537.15 202.02 537.56 201.65 538 201.3C540.94 198.89 544.67 197.3 548.8 196.68C579.09 192.13 587.63 177.42 589.34 173.65C583.53 171.59 578.07 170.56 572.99 170.56L572.98 170.55Z" fill="black"/>
<path d="M585.42 173.05C585.42 173.05 591.32 192.27 627.13 197.65C630.89 198.21 634.5 199.65 637.44 202.06C639.4 203.67 641.22 205.78 641.99 208.42C641.99 208.42 632.09 155.67 585.42 173.05Z" fill="#49962E"/>
<path d="M642 209.42C641.57 209.42 641.17 209.14 641.04 208.7C640.42 206.6 639 204.62 636.81 202.83C634.15 200.65 630.75 199.2 626.98 198.64C590.96 193.23 584.71 174.15 584.46 173.34C584.3 172.83 584.57 172.3 585.07 172.11C598.53 167.1 610.3 167.36 620.06 172.87C638.06 183.04 642.78 207.21 642.97 208.23C643.07 208.75 642.74 209.26 642.22 209.39C642.14 209.41 642.06 209.42 641.99 209.42H642ZM586.74 173.64C588.45 177.4 596.99 192.12 627.28 196.67C631.4 197.29 635.14 198.89 638.08 201.29C638.52 201.65 638.93 202.01 639.31 202.38C636.72 194.52 630.8 181.23 619.08 174.61C610.09 169.53 599.21 169.2 586.74 173.63V173.64Z" fill="black"/>
<path d="M586.23 172.31C578.94 173.05 575.23 181.73 579.8 187.46C584.83 193.77 594.17 199.47 609.41 204.05C612.57 205 615.71 206.32 618.23 209.05L621.45 212.55C619.16 201.52 610.43 169.86 586.24 172.31H586.23Z" fill="#49962E"/>
<path d="M621.45 213.54C621.18 213.54 620.92 213.43 620.72 213.22L617.5 209.72C615.03 207.04 611.88 205.83 609.12 205C594.63 200.64 584.51 194.94 579.03 188.08C576.67 185.12 576.15 181.23 577.64 177.68C579.15 174.1 582.32 171.73 586.13 171.34C611.34 168.8 620.27 202.09 622.41 212.36C622.5 212.79 622.29 213.23 621.9 213.44C621.76 213.51 621.6 213.55 621.45 213.55V213.54ZM586.33 173.29C583.25 173.6 580.68 175.52 579.46 178.43C578.25 181.31 578.67 184.45 580.57 186.84C585.8 193.39 595.59 198.86 609.69 203.11C612.7 204.01 616.15 205.35 618.95 208.38L619.65 209.14C616.55 196.77 607.53 171.16 586.33 173.29Z" fill="black"/>
</g>
<g clip-path="url(#clip2_834_8873)">
<path d="M482.68 159.31L484.59 170.29C480.91 160.53 467.85 157 467.85 157M410.29 148.13C414.48 155.51 426.2 158.21 436.37 159.1C444.2 159.79 452.07 159.3 459.82 157.98C481.34 154.3 482.92 161.02 482.92 161.02C476.72 113.24 407.33 146.03 410.29 148.13Z" fill="#49962E"/>
<path d="M482.68 159.31L484.59 170.29C480.91 160.53 467.85 157 467.85 157M410.29 148.13C414.48 155.51 426.2 158.21 436.37 159.1C444.2 159.79 452.07 159.3 459.82 157.98C481.34 154.3 482.92 161.02 482.92 161.02C476.72 113.24 407.33 146.03 410.29 148.13Z" stroke="black" stroke-width="1.79" stroke-miterlimit="10"/>
<path d="M368.17 121.26C368.17 121.26 355.95 115.44 346.81 120.46L355.4 113.36M354.1 114.5C354.1 114.5 359.67 110.43 373.62 127.23C378.64 133.27 384.31 138.77 390.7 143.34C399.01 149.28 409.66 154.85 417.64 151.97C421.25 152.31 389.9 82.2501 354.1 114.5Z" fill="#49962E"/>
<path d="M368.17 121.26C368.17 121.26 355.95 115.44 346.81 120.46L355.4 113.36M354.1 114.5C354.1 114.5 359.67 110.43 373.62 127.23C378.64 133.27 384.31 138.77 390.7 143.34C399.01 149.28 409.66 154.85 417.64 151.97C421.25 152.31 389.9 82.2501 354.1 114.5Z" stroke="black" stroke-width="1.79" stroke-miterlimit="10"/>
<path d="M420.73 84.5901H414.08V187.37H420.73V84.5901Z" fill="#49962E"/>
<path d="M421.59 188.22H413.23V83.73H421.59V188.22ZM414.94 186.51H419.88V85.45H414.94V186.51Z" fill="black"/>
<path d="M430.38 101.46C430.74 91.4099 426.24 82.2799 418.94 76.1699C411.22 81.7499 406.08 90.5299 405.72 100.58C405.36 110.63 409.86 119.76 417.16 125.87C424.88 120.29 430.02 111.51 430.38 101.46Z" fill="#FAE033"/>
<path d="M417.1 127.38L416.39 126.78C408.49 120.16 404.17 110.6 404.53 100.53C404.89 90.4699 409.89 81.2299 418.24 75.1999L418.99 74.6599L419.7 75.2599C427.6 81.8799 431.92 91.4399 431.56 101.51C431.2 111.57 426.2 120.81 417.85 126.84L417.1 127.38ZM418.88 77.6999C411.58 83.2999 407.23 91.5999 406.9 100.62C406.58 109.64 410.32 118.23 417.2 124.34C424.5 118.74 428.85 110.44 429.18 101.42C429.5 92.3999 425.76 83.8099 418.88 77.6999Z" fill="black"/>
<path d="M405.59 102.21C411.79 94.2899 413.52 84.2699 411.2 75.0299C401.68 74.9999 392.36 79.08 386.16 87C379.96 94.92 378.24 104.94 380.55 114.18C390.07 114.21 399.39 110.13 405.59 102.21Z" fill="#FAE033"/>
<path d="M381.39 115.37C381.11 115.37 380.83 115.37 380.54 115.37H379.61L379.39 114.47C376.89 104.47 379.01 94.1899 385.22 86.2599C391.43 78.3299 400.91 73.8099 411.2 73.8299H412.13L412.36 74.7299C414.86 84.7299 412.74 95.0099 406.53 102.94C400.49 110.65 391.37 115.15 381.39 115.36V115.37ZM410.26 76.2299C401.06 76.4699 392.66 80.6299 387.1 87.7399C381.54 94.8399 379.52 104 381.49 112.99C390.69 112.75 399.09 108.59 404.65 101.48C410.21 94.3699 412.23 85.2199 410.26 76.2299Z" fill="black"/>
<path d="M385.09 88.24C394.76 85.48 402.05 78.38 405.61 69.55C397.92 63.93 387.98 61.75 378.31 64.52C368.64 67.28 361.35 74.38 357.79 83.21C365.48 88.83 375.42 91.01 385.09 88.24Z" fill="#FAE033"/>
<path d="M377.26 90.6201C370.16 90.7701 363.1 88.5601 357.1 84.1701L356.35 83.6201L356.7 82.7601C360.55 73.2001 368.31 66.1301 378 63.3601C387.68 60.5901 398.01 62.4901 406.33 68.5801L407.08 69.1301L406.73 69.9901C402.88 79.5501 395.12 86.6201 385.43 89.3801C382.74 90.1501 380 90.5601 377.27 90.6201H377.26ZM359.27 82.7901C366.85 88.0001 376.09 89.5801 384.77 87.1001C393.45 84.6201 400.46 78.4001 404.15 69.9701C396.57 64.7601 387.32 63.1801 378.65 65.6601C369.97 68.1401 362.96 74.3601 359.27 82.7901Z" fill="black"/>
<path d="M376.72 64.8999C386.17 68.3499 396.24 66.8899 404.31 61.8399C401.39 52.7699 394.63 45.1699 385.18 41.7199C375.73 38.2699 365.66 39.7299 357.59 44.7799C360.51 53.8499 367.27 61.4499 376.72 64.8999Z" fill="#FAE033"/>
<path d="M388.04 67.9599C384.09 68.0399 380.12 67.3999 376.32 66.0099C366.86 62.5599 359.62 54.9499 356.47 45.1399L356.19 44.2599L356.98 43.7699C365.71 38.2999 376.15 37.1399 385.61 40.5999C395.07 44.0499 402.31 51.6599 405.46 61.4699L405.74 62.3499L404.95 62.8399C399.73 66.1099 393.91 67.8399 388.04 67.9599ZM359.03 45.2999C362.1 53.9799 368.65 60.6799 377.13 63.7699C385.61 66.8599 394.94 65.9599 402.87 61.2999C399.8 52.6199 393.25 45.9199 384.77 42.8299C376.29 39.7399 366.96 40.6399 359.03 45.2999Z" fill="black"/>
<path d="M383.67 41.0901C389.29 49.4301 398.29 54.1701 407.79 54.8301C410.76 45.7801 409.76 35.6601 404.14 27.3101C398.52 18.9701 389.52 14.2301 380.02 13.5701C377.05 22.6201 378.05 32.7401 383.67 41.0901Z" fill="#FAE033"/>
<path d="M408.64 56.0801L407.71 56.0201C397.43 55.3101 388.31 50.1101 382.68 41.7601C377.06 33.4001 375.67 23.0001 378.89 13.2101L379.18 12.3301L380.11 12.3901C390.39 13.1001 399.51 18.3001 405.14 26.6501C410.76 35.0101 412.15 45.4101 408.93 55.2001L408.64 56.0801ZM384.66 40.4201C389.7 47.9101 397.78 52.6601 406.94 53.5601C409.55 44.7401 408.19 35.4601 403.15 27.9801C398.11 20.4901 390.03 15.7401 380.87 14.8401C378.26 23.6601 379.62 32.9401 384.66 40.4201Z" fill="black"/>
<path d="M403.29 25.92C402.93 35.97 407.43 45.1 414.73 51.21C422.45 45.63 427.59 36.85 427.95 26.8C428.31 16.75 423.81 7.62001 416.51 1.51001C408.79 7.09001 403.65 15.87 403.29 25.92Z" fill="#FAE033"/>
<path d="M414.67 52.72L413.96 52.12C406.06 45.5 401.74 35.94 402.1 25.87C402.46 15.81 407.46 6.57 415.81 0.54L416.56 0L417.27 0.6C425.17 7.22 429.49 16.78 429.13 26.85C428.77 36.91 423.77 46.15 415.42 52.18L414.67 52.72ZM416.46 3.04C409.16 8.64 404.81 16.94 404.48 25.96C404.16 34.98 407.9 43.57 414.78 49.68C422.08 44.08 426.43 35.78 426.76 26.76C427.08 17.74 423.34 9.15 416.46 3.04Z" fill="black"/>
<path d="M428.08 25.1701C421.88 33.0901 420.15 43.1101 422.47 52.3501C431.99 52.3801 441.31 48.3001 447.51 40.3801C453.71 32.4601 455.43 22.4401 453.12 13.2001C443.6 13.1701 434.28 17.2501 428.08 25.1701Z" fill="#FAE033"/>
<path d="M423.31 53.5401C423.03 53.5401 422.75 53.5401 422.46 53.5401H421.53L421.3 52.6401C418.8 42.6401 420.92 32.3601 427.13 24.4301C433.34 16.5001 442.83 11.9801 453.11 12.0001H454.04L454.26 12.9001C456.76 22.9001 454.64 33.1801 448.43 41.1101C442.39 48.8201 433.27 53.3201 423.29 53.5301L423.31 53.5401ZM429.02 25.9001C423.46 33.0101 421.44 42.1601 423.41 51.1501C432.61 50.9101 441.01 46.7501 446.57 39.6401C452.13 32.5401 454.15 23.3801 452.18 14.3901C442.98 14.6301 434.58 18.7901 429.02 25.9001Z" fill="black"/>
<path d="M448.57 39.1401C438.9 41.9001 431.61 49.0001 428.05 57.8301C435.74 63.4501 445.68 65.6301 455.35 62.8601C465.02 60.1001 472.31 53.0001 475.87 44.1701C468.18 38.5501 458.24 36.3701 448.57 39.1401Z" fill="#FAE033"/>
<path d="M447.52 65.24C440.42 65.39 433.36 63.18 427.35 58.79L426.6 58.24L426.95 57.38C430.8 47.82 438.56 40.75 448.25 37.98C457.93 35.22 468.26 37.12 476.58 43.2L477.33 43.75L476.98 44.61C473.13 54.17 465.37 61.24 455.68 64.01C452.99 64.78 450.25 65.19 447.52 65.24ZM429.52 57.41C437.1 62.62 446.34 64.2 455.02 61.72C463.7 59.24 470.71 53.02 474.4 44.59C466.82 39.38 457.58 37.81 448.9 40.28C440.22 42.76 433.21 48.98 429.52 57.41Z" fill="black"/>
<path d="M456.94 62.4799C447.49 59.0299 437.42 60.4899 429.35 65.5399C432.27 74.6099 439.03 82.2099 448.48 85.6599C457.93 89.1099 468 87.6499 476.07 82.5999C473.15 73.5299 466.39 65.9299 456.94 62.4799Z" fill="#FAE033"/>
<path d="M459.8 88.7299C455.85 88.8099 451.88 88.1699 448.08 86.7799C438.62 83.3299 431.38 75.7199 428.23 65.9099L427.95 65.0299L428.74 64.5399C437.47 59.0699 447.91 57.9099 457.37 61.3699C466.83 64.8199 474.07 72.4299 477.22 82.2399L477.5 83.1199L476.71 83.6099C471.49 86.8799 465.67 88.6099 459.8 88.7299ZM430.79 66.0699C433.86 74.7499 440.41 81.4499 448.89 84.5399C457.37 87.6299 466.7 86.7299 474.63 82.0699C471.56 73.3899 465.01 66.6899 456.53 63.5999C448.05 60.5099 438.72 61.4099 430.79 66.0699Z" fill="black"/>
<path d="M449.99 86.29C444.37 77.95 435.37 73.21 425.87 72.55C422.9 81.6 423.9 91.72 429.52 100.07C435.14 108.41 444.14 113.15 453.64 113.81C456.61 104.76 455.61 94.64 449.99 86.29Z" fill="#FAE033"/>
<path d="M454.49 115.06L453.56 115C443.28 114.29 434.16 109.09 428.53 100.74C422.91 92.3901 421.52 81.9801 424.74 72.1901L425.03 71.3101L425.96 71.3701C436.24 72.0801 445.36 77.2801 450.99 85.6301C456.61 93.9801 458 104.39 454.78 114.18L454.49 115.06ZM426.73 73.8201C424.12 82.6401 425.48 91.9201 430.52 99.4001C435.56 106.89 443.64 111.64 452.8 112.54C455.41 103.72 454.05 94.4401 449.01 86.9601C443.97 79.4701 435.89 74.7201 426.73 73.8201Z" fill="black"/>
<path d="M416.83 93.17C433.111 93.17 446.31 79.9713 446.31 63.69C446.31 47.4086 433.111 34.21 416.83 34.21C400.549 34.21 387.35 47.4086 387.35 63.69C387.35 79.9713 400.549 93.17 416.83 93.17Z" fill="#C4996C"/>
<path d="M416.83 94.2499C399.98 94.2499 386.27 80.5399 386.27 63.6899C386.27 46.8399 399.98 33.1299 416.83 33.1299C433.68 33.1299 447.39 46.8399 447.39 63.6899C447.39 80.5399 433.68 94.2499 416.83 94.2499ZM416.83 35.2799C401.17 35.2799 388.42 48.0199 388.42 63.6899C388.42 79.3599 401.16 92.0999 416.83 92.0999C432.5 92.0999 445.24 79.3599 445.24 63.6899C445.24 48.0199 432.5 35.2799 416.83 35.2799Z" fill="black"/>
<path d="M399.03 72.3599C400.62 72.3599 401.91 71.7018 401.91 70.8899C401.91 70.0781 400.62 69.4199 399.03 69.4199C397.439 69.4199 396.15 70.0781 396.15 70.8899C396.15 71.7018 397.439 72.3599 399.03 72.3599Z" fill="#B37F4D"/>
<path d="M433.57 72.3599C435.161 72.3599 436.45 71.7018 436.45 70.8899C436.45 70.0781 435.161 69.4199 433.57 69.4199C431.979 69.4199 430.69 70.0781 430.69 70.8899C430.69 71.7018 431.979 72.3599 433.57 72.3599Z" fill="#B37F4D"/>
<path d="M412.07 39.6698C404.95 41.4798 398.89 46.5198 395.45 52.9598C394.47 54.7898 397.26 56.4198 398.24 54.5898C401.31 48.8498 406.58 44.3998 412.93 42.7798C414.94 42.2698 414.09 39.1498 412.07 39.6698Z" fill="#FFDFC0"/>
<path d="M392.85 59.1698C392.46 60.3298 392.31 61.5498 392.15 62.7598C392.1 63.1398 392.37 63.6498 392.62 63.8998C392.9 64.1798 393.36 64.3898 393.76 64.3698C394.16 64.3498 394.61 64.2098 394.9 63.8998L395.15 63.5698C395.3 63.3198 395.37 63.0498 395.37 62.7598V62.6998C395.36 62.8398 395.34 62.9898 395.32 63.1298C395.46 62.0798 395.62 61.0298 395.96 60.0198C396.09 59.6398 396 59.1198 395.8 58.7798C395.6 58.4398 395.22 58.1298 394.84 58.0398C394.43 57.9498 393.96 57.9698 393.6 58.1998C393.24 58.4298 393 58.7498 392.86 59.1598L392.85 59.1698Z" fill="#FFDFC0"/>
<path d="M415.79 172.31C423.08 173.05 426.79 181.73 422.22 187.46C417.19 193.77 407.85 199.47 392.61 204.05C389.45 205 386.31 206.32 383.79 209.05L380.57 212.55C382.86 201.52 391.59 169.86 415.78 172.31H415.79Z" fill="#49962E"/>
<path d="M380.57 213.54C380.42 213.54 380.26 213.5 380.12 213.43C379.73 213.23 379.52 212.79 379.61 212.35C381.75 202.08 390.69 168.78 415.89 171.33C419.7 171.72 422.87 174.08 424.38 177.67C425.87 181.22 425.36 185.11 422.99 188.07C417.51 194.94 407.39 200.63 392.9 204.99C390.15 205.82 387 207.03 384.52 209.71L381.31 213.21C381.12 213.42 380.85 213.53 380.58 213.53L380.57 213.54ZM413.22 173.16C393.8 173.16 385.35 197.26 382.37 209.14L383.07 208.38C385.87 205.34 389.32 204.01 392.33 203.11C406.43 198.87 416.23 193.39 421.45 186.84C423.36 184.45 423.77 181.3 422.56 178.43C421.34 175.52 418.77 173.6 415.69 173.29C414.85 173.21 414.02 173.16 413.22 173.16Z" fill="black"/>
<path d="M420.49 173.05C420.49 173.05 414.59 192.27 378.78 197.65C375.02 198.21 371.41 199.65 368.47 202.06C366.51 203.67 364.69 205.78 363.92 208.42C363.92 208.42 373.82 155.67 420.49 173.05Z" fill="#49962E"/>
<path d="M363.92 209.42C363.84 209.42 363.76 209.42 363.69 209.39C363.17 209.27 362.84 208.76 362.94 208.23C363.13 207.21 367.85 183.04 385.85 172.87C395.61 167.35 407.39 167.1 420.84 172.11C421.34 172.3 421.6 172.83 421.45 173.34C421.2 174.15 414.95 193.23 378.93 198.64C375.16 199.21 371.76 200.66 369.1 202.83C366.91 204.62 365.49 206.6 364.87 208.7C364.74 209.13 364.35 209.42 363.91 209.42H363.92ZM402.82 170.55C396.98 170.55 391.64 171.91 386.84 174.62C375.12 181.24 369.2 194.53 366.61 202.39C366.99 202.02 367.4 201.65 367.84 201.3C370.78 198.89 374.51 197.3 378.64 196.68C408.93 192.13 417.47 177.42 419.18 173.65C413.37 171.59 407.91 170.56 402.83 170.56L402.82 170.55Z" fill="black"/>
<path d="M415.26 173.05C415.26 173.05 421.16 192.27 456.97 197.65C460.73 198.21 464.34 199.65 467.28 202.06C469.24 203.67 471.06 205.78 471.83 208.42C471.83 208.42 461.93 155.67 415.26 173.05Z" fill="#49962E"/>
<path d="M471.84 209.42C471.41 209.42 471.01 209.14 470.88 208.7C470.26 206.6 468.84 204.62 466.65 202.83C463.99 200.65 460.59 199.2 456.82 198.64C420.8 193.23 414.55 174.15 414.3 173.34C414.14 172.83 414.41 172.3 414.91 172.11C428.37 167.1 440.14 167.36 449.9 172.87C467.9 183.04 472.62 207.21 472.81 208.23C472.91 208.75 472.58 209.26 472.06 209.39C471.98 209.41 471.9 209.42 471.83 209.42H471.84ZM416.58 173.64C418.29 177.4 426.83 192.12 457.12 196.67C461.24 197.29 464.98 198.89 467.92 201.29C468.36 201.65 468.77 202.01 469.15 202.38C466.56 194.52 460.64 181.23 448.92 174.61C439.93 169.53 429.05 169.2 416.58 173.63V173.64Z" fill="black"/>
<path d="M416.08 172.31C408.79 173.05 405.08 181.73 409.65 187.46C414.68 193.77 424.02 199.47 439.26 204.05C442.42 205 445.56 206.32 448.08 209.05L451.3 212.55C449.01 201.52 440.28 169.86 416.09 172.31H416.08Z" fill="#49962E"/>
<path d="M451.29 213.54C451.02 213.54 450.76 213.43 450.56 213.22L447.34 209.72C444.87 207.04 441.72 205.83 438.96 205C424.47 200.64 414.35 194.94 408.87 188.08C406.51 185.12 405.99 181.23 407.48 177.68C408.99 174.1 412.16 171.73 415.97 171.34C441.18 168.8 450.11 202.09 452.25 212.36C452.34 212.79 452.13 213.23 451.74 213.44C451.6 213.51 451.44 213.55 451.29 213.55V213.54ZM416.17 173.29C413.09 173.6 410.52 175.52 409.3 178.43C408.09 181.31 408.51 184.45 410.41 186.84C415.64 193.39 425.43 198.86 439.53 203.11C442.54 204.01 445.99 205.35 448.79 208.38L449.49 209.14C446.39 196.77 437.37 171.16 416.17 173.29Z" fill="black"/>
<path d="M410.46 73.71C410.46 73.71 412.14 79.63 416.83 73.71C421.52 79.63 423.2 73.71 423.2 73.71" stroke="black" stroke-width="2" stroke-miterlimit="10" stroke-linecap="round"/>
<path d="M401.62 62.01L408.47 64.09C408.76 64.18 408.76 64.6 408.47 64.69L401.62 66.77" stroke="black" stroke-width="2" stroke-miterlimit="10" stroke-linecap="round"/>
<path d="M431.31 62.1399L424.46 64.2199C424.17 64.3099 424.17 64.7299 424.46 64.8199L431.31 66.8999" stroke="black" stroke-width="2" stroke-miterlimit="10" stroke-linecap="round"/>
</g>
<g clip-path="url(#clip3_834_8873)">
<path d="M307.08 113.36L315.67 120.46C306.53 115.44 294.31 121.26 294.31 121.26M244.84 151.97C252.82 154.85 263.48 149.27 271.78 143.34C278.17 138.77 283.84 133.28 288.86 127.23C302.81 110.44 308.38 114.5 308.38 114.5C272.58 82.25 241.22 152.3 244.84 151.97Z" fill="#49962E"/>
<path d="M307.08 113.36L315.67 120.46C306.53 115.44 294.31 121.26 294.31 121.26M244.84 151.97C252.82 154.85 263.48 149.27 271.78 143.34C278.17 138.77 283.84 133.28 288.86 127.23C302.81 110.44 308.38 114.5 308.38 114.5C272.58 82.25 241.22 152.3 244.84 151.97Z" stroke="black" stroke-width="1.79" stroke-miterlimit="10"/>
<path d="M196.32 121.26C196.32 121.26 184.1 115.44 174.96 120.46L183.55 113.36M182.25 114.5C182.25 114.5 187.82 110.43 201.77 127.23C206.79 133.27 212.46 138.77 218.85 143.34C227.16 149.28 237.81 154.85 245.79 151.97C249.4 152.31 218.05 82.2501 182.25 114.5Z" fill="#49962E"/>
<path d="M196.32 121.26C196.32 121.26 184.1 115.44 174.96 120.46L183.55 113.36M182.25 114.5C182.25 114.5 187.82 110.43 201.77 127.23C206.79 133.27 212.46 138.77 218.85 143.34C227.16 149.28 237.81 154.85 245.79 151.97C249.4 152.31 218.05 82.2501 182.25 114.5Z" stroke="black" stroke-width="1.79" stroke-miterlimit="10"/>
<path d="M248.88 84.5901H242.23V187.37H248.88V84.5901Z" fill="#49962E"/>
<path d="M249.74 188.22H241.38V83.73H249.74V188.22ZM243.09 186.51H248.03V85.45H243.09V186.51Z" fill="black"/>
<path d="M258.53 101.46C258.89 91.4099 254.39 82.2799 247.09 76.1699C239.37 81.7499 234.23 90.5299 233.87 100.58C233.51 110.63 238.01 119.76 245.31 125.87C253.03 120.29 258.17 111.51 258.53 101.46Z" fill="#FAE033"/>
<path d="M245.25 127.38L244.54 126.78C236.64 120.16 232.32 110.6 232.68 100.53C233.04 90.4699 238.04 81.2299 246.39 75.1999L247.14 74.6599L247.85 75.2599C255.75 81.8799 260.07 91.4399 259.71 101.51C259.35 111.57 254.35 120.81 246 126.84L245.25 127.38ZM247.03 77.6999C239.73 83.2999 235.38 91.5999 235.05 100.62C234.73 109.64 238.47 118.23 245.35 124.34C252.65 118.74 257 110.44 257.33 101.42C257.65 92.3999 253.91 83.8099 247.03 77.6999Z" fill="black"/>
<path d="M233.74 102.21C239.94 94.2899 241.67 84.2699 239.35 75.0299C229.83 74.9999 220.51 79.08 214.31 87C208.11 94.92 206.39 104.94 208.7 114.18C218.22 114.21 227.54 110.13 233.74 102.21Z" fill="#FAE033"/>
<path d="M209.54 115.37C209.26 115.37 208.98 115.37 208.69 115.37H207.76L207.54 114.47C205.04 104.47 207.16 94.1899 213.37 86.2599C219.58 78.3299 229.06 73.8099 239.35 73.8299H240.28L240.51 74.7299C243.01 84.7299 240.89 95.0099 234.68 102.94C228.64 110.65 219.52 115.15 209.54 115.36V115.37ZM238.41 76.2299C229.21 76.4699 220.81 80.6299 215.25 87.7399C209.69 94.8399 207.67 104 209.64 112.99C218.84 112.75 227.24 108.59 232.8 101.48C238.36 94.3699 240.38 85.2199 238.41 76.2299Z" fill="black"/>
<path d="M213.24 88.24C222.91 85.48 230.2 78.38 233.76 69.55C226.07 63.93 216.13 61.75 206.46 64.52C196.79 67.28 189.5 74.38 185.94 83.21C193.63 88.83 203.57 91.01 213.24 88.24Z" fill="#FAE033"/>
<path d="M205.41 90.6201C198.31 90.7701 191.25 88.5601 185.25 84.1701L184.5 83.6201L184.85 82.7601C188.7 73.2001 196.46 66.1301 206.15 63.3601C215.83 60.5901 226.16 62.4901 234.48 68.5801L235.23 69.1301L234.88 69.9901C231.03 79.5501 223.27 86.6201 213.58 89.3801C210.89 90.1501 208.15 90.5601 205.42 90.6201H205.41ZM187.42 82.7901C195 88.0001 204.24 89.5801 212.92 87.1001C221.6 84.6201 228.61 78.4001 232.3 69.9701C224.72 64.7601 215.47 63.1801 206.8 65.6601C198.12 68.1401 191.11 74.3601 187.42 82.7901Z" fill="black"/>
<path d="M204.87 64.8999C214.32 68.3499 224.39 66.8899 232.46 61.8399C229.54 52.7699 222.78 45.1699 213.33 41.7199C203.88 38.2699 193.81 39.7299 185.74 44.7799C188.66 53.8499 195.42 61.4499 204.87 64.8999Z" fill="#FAE033"/>
<path d="M216.19 67.9599C212.24 68.0399 208.27 67.3999 204.47 66.0099C195.01 62.5599 187.77 54.9499 184.62 45.1399L184.34 44.2599L185.13 43.7699C193.86 38.2999 204.3 37.1399 213.76 40.5999C223.22 44.0499 230.46 51.6599 233.61 61.4699L233.89 62.3499L233.1 62.8399C227.88 66.1099 222.06 67.8399 216.19 67.9599ZM187.18 45.2999C190.25 53.9799 196.8 60.6799 205.28 63.7699C213.76 66.8599 223.09 65.9599 231.02 61.2999C227.95 52.6199 221.4 45.9199 212.92 42.8299C204.44 39.7399 195.11 40.6399 187.18 45.2999Z" fill="black"/>
<path d="M211.82 41.0901C217.44 49.4301 226.44 54.1701 235.94 54.8301C238.91 45.7801 237.91 35.6601 232.29 27.3101C226.67 18.9701 217.67 14.2301 208.17 13.5701C205.2 22.6201 206.2 32.7401 211.82 41.0901Z" fill="#FAE033"/>
<path d="M236.79 56.0801L235.86 56.0201C225.58 55.3101 216.46 50.1101 210.83 41.7601C205.21 33.4001 203.82 23.0001 207.04 13.2101L207.33 12.3301L208.26 12.3901C218.54 13.1001 227.66 18.3001 233.29 26.6501C238.91 35.0101 240.3 45.4101 237.08 55.2001L236.79 56.0801ZM212.81 40.4201C217.85 47.9101 225.93 52.6601 235.09 53.5601C237.7 44.7401 236.34 35.4601 231.3 27.9801C226.26 20.4901 218.18 15.7401 209.02 14.8401C206.41 23.6601 207.77 32.9401 212.81 40.4201Z" fill="black"/>
<path d="M231.44 25.92C231.08 35.97 235.58 45.1 242.88 51.21C250.6 45.63 255.74 36.85 256.1 26.8C256.46 16.75 251.96 7.62001 244.66 1.51001C236.94 7.09001 231.8 15.87 231.44 25.92Z" fill="#FAE033"/>
<path d="M242.82 52.72L242.11 52.12C234.21 45.5 229.89 35.94 230.25 25.87C230.61 15.81 235.61 6.57 243.96 0.54L244.71 0L245.42 0.6C253.32 7.22 257.64 16.78 257.28 26.85C256.92 36.91 251.92 46.15 243.57 52.18L242.82 52.72ZM244.61 3.04C237.31 8.64 232.96 16.94 232.63 25.96C232.31 34.98 236.05 43.57 242.93 49.68C250.23 44.08 254.58 35.78 254.91 26.76C255.23 17.74 251.49 9.15 244.61 3.04Z" fill="black"/>
<path d="M256.23 25.1701C250.03 33.0901 248.3 43.1101 250.62 52.3501C260.14 52.3801 269.46 48.3001 275.66 40.3801C281.86 32.4601 283.58 22.4401 281.27 13.2001C271.75 13.1701 262.43 17.2501 256.23 25.1701Z" fill="#FAE033"/>
<path d="M251.46 53.5401C251.18 53.5401 250.9 53.5401 250.61 53.5401H249.68L249.45 52.6401C246.95 42.6401 249.07 32.3601 255.28 24.4301C261.49 16.5001 270.98 11.9801 281.26 12.0001H282.19L282.41 12.9001C284.91 22.9001 282.79 33.1801 276.58 41.1101C270.54 48.8201 261.42 53.3201 251.44 53.5301L251.46 53.5401ZM257.17 25.9001C251.61 33.0101 249.59 42.1601 251.56 51.1501C260.76 50.9101 269.16 46.7501 274.72 39.6401C280.28 32.5401 282.3 23.3801 280.33 14.3901C271.13 14.6301 262.73 18.7901 257.17 25.9001Z" fill="black"/>
<path d="M276.72 39.1401C267.05 41.9001 259.76 49.0001 256.2 57.8301C263.89 63.4501 273.83 65.6301 283.5 62.8601C293.17 60.1001 300.46 53.0001 304.02 44.1701C296.33 38.5501 286.39 36.3701 276.72 39.1401Z" fill="#FAE033"/>
<path d="M275.67 65.24C268.57 65.39 261.51 63.18 255.5 58.79L254.75 58.24L255.1 57.38C258.95 47.82 266.71 40.75 276.4 37.98C286.08 35.22 296.41 37.12 304.73 43.2L305.48 43.75L305.13 44.61C301.28 54.17 293.52 61.24 283.83 64.01C281.14 64.78 278.4 65.19 275.67 65.24ZM257.67 57.41C265.25 62.62 274.49 64.2 283.17 61.72C291.85 59.24 298.86 53.02 302.55 44.59C294.97 39.38 285.73 37.81 277.05 40.28C268.37 42.76 261.36 48.98 257.67 57.41Z" fill="black"/>
<path d="M285.09 62.4799C275.64 59.0299 265.57 60.4899 257.5 65.5399C260.42 74.6099 267.18 82.2099 276.63 85.6599C286.08 89.1099 296.15 87.6499 304.22 82.5999C301.3 73.5299 294.54 65.9299 285.09 62.4799Z" fill="#FAE033"/>
<path d="M287.95 88.7299C284 88.8099 280.03 88.1699 276.23 86.7799C266.77 83.3299 259.53 75.7199 256.38 65.9099L256.1 65.0299L256.89 64.5399C265.62 59.0699 276.06 57.9099 285.52 61.3699C294.98 64.8199 302.22 72.4299 305.37 82.2399L305.65 83.1199L304.86 83.6099C299.64 86.8799 293.82 88.6099 287.95 88.7299ZM258.94 66.0699C262.01 74.7499 268.56 81.4499 277.04 84.5399C285.52 87.6299 294.85 86.7299 302.78 82.0699C299.71 73.3899 293.16 66.6899 284.68 63.5999C276.2 60.5099 266.87 61.4099 258.94 66.0699Z" fill="black"/>
<path d="M278.14 86.29C272.52 77.95 263.52 73.21 254.02 72.55C251.05 81.6 252.05 91.72 257.67 100.07C263.29 108.41 272.29 113.15 281.79 113.81C284.76 104.76 283.76 94.64 278.14 86.29Z" fill="#FAE033"/>
<path d="M282.64 115.06L281.71 115C271.43 114.29 262.31 109.09 256.68 100.74C251.06 92.3901 249.67 81.9801 252.89 72.1901L253.18 71.3101L254.11 71.3701C264.39 72.0801 273.51 77.2801 279.14 85.6301C284.76 93.9801 286.15 104.39 282.93 114.18L282.64 115.06ZM254.88 73.8201C252.27 82.6401 253.63 91.9201 258.67 99.4001C263.71 106.89 271.79 111.64 280.95 112.54C283.56 103.72 282.2 94.4401 277.16 86.9601C272.12 79.4701 264.04 74.7201 254.88 73.8201Z" fill="black"/>
<path d="M244.98 93.17C261.261 93.17 274.46 79.9713 274.46 63.69C274.46 47.4086 261.261 34.21 244.98 34.21C228.699 34.21 215.5 47.4086 215.5 63.69C215.5 79.9713 228.699 93.17 244.98 93.17Z" fill="#C4996C"/>
<path d="M244.98 94.2499C228.13 94.2499 214.42 80.5399 214.42 63.6899C214.42 46.8399 228.13 33.1299 244.98 33.1299C261.83 33.1299 275.54 46.8399 275.54 63.6899C275.54 80.5399 261.83 94.2499 244.98 94.2499ZM244.98 35.2799C229.32 35.2799 216.57 48.0199 216.57 63.6899C216.57 79.3599 229.31 92.0999 244.98 92.0999C260.65 92.0999 273.39 79.3599 273.39 63.6899C273.39 48.0199 260.65 35.2799 244.98 35.2799Z" fill="black"/>
<path d="M227.18 72.3599C228.77 72.3599 230.06 71.7018 230.06 70.8899C230.06 70.0781 228.77 69.4199 227.18 69.4199C225.589 69.4199 224.3 70.0781 224.3 70.8899C224.3 71.7018 225.589 72.3599 227.18 72.3599Z" fill="#B37F4D"/>
<path d="M261.72 72.3599C263.31 72.3599 264.6 71.7018 264.6 70.8899C264.6 70.0781 263.31 69.4199 261.72 69.4199C260.129 69.4199 258.84 70.0781 258.84 70.8899C258.84 71.7018 260.129 72.3599 261.72 72.3599Z" fill="#B37F4D"/>
<path d="M240.22 39.6698C233.1 41.4798 227.04 46.5198 223.6 52.9598C222.62 54.7898 225.41 56.4198 226.39 54.5898C229.46 48.8498 234.73 44.3998 241.08 42.7798C243.09 42.2698 242.24 39.1498 240.22 39.6698Z" fill="#FFDFC0"/>
<path d="M221 59.1698C220.61 60.3298 220.46 61.5498 220.3 62.7598C220.25 63.1398 220.52 63.6498 220.77 63.8998C221.05 64.1798 221.51 64.3898 221.91 64.3698C222.31 64.3498 222.76 64.2098 223.05 63.8998L223.3 63.5698C223.45 63.3198 223.52 63.0498 223.52 62.7598V62.6998C223.51 62.8398 223.49 62.9898 223.47 63.1298C223.61 62.0798 223.77 61.0298 224.11 60.0198C224.24 59.6398 224.15 59.1198 223.95 58.7798C223.75 58.4398 223.37 58.1298 222.99 58.0398C222.58 57.9498 222.11 57.9698 221.75 58.1998C221.39 58.4298 221.15 58.7498 221.01 59.1598L221 59.1698Z" fill="#FFDFC0"/>
<path d="M243.94 172.31C251.23 173.05 254.94 181.73 250.37 187.46C245.34 193.77 236 199.47 220.76 204.05C217.6 205 214.46 206.32 211.94 209.05L208.72 212.55C211.01 201.52 219.74 169.86 243.93 172.31H243.94Z" fill="#49962E"/>
<path d="M208.72 213.54C208.57 213.54 208.41 213.5 208.27 213.43C207.88 213.23 207.67 212.79 207.76 212.35C209.9 202.08 218.84 168.78 244.04 171.33C247.85 171.72 251.02 174.08 252.53 177.67C254.02 181.22 253.51 185.11 251.14 188.07C245.66 194.94 235.54 200.63 221.05 204.99C218.3 205.82 215.15 207.03 212.67 209.71L209.46 213.21C209.27 213.42 209 213.53 208.73 213.53L208.72 213.54ZM241.37 173.16C221.95 173.16 213.5 197.26 210.52 209.14L211.22 208.38C214.02 205.34 217.47 204.01 220.48 203.11C234.58 198.87 244.38 193.39 249.6 186.84C251.51 184.45 251.92 181.3 250.71 178.43C249.49 175.52 246.92 173.6 243.84 173.29C243 173.21 242.17 173.16 241.37 173.16Z" fill="black"/>
<path d="M248.64 173.05C248.64 173.05 242.74 192.27 206.93 197.65C203.17 198.21 199.56 199.65 196.62 202.06C194.66 203.67 192.84 205.78 192.07 208.42C192.07 208.42 201.97 155.67 248.64 173.05Z" fill="#49962E"/>
<path d="M192.07 209.42C191.99 209.42 191.91 209.42 191.84 209.39C191.32 209.27 190.99 208.76 191.09 208.23C191.28 207.21 196 183.04 214 172.87C223.76 167.35 235.54 167.1 248.99 172.11C249.49 172.3 249.75 172.83 249.6 173.34C249.35 174.15 243.1 193.23 207.08 198.64C203.31 199.21 199.91 200.66 197.25 202.83C195.06 204.62 193.64 206.6 193.02 208.7C192.89 209.13 192.5 209.42 192.06 209.42H192.07ZM230.97 170.55C225.13 170.55 219.79 171.91 214.99 174.62C203.27 181.24 197.35 194.53 194.76 202.39C195.14 202.02 195.55 201.65 195.99 201.3C198.93 198.89 202.66 197.3 206.79 196.68C237.08 192.13 245.62 177.42 247.33 173.65C241.52 171.59 236.06 170.56 230.98 170.56L230.97 170.55Z" fill="black"/>
<path d="M243.41 173.05C243.41 173.05 249.31 192.27 285.12 197.65C288.88 198.21 292.49 199.65 295.43 202.06C297.39 203.67 299.21 205.78 299.98 208.42C299.98 208.42 290.08 155.67 243.41 173.05Z" fill="#49962E"/>
<path d="M299.99 209.42C299.56 209.42 299.16 209.14 299.03 208.7C298.41 206.6 296.99 204.62 294.8 202.83C292.14 200.65 288.74 199.2 284.97 198.64C248.95 193.23 242.7 174.15 242.45 173.34C242.29 172.83 242.56 172.3 243.06 172.11C256.52 167.1 268.29 167.36 278.05 172.87C296.05 183.04 300.77 207.21 300.96 208.23C301.06 208.75 300.73 209.26 300.21 209.39C300.13 209.41 300.05 209.42 299.98 209.42H299.99ZM244.73 173.64C246.44 177.4 254.98 192.12 285.27 196.67C289.39 197.29 293.13 198.89 296.07 201.29C296.51 201.65 296.92 202.01 297.3 202.38C294.71 194.52 288.79 181.23 277.07 174.61C268.08 169.53 257.2 169.2 244.73 173.63V173.64Z" fill="black"/>
<path d="M244.23 172.31C236.94 173.05 233.23 181.73 237.8 187.46C242.83 193.77 252.17 199.47 267.41 204.05C270.57 205 273.71 206.32 276.23 209.05L279.45 212.55C277.16 201.52 268.43 169.86 244.24 172.31H244.23Z" fill="#49962E"/>
<path d="M279.44 213.54C279.17 213.54 278.91 213.43 278.71 213.22L275.49 209.72C273.02 207.04 269.87 205.83 267.11 205C252.62 200.64 242.5 194.94 237.02 188.08C234.66 185.12 234.14 181.23 235.63 177.68C237.14 174.1 240.31 171.73 244.12 171.34C269.33 168.8 278.26 202.09 280.4 212.36C280.49 212.79 280.28 213.23 279.89 213.44C279.75 213.51 279.59 213.55 279.44 213.55V213.54ZM244.32 173.29C241.24 173.6 238.67 175.52 237.45 178.43C236.24 181.31 236.66 184.45 238.56 186.84C243.79 193.39 253.58 198.86 267.68 203.11C270.69 204.01 274.14 205.35 276.94 208.38L277.64 209.14C274.54 196.77 265.52 171.16 244.32 173.29Z" fill="black"/>
<path d="M228.33 64.5899C228.33 64.5899 232.14 58.8599 236.25 64.5899" stroke="black" stroke-width="2" stroke-miterlimit="10" stroke-linecap="round"/>
<path d="M253.54 64.5899C253.54 64.5899 257.35 58.8599 261.46 64.5899" stroke="black" stroke-width="2" stroke-miterlimit="10" stroke-linecap="round"/>
<path d="M249.06 73.3899C249.06 73.3899 245.25 79.1199 241.14 73.3899" stroke="black" stroke-width="2" stroke-miterlimit="10" stroke-linecap="round"/>
</g>
<defs>
<clipPath id="clip0_834_8873">
<rect width="144.39" height="213.54" fill="white"/>
</clipPath>
<clipPath id="clip1_834_8873">
<rect width="132.18" height="213.54" fill="white" transform="translate(515.47)"/>
</clipPath>
<clipPath id="clip2_834_8873">
<rect width="139.23" height="213.54" fill="white" transform="translate(346.24)"/>
</clipPath>
<clipPath id="clip3_834_8873">
<rect width="141.85" height="213.54" fill="white" transform="translate(174.39)"/>
</clipPath>
</defs>
</svg>
