<svg width="432" height="271" viewBox="0 0 432 271" fill="none" xmlns="http://www.w3.org/2000/svg">
<path d="M2.86891 20.16C2.48224 20.16 2.18224 20.0533 1.96891 19.84C1.76891 19.6267 1.66891 19.32 1.66891 18.92V7.02C1.66891 6.60667 1.76891 6.29333 1.96891 6.08C2.18224 5.85333 2.45557 5.74 2.78891 5.74C3.09557 5.74 3.32224 5.8 3.46891 5.92C3.62891 6.02667 3.81557 6.21333 4.02891 6.48L11.6889 16.42H11.1689V6.96C11.1689 6.57333 11.2689 6.27333 11.4689 6.06C11.6822 5.84667 11.9822 5.74 12.3689 5.74C12.7556 5.74 13.0489 5.84667 13.2489 6.06C13.4489 6.27333 13.5489 6.57333 13.5489 6.96V18.96C13.5489 19.3333 13.4556 19.6267 13.2689 19.84C13.0822 20.0533 12.8289 20.16 12.5089 20.16C12.2022 20.16 11.9556 20.1 11.7689 19.98C11.5956 19.86 11.4022 19.6667 11.1889 19.4L3.54891 9.46H4.04891V18.92C4.04891 19.32 3.94891 19.6267 3.74891 19.84C3.54891 20.0533 3.25557 20.16 2.86891 20.16ZM19.6098 20.2C18.9032 20.2 18.2698 20.0667 17.7098 19.8C17.1632 19.52 16.7298 19.1467 16.4098 18.68C16.1032 18.2133 15.9498 17.6867 15.9498 17.1C15.9498 16.38 16.1365 15.8133 16.5098 15.4C16.8832 14.9733 17.4898 14.6667 18.3298 14.48C19.1698 14.2933 20.2965 14.2 21.7098 14.2H22.7098V15.64H21.7298C20.9032 15.64 20.2432 15.68 19.7498 15.76C19.2565 15.84 18.9032 15.98 18.6898 16.18C18.4898 16.3667 18.3898 16.6333 18.3898 16.98C18.3898 17.42 18.5432 17.78 18.8498 18.06C19.1565 18.34 19.5832 18.48 20.1298 18.48C20.5698 18.48 20.9565 18.38 21.2898 18.18C21.6365 17.9667 21.9098 17.68 22.1098 17.32C22.3098 16.96 22.4098 16.5467 22.4098 16.08V13.78C22.4098 13.1133 22.2632 12.6333 21.9698 12.34C21.6765 12.0467 21.1832 11.9 20.4898 11.9C20.1032 11.9 19.6832 11.9467 19.2298 12.04C18.7898 12.1333 18.3232 12.2933 17.8298 12.52C17.5765 12.64 17.3498 12.6733 17.1498 12.62C16.9632 12.5667 16.8165 12.46 16.7098 12.3C16.6032 12.1267 16.5498 11.94 16.5498 11.74C16.5498 11.54 16.6032 11.3467 16.7098 11.16C16.8165 10.96 16.9965 10.8133 17.2498 10.72C17.8632 10.4667 18.4498 10.2867 19.0098 10.18C19.5832 10.0733 20.1032 10.02 20.5698 10.02C21.5298 10.02 22.3165 10.1667 22.9298 10.46C23.5565 10.7533 24.0232 11.2 24.3298 11.8C24.6365 12.3867 24.7898 13.1467 24.7898 14.08V18.88C24.7898 19.2933 24.6898 19.6133 24.4898 19.84C24.2898 20.0533 24.0032 20.16 23.6298 20.16C23.2565 20.16 22.9632 20.0533 22.7498 19.84C22.5498 19.6133 22.4498 19.2933 22.4498 18.88V17.92H22.6098C22.5165 18.3867 22.3298 18.7933 22.0498 19.14C21.7832 19.4733 21.4432 19.7333 21.0298 19.92C20.6165 20.1067 20.1432 20.2 19.6098 20.2ZM31.1897 20.16C30.8564 20.16 30.563 20.0733 30.3097 19.9C30.0697 19.7267 29.8697 19.46 29.7097 19.1L26.5297 11.72C26.4097 11.4267 26.363 11.1533 26.3897 10.9C26.4297 10.6467 26.5497 10.4467 26.7497 10.3C26.963 10.14 27.2497 10.06 27.6097 10.06C27.9164 10.06 28.163 10.1333 28.3497 10.28C28.5364 10.4133 28.703 10.6733 28.8497 11.06L31.5497 17.8H30.9497L33.7297 11.04C33.8764 10.6667 34.043 10.4133 34.2297 10.28C34.4297 10.1333 34.6964 10.06 35.0297 10.06C35.323 10.06 35.5564 10.14 35.7297 10.3C35.903 10.4467 36.0097 10.6467 36.0497 10.9C36.0897 11.14 36.043 11.4067 35.9097 11.7L32.6697 19.1C32.523 19.46 32.323 19.7267 32.0697 19.9C31.8297 20.0733 31.5364 20.16 31.1897 20.16ZM39.0166 20.14C38.6166 20.14 38.3099 20.02 38.0966 19.78C37.8832 19.54 37.7766 19.2067 37.7766 18.78V11.44C37.7766 11 37.8832 10.6667 38.0966 10.44C38.3099 10.2 38.6166 10.08 39.0166 10.08C39.4166 10.08 39.7232 10.2 39.9366 10.44C40.1632 10.6667 40.2766 11 40.2766 11.44V18.78C40.2766 19.2067 40.1699 19.54 39.9566 19.78C39.7432 20.02 39.4299 20.14 39.0166 20.14ZM39.0166 8.22C38.5499 8.22 38.1832 8.10667 37.9166 7.88C37.6632 7.64 37.5366 7.31333 37.5366 6.9C37.5366 6.47333 37.6632 6.14667 37.9166 5.92C38.1832 5.69333 38.5499 5.58 39.0166 5.58C39.4966 5.58 39.8632 5.69333 40.1166 5.92C40.3699 6.14667 40.4966 6.47333 40.4966 6.9C40.4966 7.31333 40.3699 7.64 40.1166 7.88C39.8632 8.10667 39.4966 8.22 39.0166 8.22ZM47.4342 23.8C46.7142 23.8 46.0142 23.7333 45.3342 23.6C44.6676 23.4667 44.0609 23.26 43.5142 22.98C43.2609 22.8467 43.0876 22.6867 42.9942 22.5C42.9142 22.3133 42.8876 22.12 42.9142 21.92C42.9542 21.7333 43.0342 21.5667 43.1542 21.42C43.2876 21.2733 43.4476 21.1733 43.6342 21.12C43.8209 21.0667 44.0142 21.0933 44.2142 21.2C44.8009 21.4933 45.3542 21.68 45.8742 21.76C46.4076 21.8533 46.8609 21.9 47.2342 21.9C48.1276 21.9 48.7942 21.68 49.2342 21.24C49.6876 20.8133 49.9142 20.1733 49.9142 19.32V17.52H50.0942C49.8942 18.2 49.4742 18.7467 48.8342 19.16C48.2076 19.56 47.4942 19.76 46.6942 19.76C45.8142 19.76 45.0476 19.56 44.3942 19.16C43.7409 18.7467 43.2342 18.1733 42.8742 17.44C42.5142 16.7067 42.3342 15.8533 42.3342 14.88C42.3342 14.1467 42.4342 13.4867 42.6342 12.9C42.8476 12.3 43.1409 11.7867 43.5142 11.36C43.9009 10.9333 44.3609 10.6067 44.8942 10.38C45.4409 10.14 46.0409 10.02 46.6942 10.02C47.5209 10.02 48.2409 10.2267 48.8542 10.64C49.4809 11.04 49.8876 11.5733 50.0742 12.24L49.8742 12.74V11.32C49.8742 10.9067 49.9809 10.5933 50.1942 10.38C50.4209 10.1667 50.7276 10.06 51.1142 10.06C51.5142 10.06 51.8209 10.1667 52.0342 10.38C52.2476 10.5933 52.3542 10.9067 52.3542 11.32V19.02C52.3542 20.6067 51.9342 21.8 51.0942 22.6C50.2542 23.4 49.0342 23.8 47.4342 23.8ZM47.3742 17.86C47.8942 17.86 48.3409 17.74 48.7142 17.5C49.0876 17.26 49.3742 16.92 49.5742 16.48C49.7876 16.0267 49.8942 15.4933 49.8942 14.88C49.8942 13.96 49.6676 13.24 49.2142 12.72C48.7609 12.1867 48.1476 11.92 47.3742 11.92C46.8542 11.92 46.4076 12.04 46.0342 12.28C45.6609 12.52 45.3676 12.86 45.1542 13.3C44.9542 13.74 44.8542 14.2667 44.8542 14.88C44.8542 15.8 45.0809 16.5267 45.5342 17.06C45.9876 17.5933 46.6009 17.86 47.3742 17.86ZM58.1645 20.2C57.4579 20.2 56.8245 20.0667 56.2645 19.8C55.7179 19.52 55.2845 19.1467 54.9645 18.68C54.6579 18.2133 54.5045 17.6867 54.5045 17.1C54.5045 16.38 54.6912 15.8133 55.0645 15.4C55.4379 14.9733 56.0445 14.6667 56.8845 14.48C57.7245 14.2933 58.8512 14.2 60.2645 14.2H61.2645V15.64H60.2845C59.4579 15.64 58.7979 15.68 58.3045 15.76C57.8112 15.84 57.4579 15.98 57.2445 16.18C57.0445 16.3667 56.9445 16.6333 56.9445 16.98C56.9445 17.42 57.0979 17.78 57.4045 18.06C57.7112 18.34 58.1379 18.48 58.6845 18.48C59.1245 18.48 59.5112 18.38 59.8445 18.18C60.1912 17.9667 60.4645 17.68 60.6645 17.32C60.8645 16.96 60.9645 16.5467 60.9645 16.08V13.78C60.9645 13.1133 60.8179 12.6333 60.5245 12.34C60.2312 12.0467 59.7379 11.9 59.0445 11.9C58.6579 11.9 58.2379 11.9467 57.7845 12.04C57.3445 12.1333 56.8779 12.2933 56.3845 12.52C56.1312 12.64 55.9045 12.6733 55.7045 12.62C55.5179 12.5667 55.3712 12.46 55.2645 12.3C55.1579 12.1267 55.1045 11.94 55.1045 11.74C55.1045 11.54 55.1579 11.3467 55.2645 11.16C55.3712 10.96 55.5512 10.8133 55.8045 10.72C56.4179 10.4667 57.0045 10.2867 57.5645 10.18C58.1379 10.0733 58.6579 10.02 59.1245 10.02C60.0845 10.02 60.8712 10.1667 61.4845 10.46C62.1112 10.7533 62.5779 11.2 62.8845 11.8C63.1912 12.3867 63.3445 13.1467 63.3445 14.08V18.88C63.3445 19.2933 63.2445 19.6133 63.0445 19.84C62.8445 20.0533 62.5579 20.16 62.1845 20.16C61.8112 20.16 61.5179 20.0533 61.3045 19.84C61.1045 19.6133 61.0045 19.2933 61.0045 18.88V17.92H61.1645C61.0712 18.3867 60.8845 18.7933 60.6045 19.14C60.3379 19.4733 59.9979 19.7333 59.5845 19.92C59.1712 20.1067 58.6979 20.2 58.1645 20.2ZM70.362 20.2C69.4954 20.2 68.7687 20.0533 68.182 19.76C67.6087 19.4667 67.182 19.04 66.902 18.48C66.622 17.9067 66.482 17.2 66.482 16.36V12.1H65.442C65.122 12.1 64.8754 12.02 64.702 11.86C64.5287 11.6867 64.442 11.4533 64.442 11.16C64.442 10.8533 64.5287 10.62 64.702 10.46C64.8754 10.3 65.122 10.22 65.442 10.22H66.482V8.4C66.482 7.98667 66.5887 7.67333 66.802 7.46C67.0287 7.24667 67.342 7.14 67.742 7.14C68.142 7.14 68.4487 7.24667 68.662 7.46C68.8754 7.67333 68.982 7.98667 68.982 8.4V10.22H71.102C71.422 10.22 71.6687 10.3 71.842 10.46C72.0154 10.62 72.102 10.8533 72.102 11.16C72.102 11.4533 72.0154 11.6867 71.842 11.86C71.6687 12.02 71.422 12.1 71.102 12.1H68.982V16.22C68.982 16.86 69.122 17.34 69.402 17.66C69.682 17.98 70.1354 18.14 70.762 18.14C70.9887 18.14 71.1887 18.12 71.362 18.08C71.5354 18.04 71.6887 18.0133 71.822 18C71.982 17.9867 72.1154 18.04 72.222 18.16C72.3287 18.2667 72.382 18.4933 72.382 18.84C72.382 19.1067 72.3354 19.3467 72.242 19.56C72.162 19.76 72.0087 19.9 71.782 19.98C71.6087 20.0333 71.382 20.08 71.102 20.12C70.822 20.1733 70.5754 20.2 70.362 20.2ZM75.0517 20.14C74.6517 20.14 74.3451 20.02 74.1317 19.78C73.9184 19.54 73.8117 19.2067 73.8117 18.78V11.44C73.8117 11 73.9184 10.6667 74.1317 10.44C74.3451 10.2 74.6517 10.08 75.0517 10.08C75.4517 10.08 75.7584 10.2 75.9717 10.44C76.1984 10.6667 76.3117 11 76.3117 11.44V18.78C76.3117 19.2067 76.2051 19.54 75.9917 19.78C75.7784 20.02 75.4651 20.14 75.0517 20.14ZM75.0517 8.22C74.5851 8.22 74.2184 8.10667 73.9517 7.88C73.6984 7.64 73.5717 7.31333 73.5717 6.9C73.5717 6.47333 73.6984 6.14667 73.9517 5.92C74.2184 5.69333 74.5851 5.58 75.0517 5.58C75.5317 5.58 75.8984 5.69333 76.1517 5.92C76.4051 6.14667 76.5317 6.47333 76.5317 6.9C76.5317 7.31333 76.4051 7.64 76.1517 7.88C75.8984 8.10667 75.5317 8.22 75.0517 8.22ZM83.3694 20.2C82.356 20.2 81.476 19.9933 80.7294 19.58C79.9827 19.1667 79.4027 18.58 78.9894 17.82C78.576 17.0467 78.3694 16.14 78.3694 15.1C78.3694 14.3133 78.4827 13.6133 78.7094 13C78.9494 12.3733 79.2894 11.84 79.7294 11.4C80.1694 10.9467 80.696 10.6067 81.3094 10.38C81.9227 10.14 82.6094 10.02 83.3694 10.02C84.3827 10.02 85.2627 10.2267 86.0094 10.64C86.756 11.0533 87.336 11.64 87.7494 12.4C88.1627 13.16 88.3694 14.06 88.3694 15.1C88.3694 15.8867 88.2494 16.5933 88.0094 17.22C87.7827 17.8467 87.4494 18.3867 87.0094 18.84C86.5694 19.28 86.0427 19.62 85.4294 19.86C84.816 20.0867 84.1294 20.2 83.3694 20.2ZM83.3694 18.3C83.8627 18.3 84.296 18.18 84.6694 17.94C85.0427 17.7 85.3294 17.3467 85.5294 16.88C85.7427 16.4 85.8494 15.8067 85.8494 15.1C85.8494 14.0333 85.6227 13.24 85.1694 12.72C84.716 12.1867 84.116 11.92 83.3694 11.92C82.876 11.92 82.4427 12.04 82.0694 12.28C81.696 12.5067 81.4027 12.86 81.1894 13.34C80.9894 13.8067 80.8894 14.3933 80.8894 15.1C80.8894 16.1533 81.116 16.9533 81.5694 17.5C82.0227 18.0333 82.6227 18.3 83.3694 18.3ZM91.6728 20.16C91.2728 20.16 90.9661 20.0533 90.7528 19.84C90.5395 19.6133 90.4328 19.2933 90.4328 18.88V11.32C90.4328 10.9067 90.5395 10.5933 90.7528 10.38C90.9661 10.1667 91.2661 10.06 91.6528 10.06C92.0395 10.06 92.3395 10.1667 92.5528 10.38C92.7661 10.5933 92.8728 10.9067 92.8728 11.32V12.68L92.6528 12.18C92.9461 11.4733 93.3995 10.94 94.0128 10.58C94.6395 10.2067 95.3461 10.02 96.1328 10.02C96.9195 10.02 97.5661 10.1667 98.0728 10.46C98.5795 10.7533 98.9595 11.2 99.2128 11.8C99.4661 12.3867 99.5928 13.1333 99.5928 14.04V18.88C99.5928 19.2933 99.4861 19.6133 99.2728 19.84C99.0595 20.0533 98.7528 20.16 98.3528 20.16C97.9528 20.16 97.6395 20.0533 97.4128 19.84C97.1995 19.6133 97.0928 19.2933 97.0928 18.88V14.16C97.0928 13.4 96.9461 12.8467 96.6528 12.5C96.3728 12.1533 95.9328 11.98 95.3328 11.98C94.5995 11.98 94.0128 12.2133 93.5728 12.68C93.1461 13.1333 92.9328 13.74 92.9328 14.5V18.88C92.9328 19.7333 92.5128 20.16 91.6728 20.16ZM110.782 20.2C110.075 20.2 109.442 20.0667 108.882 19.8C108.335 19.52 107.902 19.1467 107.582 18.68C107.275 18.2133 107.122 17.6867 107.122 17.1C107.122 16.38 107.308 15.8133 107.682 15.4C108.055 14.9733 108.662 14.6667 109.502 14.48C110.342 14.2933 111.468 14.2 112.882 14.2H113.882V15.64H112.902C112.075 15.64 111.415 15.68 110.922 15.76C110.428 15.84 110.075 15.98 109.862 16.18C109.662 16.3667 109.562 16.6333 109.562 16.98C109.562 17.42 109.715 17.78 110.022 18.06C110.328 18.34 110.755 18.48 111.302 18.48C111.742 18.48 112.128 18.38 112.462 18.18C112.808 17.9667 113.082 17.68 113.282 17.32C113.482 16.96 113.582 16.5467 113.582 16.08V13.78C113.582 13.1133 113.435 12.6333 113.142 12.34C112.848 12.0467 112.355 11.9 111.662 11.9C111.275 11.9 110.855 11.9467 110.402 12.04C109.962 12.1333 109.495 12.2933 109.002 12.52C108.748 12.64 108.522 12.6733 108.322 12.62C108.135 12.5667 107.988 12.46 107.882 12.3C107.775 12.1267 107.722 11.94 107.722 11.74C107.722 11.54 107.775 11.3467 107.882 11.16C107.988 10.96 108.168 10.8133 108.422 10.72C109.035 10.4667 109.622 10.2867 110.182 10.18C110.755 10.0733 111.275 10.02 111.742 10.02C112.702 10.02 113.488 10.1667 114.102 10.46C114.728 10.7533 115.195 11.2 115.502 11.8C115.808 12.3867 115.962 13.1467 115.962 14.08V18.88C115.962 19.2933 115.862 19.6133 115.662 19.84C115.462 20.0533 115.175 20.16 114.802 20.16C114.428 20.16 114.135 20.0533 113.922 19.84C113.722 19.6133 113.622 19.2933 113.622 18.88V17.92H113.782C113.688 18.3867 113.502 18.7933 113.222 19.14C112.955 19.4733 112.615 19.7333 112.202 19.92C111.788 20.1067 111.315 20.2 110.782 20.2ZM119.739 20.16C119.339 20.16 119.033 20.0533 118.819 19.84C118.606 19.6133 118.499 19.2933 118.499 18.88V11.32C118.499 10.9067 118.606 10.5933 118.819 10.38C119.033 10.1667 119.333 10.06 119.719 10.06C120.106 10.06 120.406 10.1667 120.619 10.38C120.833 10.5933 120.939 10.9067 120.939 11.32V12.68L120.719 12.18C121.013 11.4733 121.466 10.94 122.079 10.58C122.706 10.2067 123.413 10.02 124.199 10.02C124.986 10.02 125.633 10.1667 126.139 10.46C126.646 10.7533 127.026 11.2 127.279 11.8C127.533 12.3867 127.659 13.1333 127.659 14.04V18.88C127.659 19.2933 127.553 19.6133 127.339 19.84C127.126 20.0533 126.819 20.16 126.419 20.16C126.019 20.16 125.706 20.0533 125.479 19.84C125.266 19.6133 125.159 19.2933 125.159 18.88V14.16C125.159 13.4 125.013 12.8467 124.719 12.5C124.439 12.1533 123.999 11.98 123.399 11.98C122.666 11.98 122.079 12.2133 121.639 12.68C121.213 13.1333 120.999 13.74 120.999 14.5V18.88C120.999 19.7333 120.579 20.16 119.739 20.16ZM133.958 20.2C133.105 20.2 132.352 19.9933 131.698 19.58C131.058 19.1667 130.558 18.58 130.198 17.82C129.838 17.0467 129.658 16.14 129.658 15.1C129.658 14.0467 129.838 13.1467 130.198 12.4C130.558 11.64 131.058 11.0533 131.698 10.64C132.352 10.2267 133.105 10.02 133.958 10.02C134.772 10.02 135.478 10.22 136.078 10.62C136.692 11.02 137.105 11.5467 137.318 12.2H137.098V7C137.098 6.58667 137.205 6.27333 137.418 6.06C137.632 5.84667 137.938 5.74 138.338 5.74C138.738 5.74 139.045 5.84667 139.258 6.06C139.485 6.27333 139.598 6.58667 139.598 7V18.88C139.598 19.2933 139.492 19.6133 139.278 19.84C139.065 20.0533 138.758 20.16 138.358 20.16C137.958 20.16 137.652 20.0533 137.438 19.84C137.225 19.6133 137.118 19.2933 137.118 18.88V17.32L137.338 17.92C137.138 18.6133 136.732 19.1667 136.118 19.58C135.505 19.9933 134.785 20.2 133.958 20.2ZM134.658 18.3C135.152 18.3 135.585 18.18 135.958 17.94C136.332 17.7 136.618 17.3467 136.818 16.88C137.032 16.4 137.138 15.8067 137.138 15.1C137.138 14.0333 136.912 13.24 136.458 12.72C136.005 12.1867 135.405 11.92 134.658 11.92C134.165 11.92 133.732 12.04 133.358 12.28C132.985 12.5067 132.692 12.86 132.478 13.34C132.278 13.8067 132.178 14.3933 132.178 15.1C132.178 16.1533 132.405 16.9533 132.858 17.5C133.312 18.0333 133.912 18.3 134.658 18.3ZM152.54 20.16C152.127 20.16 151.807 20.0467 151.58 19.82C151.367 19.58 151.26 19.2533 151.26 18.84V8.04H147.36C147.014 8.04 146.74 7.94667 146.54 7.76C146.354 7.56 146.26 7.29333 146.26 6.96C146.26 6.61333 146.354 6.35333 146.54 6.18C146.74 5.99333 147.014 5.9 147.36 5.9H157.72C158.067 5.9 158.334 5.99333 158.52 6.18C158.72 6.35333 158.82 6.61333 158.82 6.96C158.82 7.29333 158.72 7.56 158.52 7.76C158.334 7.94667 158.067 8.04 157.72 8.04H153.82V18.84C153.82 19.2533 153.714 19.58 153.5 19.82C153.287 20.0467 152.967 20.16 152.54 20.16ZM161.7 20.2C160.993 20.2 160.36 20.0667 159.8 19.8C159.253 19.52 158.82 19.1467 158.5 18.68C158.193 18.2133 158.04 17.6867 158.04 17.1C158.04 16.38 158.226 15.8133 158.6 15.4C158.973 14.9733 159.58 14.6667 160.42 14.48C161.26 14.2933 162.386 14.2 163.8 14.2H164.8V15.64H163.82C162.993 15.64 162.333 15.68 161.84 15.76C161.346 15.84 160.993 15.98 160.78 16.18C160.58 16.3667 160.48 16.6333 160.48 16.98C160.48 17.42 160.633 17.78 160.94 18.06C161.246 18.34 161.673 18.48 162.22 18.48C162.66 18.48 163.046 18.38 163.38 18.18C163.726 17.9667 164 17.68 164.2 17.32C164.4 16.96 164.5 16.5467 164.5 16.08V13.78C164.5 13.1133 164.353 12.6333 164.06 12.34C163.766 12.0467 163.273 11.9 162.58 11.9C162.193 11.9 161.773 11.9467 161.32 12.04C160.88 12.1333 160.413 12.2933 159.92 12.52C159.666 12.64 159.44 12.6733 159.24 12.62C159.053 12.5667 158.906 12.46 158.8 12.3C158.693 12.1267 158.64 11.94 158.64 11.74C158.64 11.54 158.693 11.3467 158.8 11.16C158.906 10.96 159.086 10.8133 159.34 10.72C159.953 10.4667 160.54 10.2867 161.1 10.18C161.673 10.0733 162.193 10.02 162.66 10.02C163.62 10.02 164.406 10.1667 165.02 10.46C165.646 10.7533 166.113 11.2 166.42 11.8C166.726 12.3867 166.88 13.1467 166.88 14.08V18.88C166.88 19.2933 166.78 19.6133 166.58 19.84C166.38 20.0533 166.093 20.16 165.72 20.16C165.346 20.16 165.053 20.0533 164.84 19.84C164.64 19.6133 164.54 19.2933 164.54 18.88V17.92H164.7C164.606 18.3867 164.42 18.7933 164.14 19.14C163.873 19.4733 163.533 19.7333 163.12 19.92C162.706 20.1067 162.233 20.2 161.7 20.2ZM175.057 20.2C174.231 20.2 173.504 19.9933 172.877 19.58C172.264 19.1667 171.857 18.6133 171.657 17.92L171.877 17.42V18.88C171.877 19.2933 171.771 19.6133 171.557 19.84C171.344 20.0533 171.044 20.16 170.657 20.16C170.257 20.16 169.951 20.0533 169.737 19.84C169.524 19.6133 169.417 19.2933 169.417 18.88V7C169.417 6.58667 169.524 6.27333 169.737 6.06C169.951 5.84667 170.257 5.74 170.657 5.74C171.057 5.74 171.364 5.84667 171.577 6.06C171.804 6.27333 171.917 6.58667 171.917 7V12.2H171.677C171.891 11.5467 172.304 11.02 172.917 10.62C173.531 10.22 174.244 10.02 175.057 10.02C175.924 10.02 176.677 10.2267 177.317 10.64C177.957 11.0533 178.457 11.64 178.817 12.4C179.177 13.1467 179.357 14.0467 179.357 15.1C179.357 16.14 179.177 17.0467 178.817 17.82C178.457 18.58 177.951 19.1667 177.297 19.58C176.657 19.9933 175.911 20.2 175.057 20.2ZM174.357 18.3C174.851 18.3 175.284 18.18 175.657 17.94C176.031 17.7 176.317 17.3467 176.517 16.88C176.731 16.4 176.837 15.8067 176.837 15.1C176.837 14.0333 176.611 13.24 176.157 12.72C175.704 12.1867 175.104 11.92 174.357 11.92C173.864 11.92 173.431 12.04 173.057 12.28C172.684 12.5067 172.391 12.86 172.177 13.34C171.977 13.8067 171.877 14.3933 171.877 15.1C171.877 16.1533 172.104 16.9533 172.557 17.5C173.011 18.0333 173.611 18.3 174.357 18.3ZM187.049 20.2C186.223 20.2 185.496 19.9933 184.869 19.58C184.256 19.1667 183.849 18.6133 183.649 17.92L183.869 17.42V18.88C183.869 19.2933 183.763 19.6133 183.549 19.84C183.336 20.0533 183.036 20.16 182.649 20.16C182.249 20.16 181.943 20.0533 181.729 19.84C181.516 19.6133 181.409 19.2933 181.409 18.88V7C181.409 6.58667 181.516 6.27333 181.729 6.06C181.943 5.84667 182.249 5.74 182.649 5.74C183.049 5.74 183.356 5.84667 183.569 6.06C183.796 6.27333 183.909 6.58667 183.909 7V12.2H183.669C183.883 11.5467 184.296 11.02 184.909 10.62C185.523 10.22 186.236 10.02 187.049 10.02C187.916 10.02 188.669 10.2267 189.309 10.64C189.949 11.0533 190.449 11.64 190.809 12.4C191.169 13.1467 191.349 14.0467 191.349 15.1C191.349 16.14 191.169 17.0467 190.809 17.82C190.449 18.58 189.943 19.1667 189.289 19.58C188.649 19.9933 187.903 20.2 187.049 20.2ZM186.349 18.3C186.843 18.3 187.276 18.18 187.649 17.94C188.023 17.7 188.309 17.3467 188.509 16.88C188.723 16.4 188.829 15.8067 188.829 15.1C188.829 14.0333 188.603 13.24 188.149 12.72C187.696 12.1867 187.096 11.92 186.349 11.92C185.856 11.92 185.423 12.04 185.049 12.28C184.676 12.5067 184.383 12.86 184.169 13.34C183.969 13.8067 183.869 14.3933 183.869 15.1C183.869 16.1533 184.096 16.9533 184.549 17.5C185.003 18.0333 185.603 18.3 186.349 18.3ZM196.622 20.2C195.915 20.2 195.282 20.0667 194.722 19.8C194.175 19.52 193.742 19.1467 193.422 18.68C193.115 18.2133 192.962 17.6867 192.962 17.1C192.962 16.38 193.148 15.8133 193.522 15.4C193.895 14.9733 194.502 14.6667 195.342 14.48C196.182 14.2933 197.308 14.2 198.722 14.2H199.722V15.64H198.742C197.915 15.64 197.255 15.68 196.762 15.76C196.268 15.84 195.915 15.98 195.702 16.18C195.502 16.3667 195.402 16.6333 195.402 16.98C195.402 17.42 195.555 17.78 195.862 18.06C196.168 18.34 196.595 18.48 197.142 18.48C197.582 18.48 197.968 18.38 198.302 18.18C198.648 17.9667 198.922 17.68 199.122 17.32C199.322 16.96 199.422 16.5467 199.422 16.08V13.78C199.422 13.1133 199.275 12.6333 198.982 12.34C198.688 12.0467 198.195 11.9 197.502 11.9C197.115 11.9 196.695 11.9467 196.242 12.04C195.802 12.1333 195.335 12.2933 194.842 12.52C194.588 12.64 194.362 12.6733 194.162 12.62C193.975 12.5667 193.828 12.46 193.722 12.3C193.615 12.1267 193.562 11.94 193.562 11.74C193.562 11.54 193.615 11.3467 193.722 11.16C193.828 10.96 194.008 10.8133 194.262 10.72C194.875 10.4667 195.462 10.2867 196.022 10.18C196.595 10.0733 197.115 10.02 197.582 10.02C198.542 10.02 199.328 10.1667 199.942 10.46C200.568 10.7533 201.035 11.2 201.342 11.8C201.648 12.3867 201.802 13.1467 201.802 14.08V18.88C201.802 19.2933 201.702 19.6133 201.502 19.84C201.302 20.0533 201.015 20.16 200.642 20.16C200.268 20.16 199.975 20.0533 199.762 19.84C199.562 19.6133 199.462 19.2933 199.462 18.88V17.92H199.622C199.528 18.3867 199.342 18.7933 199.062 19.14C198.795 19.4733 198.455 19.7333 198.042 19.92C197.628 20.1067 197.155 20.2 196.622 20.2ZM205.619 20.16C205.206 20.16 204.886 20.0533 204.659 19.84C204.446 19.6133 204.339 19.2933 204.339 18.88V11.32C204.339 10.9067 204.446 10.5933 204.659 10.38C204.872 10.1667 205.172 10.06 205.559 10.06C205.946 10.06 206.246 10.1667 206.459 10.38C206.672 10.5933 206.779 10.9067 206.779 11.32V12.58H206.579C206.766 11.78 207.132 11.1733 207.679 10.76C208.226 10.3467 208.952 10.1 209.859 10.02C210.139 9.99333 210.359 10.0667 210.519 10.24C210.692 10.4 210.792 10.6533 210.819 11C210.846 11.3333 210.766 11.6067 210.579 11.82C210.406 12.02 210.139 12.14 209.779 12.18L209.339 12.22C208.526 12.3 207.912 12.5533 207.499 12.98C207.086 13.3933 206.879 13.98 206.879 14.74V18.88C206.879 19.2933 206.772 19.6133 206.559 19.84C206.346 20.0533 206.032 20.16 205.619 20.16Z" fill="black"/>
<rect width="430" height="98" transform="translate(0 49)" fill="#C9F5FF"/>
<path d="M144.96 131.32C142.613 131.32 140.597 130.851 138.912 129.912C137.248 128.952 135.968 127.608 135.072 125.88C134.176 124.131 133.728 122.072 133.728 119.704C133.728 117.933 133.984 116.344 134.496 114.936C135.008 113.507 135.744 112.291 136.704 111.288C137.664 110.264 138.837 109.485 140.224 108.952C141.632 108.397 143.211 108.12 144.96 108.12C146.133 108.12 147.285 108.269 148.416 108.568C149.547 108.867 150.539 109.293 151.392 109.848C151.84 110.125 152.139 110.467 152.288 110.872C152.437 111.256 152.469 111.64 152.384 112.024C152.299 112.387 152.117 112.696 151.84 112.952C151.584 113.208 151.253 113.357 150.848 113.4C150.464 113.421 150.037 113.283 149.568 112.984C148.907 112.557 148.192 112.248 147.424 112.056C146.656 111.864 145.877 111.768 145.088 111.768C143.573 111.768 142.293 112.077 141.248 112.696C140.203 113.315 139.413 114.211 138.88 115.384C138.347 116.557 138.08 117.997 138.08 119.704C138.08 121.389 138.347 122.829 138.88 124.024C139.413 125.219 140.203 126.125 141.248 126.744C142.293 127.363 143.573 127.672 145.088 127.672C145.899 127.672 146.699 127.576 147.488 127.384C148.277 127.171 149.024 126.851 149.728 126.424C150.197 126.147 150.613 126.029 150.976 126.072C151.36 126.093 151.68 126.221 151.936 126.456C152.192 126.691 152.363 126.989 152.448 127.352C152.533 127.693 152.512 128.056 152.384 128.44C152.256 128.803 152 129.123 151.616 129.4C150.763 130.019 149.739 130.499 148.544 130.84C147.371 131.16 146.176 131.32 144.96 131.32ZM160.42 131.32C159.289 131.32 158.276 131.107 157.38 130.68C156.505 130.232 155.812 129.635 155.299 128.888C154.809 128.141 154.564 127.299 154.564 126.36C154.564 125.208 154.862 124.301 155.46 123.64C156.057 122.957 157.028 122.467 158.372 122.168C159.716 121.869 161.518 121.72 163.78 121.72H165.38V124.024H163.812C162.489 124.024 161.433 124.088 160.644 124.216C159.854 124.344 159.289 124.568 158.948 124.888C158.628 125.187 158.468 125.613 158.468 126.168C158.468 126.872 158.713 127.448 159.204 127.896C159.694 128.344 160.377 128.568 161.252 128.568C161.956 128.568 162.574 128.408 163.108 128.088C163.662 127.747 164.1 127.288 164.42 126.712C164.74 126.136 164.9 125.475 164.9 124.728V121.048C164.9 119.981 164.665 119.213 164.196 118.744C163.726 118.275 162.937 118.04 161.828 118.04C161.209 118.04 160.537 118.115 159.812 118.264C159.108 118.413 158.361 118.669 157.572 119.032C157.166 119.224 156.804 119.277 156.484 119.192C156.185 119.107 155.95 118.936 155.78 118.68C155.609 118.403 155.524 118.104 155.524 117.784C155.524 117.464 155.609 117.155 155.78 116.856C155.95 116.536 156.238 116.301 156.644 116.152C157.625 115.747 158.564 115.459 159.46 115.288C160.377 115.117 161.209 115.032 161.956 115.032C163.492 115.032 164.75 115.267 165.732 115.736C166.734 116.205 167.481 116.92 167.972 117.88C168.462 118.819 168.708 120.035 168.708 121.528V129.208C168.708 129.869 168.548 130.381 168.228 130.744C167.908 131.085 167.449 131.256 166.852 131.256C166.254 131.256 165.785 131.085 165.444 130.744C165.124 130.381 164.964 129.869 164.964 129.208V127.672H165.22C165.07 128.419 164.772 129.069 164.324 129.624C163.897 130.157 163.353 130.573 162.692 130.872C162.03 131.171 161.273 131.32 160.42 131.32ZM178.112 131.32C176.341 131.32 175.008 130.819 174.112 129.816C173.216 128.792 172.768 127.299 172.768 125.336V110.2C172.768 109.539 172.938 109.037 173.28 108.696C173.621 108.355 174.112 108.184 174.752 108.184C175.392 108.184 175.882 108.355 176.224 108.696C176.586 109.037 176.768 109.539 176.768 110.2V125.144C176.768 126.125 176.97 126.851 177.376 127.32C177.802 127.789 178.4 128.024 179.168 128.024C179.338 128.024 179.498 128.024 179.648 128.024C179.797 128.003 179.946 127.981 180.095 127.96C180.394 127.917 180.597 128.003 180.704 128.216C180.81 128.408 180.864 128.813 180.864 129.432C180.864 129.965 180.757 130.381 180.544 130.68C180.33 130.979 179.978 131.16 179.488 131.224C179.274 131.245 179.05 131.267 178.816 131.288C178.581 131.309 178.346 131.32 178.112 131.32ZM185.034 131.256C184.394 131.256 183.904 131.085 183.562 130.744C183.221 130.381 183.05 129.869 183.05 129.208V117.112C183.05 116.451 183.221 115.949 183.562 115.608C183.904 115.267 184.384 115.096 185.002 115.096C185.621 115.096 186.101 115.267 186.442 115.608C186.784 115.949 186.954 116.451 186.954 117.112V119.448L186.602 118.488C187.029 117.421 187.69 116.579 188.586 115.96C189.482 115.341 190.549 115.032 191.786 115.032C193.045 115.032 194.08 115.331 194.89 115.928C195.701 116.525 196.266 117.443 196.586 118.68H196.138C196.565 117.549 197.269 116.664 198.25 116.024C199.232 115.363 200.362 115.032 201.642 115.032C202.837 115.032 203.818 115.267 204.586 115.736C205.376 116.205 205.962 116.92 206.346 117.88C206.73 118.819 206.922 120.013 206.922 121.464V129.208C206.922 129.869 206.741 130.381 206.378 130.744C206.037 131.085 205.546 131.256 204.906 131.256C204.266 131.256 203.776 131.085 203.434 130.744C203.093 130.381 202.922 129.869 202.922 129.208V121.624C202.922 120.429 202.72 119.555 202.314 119C201.93 118.445 201.269 118.168 200.33 118.168C199.285 118.168 198.464 118.541 197.866 119.288C197.269 120.013 196.97 121.027 196.97 122.328V129.208C196.97 129.869 196.8 130.381 196.458 130.744C196.117 131.085 195.626 131.256 194.986 131.256C194.346 131.256 193.845 131.085 193.482 130.744C193.141 130.381 192.97 129.869 192.97 129.208V121.624C192.97 120.429 192.768 119.555 192.362 119C191.978 118.445 191.328 118.168 190.41 118.168C189.365 118.168 188.544 118.541 187.946 119.288C187.349 120.013 187.05 121.027 187.05 122.328V129.208C187.05 130.573 186.378 131.256 185.034 131.256ZM230.185 134.616C230.483 135.085 230.601 135.512 230.537 135.896C230.473 136.28 230.302 136.6 230.025 136.856C229.747 137.133 229.406 137.304 229.001 137.368C228.595 137.453 228.19 137.411 227.785 137.24C227.379 137.091 227.038 136.792 226.761 136.344L224.553 132.792C224.254 132.301 223.849 131.928 223.337 131.672C222.846 131.437 222.238 131.32 221.513 131.32L224.681 130.072C225.683 130.072 226.483 130.253 227.081 130.616C227.678 130.957 228.254 131.565 228.809 132.44L230.185 134.616ZM221.545 131.32C219.369 131.32 217.459 130.84 215.817 129.88C214.195 128.92 212.937 127.576 212.041 125.848C211.145 124.099 210.697 122.051 210.697 119.704C210.697 117.933 210.953 116.344 211.465 114.936C211.977 113.507 212.702 112.291 213.641 111.288C214.601 110.264 215.742 109.485 217.065 108.952C218.409 108.397 219.902 108.12 221.545 108.12C223.742 108.12 225.651 108.6 227.273 109.56C228.894 110.499 230.153 111.832 231.049 113.56C231.945 115.288 232.393 117.325 232.393 119.672C232.393 121.443 232.137 123.043 231.625 124.472C231.113 125.901 230.377 127.128 229.417 128.152C228.478 129.176 227.337 129.965 225.993 130.52C224.67 131.053 223.187 131.32 221.545 131.32ZM221.545 127.8C222.931 127.8 224.105 127.48 225.065 126.84C226.046 126.2 226.793 125.272 227.305 124.056C227.838 122.84 228.105 121.389 228.105 119.704C228.105 117.144 227.529 115.16 226.377 113.752C225.246 112.344 223.635 111.64 221.545 111.64C220.179 111.64 219.006 111.96 218.025 112.6C217.043 113.219 216.286 114.136 215.753 115.352C215.241 116.547 214.985 117.997 214.985 119.704C214.985 122.243 215.561 124.227 216.713 125.656C217.865 127.085 219.475 127.8 221.545 127.8ZM241.838 131.32C240.536 131.32 239.459 131.085 238.606 130.616C237.752 130.125 237.112 129.4 236.686 128.44C236.28 127.48 236.078 126.285 236.078 124.856V117.112C236.078 116.429 236.248 115.928 236.59 115.608C236.931 115.267 237.422 115.096 238.062 115.096C238.702 115.096 239.192 115.267 239.534 115.608C239.896 115.928 240.078 116.429 240.078 117.112V124.92C240.078 126.029 240.302 126.851 240.75 127.384C241.198 127.917 241.912 128.184 242.894 128.184C243.96 128.184 244.835 127.821 245.518 127.096C246.2 126.349 246.542 125.368 246.542 124.152V117.112C246.542 116.429 246.712 115.928 247.054 115.608C247.395 115.267 247.886 115.096 248.526 115.096C249.166 115.096 249.656 115.267 249.998 115.608C250.36 115.928 250.542 116.429 250.542 117.112V129.208C250.542 130.573 249.891 131.256 248.59 131.256C247.971 131.256 247.491 131.085 247.15 130.744C246.808 130.381 246.638 129.869 246.638 129.208V126.776L247.086 127.736C246.638 128.888 245.955 129.773 245.038 130.392C244.142 131.011 243.075 131.32 241.838 131.32ZM262.417 131.32C260.646 131.32 259.121 130.989 257.841 130.328C256.561 129.667 255.569 128.728 254.865 127.512C254.182 126.296 253.841 124.856 253.841 123.192C253.841 121.571 254.172 120.152 254.833 118.936C255.516 117.72 256.444 116.771 257.617 116.088C258.812 115.384 260.166 115.032 261.681 115.032C262.79 115.032 263.782 115.213 264.657 115.576C265.553 115.939 266.31 116.461 266.929 117.144C267.569 117.827 268.049 118.659 268.369 119.64C268.71 120.6 268.881 121.688 268.881 122.904C268.881 123.288 268.742 123.587 268.465 123.8C268.209 123.992 267.836 124.088 267.345 124.088H257.073V121.784H266.065L265.553 122.264C265.553 121.283 265.404 120.461 265.105 119.8C264.828 119.139 264.412 118.637 263.857 118.296C263.324 117.933 262.652 117.752 261.841 117.752C260.945 117.752 260.177 117.965 259.537 118.392C258.918 118.797 258.438 119.384 258.097 120.152C257.777 120.899 257.617 121.795 257.617 122.84V123.064C257.617 124.813 258.022 126.125 258.833 127C259.665 127.853 260.881 128.28 262.481 128.28C263.036 128.28 263.654 128.216 264.337 128.088C265.041 127.939 265.702 127.693 266.321 127.352C266.769 127.096 267.164 126.989 267.505 127.032C267.846 127.053 268.113 127.171 268.305 127.384C268.518 127.597 268.646 127.864 268.689 128.184C268.732 128.483 268.668 128.792 268.497 129.112C268.348 129.432 268.081 129.709 267.697 129.944C266.95 130.413 266.086 130.765 265.105 131C264.145 131.213 263.249 131.32 262.417 131.32ZM277.777 131.32C276.859 131.32 275.889 131.224 274.865 131.032C273.841 130.84 272.923 130.509 272.113 130.04C271.771 129.827 271.526 129.581 271.377 129.304C271.249 129.005 271.195 128.717 271.217 128.44C271.259 128.141 271.366 127.885 271.537 127.672C271.729 127.459 271.963 127.32 272.241 127.256C272.539 127.192 272.859 127.245 273.201 127.416C274.054 127.821 274.854 128.109 275.601 128.28C276.347 128.429 277.083 128.504 277.809 128.504C278.833 128.504 279.59 128.333 280.081 127.992C280.593 127.629 280.849 127.16 280.849 126.584C280.849 126.093 280.678 125.72 280.337 125.464C280.017 125.187 279.526 124.984 278.865 124.856L275.665 124.248C274.342 123.992 273.329 123.512 272.625 122.808C271.942 122.083 271.601 121.155 271.601 120.024C271.601 119 271.878 118.115 272.433 117.368C273.009 116.621 273.798 116.045 274.801 115.64C275.803 115.235 276.955 115.032 278.257 115.032C279.195 115.032 280.07 115.139 280.881 115.352C281.713 115.544 282.513 115.853 283.281 116.28C283.601 116.451 283.814 116.675 283.921 116.952C284.049 117.229 284.081 117.517 284.017 117.816C283.953 118.093 283.825 118.349 283.633 118.584C283.441 118.797 283.195 118.936 282.897 119C282.619 119.043 282.299 118.979 281.937 118.808C281.275 118.467 280.635 118.221 280.017 118.072C279.419 117.923 278.843 117.848 278.289 117.848C277.243 117.848 276.465 118.029 275.953 118.392C275.462 118.755 275.217 119.235 275.217 119.832C275.217 120.28 275.366 120.653 275.665 120.952C275.963 121.251 276.422 121.453 277.041 121.56L280.241 122.168C281.627 122.424 282.673 122.893 283.377 123.576C284.102 124.259 284.465 125.176 284.465 126.328C284.465 127.885 283.857 129.112 282.641 130.008C281.425 130.883 279.803 131.32 277.777 131.32ZM294.686 131.32C293.299 131.32 292.136 131.085 291.198 130.616C290.28 130.147 289.598 129.464 289.15 128.568C288.702 127.651 288.478 126.52 288.478 125.176V118.36H286.814C286.302 118.36 285.907 118.232 285.63 117.976C285.352 117.699 285.213 117.325 285.213 116.856C285.213 116.365 285.352 115.992 285.63 115.736C285.907 115.48 286.302 115.352 286.814 115.352H288.478V112.44C288.478 111.779 288.648 111.277 288.99 110.936C289.352 110.595 289.854 110.424 290.494 110.424C291.134 110.424 291.624 110.595 291.966 110.936C292.307 111.277 292.478 111.779 292.478 112.44V115.352H295.87C296.382 115.352 296.776 115.48 297.054 115.736C297.331 115.992 297.47 116.365 297.47 116.856C297.47 117.325 297.331 117.699 297.054 117.976C296.776 118.232 296.382 118.36 295.87 118.36H292.478V124.952C292.478 125.976 292.702 126.744 293.15 127.256C293.598 127.768 294.323 128.024 295.326 128.024C295.688 128.024 296.008 127.992 296.286 127.928C296.563 127.864 296.808 127.821 297.022 127.8C297.278 127.779 297.491 127.864 297.662 128.056C297.832 128.227 297.918 128.589 297.918 129.144C297.918 129.571 297.843 129.955 297.694 130.296C297.566 130.616 297.32 130.84 296.958 130.968C296.68 131.053 296.318 131.128 295.87 131.192C295.422 131.277 295.027 131.32 294.686 131.32Z" fill="black"/>
<path d="M18.1562 127.969H37.8438M18.1562 120.469H37.8438M18.1562 112.969H37.8438" stroke="black" stroke-width="3.5625" stroke-linecap="round" stroke-linejoin="round"/>
<rect x="2" y="189" width="430" height="82" fill="#C9F5FF"/>
<mask id="mask0_833_8260" style="mask-type:alpha" maskUnits="userSpaceOnUse" x="46" y="205" width="30" height="30">
<rect x="46" y="205" width="30" height="30" fill="#D9D9D9"/>
</mask>
<g mask="url(#mask0_833_8260)">
<path d="M51 231.25V216.25L61 208.75L71 216.25V231.25H63.5V222.5H58.5V231.25H51Z" fill="black"/>
</g>
<path d="M247.538 248.184C247.361 248.193 247.226 248.147 247.132 248.044C247.03 247.941 246.978 247.815 246.978 247.666C246.978 247.554 247.016 247.451 247.09 247.358C247.156 247.265 247.263 247.213 247.412 247.204L247.846 247.176C248.322 247.139 248.686 246.975 248.938 246.686C249.19 246.387 249.316 245.981 249.316 245.468V238.72C249.316 238.524 249.363 238.379 249.456 238.286C249.559 238.183 249.704 238.132 249.89 238.132C250.077 238.132 250.217 238.183 250.31 238.286C250.413 238.379 250.464 238.524 250.464 238.72V245.482C250.464 246.014 250.371 246.476 250.184 246.868C249.998 247.251 249.718 247.549 249.344 247.764C248.98 247.979 248.532 248.105 248 248.142L247.538 248.184ZM255.578 248.226C254.915 248.226 254.341 248.081 253.856 247.792C253.37 247.503 252.992 247.097 252.722 246.574C252.46 246.042 252.33 245.417 252.33 244.698C252.33 244.157 252.404 243.671 252.554 243.242C252.703 242.803 252.922 242.43 253.212 242.122C253.501 241.814 253.842 241.581 254.234 241.422C254.635 241.254 255.083 241.17 255.578 241.17C256.24 241.17 256.814 241.315 257.3 241.604C257.785 241.893 258.158 242.304 258.42 242.836C258.69 243.359 258.826 243.979 258.826 244.698C258.826 245.239 258.751 245.725 258.602 246.154C258.452 246.583 258.233 246.957 257.944 247.274C257.654 247.582 257.309 247.82 256.908 247.988C256.516 248.147 256.072 248.226 255.578 248.226ZM255.578 247.316C255.998 247.316 256.366 247.213 256.684 247.008C257.001 246.803 257.244 246.504 257.412 246.112C257.589 245.72 257.678 245.249 257.678 244.698C257.678 243.849 257.486 243.2 257.104 242.752C256.73 242.304 256.222 242.08 255.578 242.08C255.148 242.08 254.775 242.183 254.458 242.388C254.15 242.584 253.907 242.878 253.73 243.27C253.562 243.653 253.478 244.129 253.478 244.698C253.478 245.538 253.669 246.187 254.052 246.644C254.434 247.092 254.943 247.316 255.578 247.316ZM262.937 248.226C262.386 248.226 261.929 248.128 261.565 247.932C261.21 247.727 260.94 247.423 260.753 247.022C260.576 246.621 260.487 246.121 260.487 245.524V241.772C260.487 241.576 260.534 241.431 260.627 241.338C260.73 241.245 260.87 241.198 261.047 241.198C261.234 241.198 261.374 241.245 261.467 241.338C261.57 241.431 261.621 241.576 261.621 241.772V245.51C261.621 246.107 261.742 246.555 261.985 246.854C262.237 247.143 262.629 247.288 263.161 247.288C263.74 247.288 264.211 247.092 264.575 246.7C264.939 246.308 265.121 245.795 265.121 245.16V241.772C265.121 241.576 265.168 241.431 265.261 241.338C265.364 241.245 265.508 241.198 265.695 241.198C265.872 241.198 266.008 241.245 266.101 241.338C266.204 241.431 266.255 241.576 266.255 241.772V247.61C266.255 248.002 266.073 248.198 265.709 248.198C265.532 248.198 265.392 248.147 265.289 248.044C265.196 247.941 265.149 247.797 265.149 247.61V246.336L265.331 246.532C265.144 247.083 264.836 247.503 264.407 247.792C263.987 248.081 263.497 248.226 262.937 248.226ZM268.951 248.198C268.764 248.198 268.619 248.147 268.517 248.044C268.423 247.941 268.377 247.797 268.377 247.61V241.772C268.377 241.585 268.423 241.445 268.517 241.352C268.61 241.249 268.745 241.198 268.923 241.198C269.1 241.198 269.235 241.249 269.329 241.352C269.431 241.445 269.483 241.585 269.483 241.772V242.906H269.343C269.492 242.355 269.777 241.931 270.197 241.632C270.617 241.333 271.135 241.175 271.751 241.156C271.891 241.147 272.003 241.179 272.087 241.254C272.171 241.319 272.217 241.436 272.227 241.604C272.236 241.763 272.199 241.889 272.115 241.982C272.031 242.075 271.9 242.131 271.723 242.15L271.499 242.178C270.864 242.234 270.374 242.439 270.029 242.794C269.693 243.139 269.525 243.615 269.525 244.222V247.61C269.525 247.797 269.473 247.941 269.37 248.044C269.277 248.147 269.137 248.198 268.951 248.198ZM273.954 248.198C273.767 248.198 273.627 248.147 273.534 248.044C273.441 247.941 273.394 247.797 273.394 247.61V241.772C273.394 241.585 273.441 241.445 273.534 241.352C273.627 241.249 273.763 241.198 273.94 241.198C274.117 241.198 274.253 241.249 274.346 241.352C274.449 241.445 274.5 241.585 274.5 241.772V242.976L274.346 242.808C274.542 242.267 274.859 241.861 275.298 241.59C275.746 241.31 276.259 241.17 276.838 241.17C277.379 241.17 277.827 241.268 278.182 241.464C278.546 241.66 278.817 241.959 278.994 242.36C279.171 242.752 279.26 243.251 279.26 243.858V247.61C279.26 247.797 279.209 247.941 279.106 248.044C279.013 248.147 278.877 248.198 278.7 248.198C278.513 248.198 278.369 248.147 278.266 248.044C278.173 247.941 278.126 247.797 278.126 247.61V243.928C278.126 243.293 278 242.831 277.748 242.542C277.505 242.243 277.113 242.094 276.572 242.094C275.947 242.094 275.447 242.29 275.074 242.682C274.71 243.065 274.528 243.578 274.528 244.222V247.61C274.528 248.002 274.337 248.198 273.954 248.198ZM283.493 248.226C283.026 248.226 282.606 248.137 282.233 247.96C281.869 247.773 281.58 247.521 281.365 247.204C281.15 246.887 281.043 246.532 281.043 246.14C281.043 245.636 281.169 245.239 281.421 244.95C281.682 244.661 282.107 244.455 282.695 244.334C283.292 244.213 284.104 244.152 285.131 244.152H285.761V244.894H285.145C284.389 244.894 283.792 244.931 283.353 245.006C282.924 245.071 282.62 245.188 282.443 245.356C282.275 245.524 282.191 245.762 282.191 246.07C282.191 246.453 282.322 246.765 282.583 247.008C282.854 247.251 283.218 247.372 283.675 247.372C284.048 247.372 284.375 247.283 284.655 247.106C284.944 246.929 285.168 246.686 285.327 246.378C285.495 246.07 285.579 245.715 285.579 245.314V243.718C285.579 243.139 285.462 242.724 285.229 242.472C284.996 242.211 284.613 242.08 284.081 242.08C283.754 242.08 283.428 242.122 283.101 242.206C282.774 242.29 282.429 242.425 282.065 242.612C281.934 242.677 281.822 242.701 281.729 242.682C281.636 242.654 281.561 242.603 281.505 242.528C281.449 242.453 281.416 242.369 281.407 242.276C281.398 242.173 281.416 242.075 281.463 241.982C281.519 241.889 281.603 241.814 281.715 241.758C282.126 241.553 282.532 241.403 282.933 241.31C283.334 241.217 283.717 241.17 284.081 241.17C284.669 241.17 285.154 241.268 285.537 241.464C285.92 241.651 286.204 241.94 286.391 242.332C286.578 242.715 286.671 243.209 286.671 243.816V247.61C286.671 247.797 286.624 247.941 286.531 248.044C286.447 248.147 286.321 248.198 286.153 248.198C285.976 248.198 285.84 248.147 285.747 248.044C285.654 247.941 285.607 247.797 285.607 247.61V246.518H285.733C285.658 246.873 285.514 247.176 285.299 247.428C285.094 247.68 284.837 247.876 284.529 248.016C284.221 248.156 283.876 248.226 283.493 248.226ZM290.847 248.226C290.175 248.226 289.662 248.021 289.307 247.61C288.952 247.199 288.775 246.611 288.775 245.846V238.706C288.775 238.519 288.822 238.379 288.915 238.286C289.008 238.183 289.148 238.132 289.335 238.132C289.512 238.132 289.652 238.183 289.755 238.286C289.858 238.379 289.909 238.519 289.909 238.706V245.762C289.909 246.266 290.007 246.644 290.203 246.896C290.408 247.139 290.707 247.26 291.099 247.26C291.183 247.26 291.258 247.255 291.323 247.246C291.388 247.237 291.454 247.232 291.519 247.232C291.622 247.223 291.692 247.246 291.729 247.302C291.776 247.358 291.799 247.47 291.799 247.638C291.799 247.806 291.762 247.932 291.687 248.016C291.612 248.1 291.491 248.156 291.323 248.184C291.248 248.193 291.169 248.203 291.085 248.212C291.001 248.221 290.922 248.226 290.847 248.226Z" fill="black"/>
<path d="M275.25 209.5V217.187L272.75 214.625L270.25 217.187V209.5H265.25V230H277.75V209.5H275.25ZM257.75 213.344V210.781H260.25V209.5C260.25 208.82 260.513 208.169 260.982 207.688C261.451 207.207 262.087 206.938 262.75 206.938H277.75C279.062 206.938 280.25 208.155 280.25 209.5V230C280.25 231.345 279.062 232.562 277.75 232.562H262.75C261.438 232.562 260.25 231.345 260.25 230V228.719H257.75V226.156H260.25V221.031H257.75V218.469H260.25V213.344H257.75ZM260.25 210.781V213.344H262.75V210.781H260.25ZM260.25 228.719H262.75V226.156H260.25V228.719ZM260.25 221.031H262.75V218.469H260.25V221.031Z" fill="black"/>
<path d="M354.792 249.223C354.605 249.223 354.461 249.172 354.358 249.069C354.265 248.957 354.218 248.808 354.218 248.621V239.843C354.218 239.647 354.269 239.502 354.372 239.409C354.475 239.306 354.619 239.255 354.806 239.255H358.124C359.179 239.255 359.991 239.516 360.56 240.039C361.129 240.552 361.414 241.28 361.414 242.223C361.414 243.156 361.129 243.884 360.56 244.407C359.991 244.93 359.179 245.191 358.124 245.191H355.366V248.621C355.366 248.808 355.319 248.957 355.226 249.069C355.133 249.172 354.988 249.223 354.792 249.223ZM355.366 244.225H357.984C358.74 244.225 359.309 244.057 359.692 243.721C360.084 243.376 360.28 242.876 360.28 242.223C360.28 241.56 360.084 241.061 359.692 240.725C359.309 240.38 358.74 240.207 357.984 240.207H355.366V244.225ZM363.361 249.223C363.174 249.223 363.029 249.172 362.927 249.069C362.833 248.966 362.787 248.822 362.787 248.635V242.797C362.787 242.61 362.833 242.47 362.927 242.377C363.02 242.274 363.155 242.223 363.333 242.223C363.51 242.223 363.645 242.274 363.739 242.377C363.841 242.47 363.893 242.61 363.893 242.797V243.931H363.753C363.902 243.38 364.187 242.956 364.607 242.657C365.027 242.358 365.545 242.2 366.161 242.181C366.301 242.172 366.413 242.204 366.497 242.279C366.581 242.344 366.627 242.461 366.637 242.629C366.646 242.788 366.609 242.914 366.525 243.007C366.441 243.1 366.31 243.156 366.133 243.175L365.909 243.203C365.274 243.259 364.784 243.464 364.439 243.819C364.103 244.164 363.935 244.64 363.935 245.247V248.635C363.935 248.822 363.883 248.966 363.781 249.069C363.687 249.172 363.547 249.223 363.361 249.223ZM370.55 249.251C369.888 249.251 369.314 249.106 368.828 248.817C368.343 248.528 367.965 248.122 367.694 247.599C367.433 247.067 367.302 246.442 367.302 245.723C367.302 245.182 367.377 244.696 367.526 244.267C367.676 243.828 367.895 243.455 368.184 243.147C368.474 242.839 368.814 242.606 369.206 242.447C369.608 242.279 370.056 242.195 370.55 242.195C371.213 242.195 371.787 242.34 372.272 242.629C372.758 242.918 373.131 243.329 373.392 243.861C373.663 244.384 373.798 245.004 373.798 245.723C373.798 246.264 373.724 246.75 373.574 247.179C373.425 247.608 373.206 247.982 372.916 248.299C372.627 248.607 372.282 248.845 371.88 249.013C371.488 249.172 371.045 249.251 370.55 249.251ZM370.55 248.341C370.97 248.341 371.339 248.238 371.656 248.033C371.974 247.828 372.216 247.529 372.384 247.137C372.562 246.745 372.65 246.274 372.65 245.723C372.65 244.874 372.459 244.225 372.076 243.777C371.703 243.329 371.194 243.105 370.55 243.105C370.121 243.105 369.748 243.208 369.43 243.413C369.122 243.609 368.88 243.903 368.702 244.295C368.534 244.678 368.45 245.154 368.45 245.723C368.45 246.563 368.642 247.212 369.024 247.669C369.407 248.117 369.916 248.341 370.55 248.341ZM376.357 249.223C376.18 249.223 376.04 249.172 375.937 249.069C375.844 248.966 375.797 248.822 375.797 248.635V243.203H374.901C374.752 243.203 374.63 243.166 374.537 243.091C374.453 243.007 374.411 242.895 374.411 242.755C374.411 242.615 374.453 242.508 374.537 242.433C374.63 242.358 374.752 242.321 374.901 242.321H376.105L375.797 242.615V242.083C375.797 241.206 376.007 240.534 376.427 240.067C376.856 239.6 377.486 239.334 378.317 239.269L378.737 239.227C378.877 239.218 378.989 239.241 379.073 239.297C379.157 239.344 379.208 239.409 379.227 239.493C379.255 239.577 379.26 239.666 379.241 239.759C379.222 239.852 379.18 239.932 379.115 239.997C379.059 240.062 378.989 240.1 378.905 240.109L378.485 240.137C377.934 240.174 377.538 240.347 377.295 240.655C377.052 240.954 376.931 241.383 376.931 241.943V242.531L376.763 242.321H380.571C380.748 242.321 380.884 242.372 380.977 242.475C381.08 242.578 381.131 242.727 381.131 242.923V248.579C381.131 248.775 381.084 248.929 380.991 249.041C380.898 249.144 380.758 249.195 380.571 249.195C380.384 249.195 380.24 249.144 380.137 249.041C380.044 248.929 379.997 248.775 379.997 248.579V243.203H376.931V248.635C376.931 249.027 376.74 249.223 376.357 249.223ZM380.585 240.683C380.352 240.683 380.17 240.622 380.039 240.501C379.918 240.37 379.857 240.198 379.857 239.983C379.857 239.759 379.918 239.591 380.039 239.479C380.17 239.358 380.352 239.297 380.585 239.297C380.818 239.297 380.996 239.358 381.117 239.479C381.248 239.591 381.313 239.759 381.313 239.983C381.313 240.198 381.248 240.37 381.117 240.501C380.996 240.622 380.818 240.683 380.585 240.683ZM385.325 249.251C384.653 249.251 384.14 249.046 383.785 248.635C383.431 248.224 383.253 247.636 383.253 246.871V239.731C383.253 239.544 383.3 239.404 383.393 239.311C383.487 239.208 383.627 239.157 383.813 239.157C383.991 239.157 384.131 239.208 384.233 239.311C384.336 239.404 384.387 239.544 384.387 239.731V246.787C384.387 247.291 384.485 247.669 384.681 247.921C384.887 248.164 385.185 248.285 385.577 248.285C385.661 248.285 385.736 248.28 385.801 248.271C385.867 248.262 385.932 248.257 385.997 248.257C386.1 248.248 386.17 248.271 386.207 248.327C386.254 248.383 386.277 248.495 386.277 248.663C386.277 248.831 386.24 248.957 386.165 249.041C386.091 249.125 385.969 249.181 385.801 249.209C385.727 249.218 385.647 249.228 385.563 249.237C385.479 249.246 385.4 249.251 385.325 249.251ZM390.394 249.251C389.675 249.251 389.054 249.111 388.532 248.831C388.018 248.542 387.617 248.136 387.328 247.613C387.048 247.09 386.908 246.465 386.908 245.737C386.908 245.028 387.048 244.412 387.328 243.889C387.608 243.357 387.99 242.942 388.476 242.643C388.97 242.344 389.54 242.195 390.184 242.195C390.641 242.195 391.052 242.274 391.416 242.433C391.78 242.582 392.088 242.802 392.34 243.091C392.601 243.38 392.797 243.73 392.928 244.141C393.068 244.552 393.138 245.014 393.138 245.527C393.138 245.676 393.096 245.788 393.012 245.863C392.928 245.928 392.806 245.961 392.648 245.961H387.776V245.219H392.382L392.158 245.401C392.158 244.897 392.083 244.472 391.934 244.127C391.784 243.772 391.565 243.502 391.276 243.315C390.996 243.128 390.641 243.035 390.212 243.035C389.736 243.035 389.33 243.147 388.994 243.371C388.667 243.586 388.42 243.889 388.252 244.281C388.084 244.664 388 245.112 388 245.625V245.709C388 246.568 388.205 247.221 388.616 247.669C389.036 248.117 389.628 248.341 390.394 248.341C390.711 248.341 391.024 248.299 391.332 248.215C391.649 248.131 391.957 247.991 392.256 247.795C392.386 247.711 392.503 247.674 392.606 247.683C392.718 247.683 392.806 247.716 392.872 247.781C392.937 247.837 392.979 247.912 392.998 248.005C393.026 248.089 393.016 248.182 392.97 248.285C392.932 248.388 392.853 248.476 392.732 248.551C392.424 248.775 392.06 248.948 391.64 249.069C391.22 249.19 390.804 249.251 390.394 249.251Z" fill="black"/>
<path d="M363 227.438C363 226.078 363.527 224.775 364.464 223.814C365.402 222.852 366.674 222.312 368 222.312H378C379.326 222.312 380.598 222.852 381.536 223.814C382.473 224.775 383 226.078 383 227.438C383 228.117 382.737 228.769 382.268 229.249C381.799 229.73 381.163 230 380.5 230H365.5C364.837 230 364.201 229.73 363.732 229.249C363.263 228.769 363 228.117 363 227.438Z" stroke="black" stroke-width="2.5" stroke-linejoin="round"/>
<path d="M373 217.187C375.071 217.187 376.75 215.467 376.75 213.344C376.75 211.221 375.071 209.5 373 209.5C370.929 209.5 369.25 211.221 369.25 213.344C369.25 215.467 370.929 217.187 373 217.187Z" stroke="black" stroke-width="2.5"/>
<path d="M153.654 248.226C153.215 248.226 152.786 248.189 152.366 248.114C151.946 248.039 151.554 247.932 151.19 247.792C150.835 247.652 150.513 247.475 150.224 247.26C150.112 247.176 150.033 247.083 149.986 246.98C149.949 246.868 149.939 246.761 149.958 246.658C149.986 246.546 150.033 246.453 150.098 246.378C150.173 246.303 150.261 246.261 150.364 246.252C150.467 246.243 150.579 246.275 150.7 246.35C151.12 246.649 151.568 246.868 152.044 247.008C152.52 247.139 153.057 247.204 153.654 247.204C154.494 247.204 155.115 247.05 155.516 246.742C155.927 246.425 156.132 246.009 156.132 245.496C156.132 245.076 155.983 244.749 155.684 244.516C155.395 244.273 154.905 244.082 154.214 243.942L152.758 243.648C151.881 243.461 151.223 243.158 150.784 242.738C150.355 242.309 150.14 241.739 150.14 241.03C150.14 240.591 150.229 240.195 150.406 239.84C150.583 239.476 150.831 239.168 151.148 238.916C151.465 238.655 151.843 238.454 152.282 238.314C152.721 238.174 153.206 238.104 153.738 238.104C154.326 238.104 154.872 238.188 155.376 238.356C155.889 238.515 156.351 238.757 156.762 239.084C156.865 239.168 156.935 239.266 156.972 239.378C157.009 239.481 157.014 239.583 156.986 239.686C156.958 239.779 156.907 239.859 156.832 239.924C156.767 239.989 156.678 240.027 156.566 240.036C156.463 240.045 156.347 240.008 156.216 239.924C155.843 239.644 155.455 239.443 155.054 239.322C154.653 239.191 154.209 239.126 153.724 239.126C153.229 239.126 152.8 239.201 152.436 239.35C152.081 239.499 151.801 239.719 151.596 240.008C151.4 240.288 151.302 240.615 151.302 240.988C151.302 241.436 151.437 241.791 151.708 242.052C151.988 242.313 152.441 242.505 153.066 242.626L154.522 242.934C155.465 243.13 156.16 243.429 156.608 243.83C157.065 244.222 157.294 244.759 157.294 245.44C157.294 245.851 157.21 246.229 157.042 246.574C156.874 246.919 156.631 247.218 156.314 247.47C155.997 247.713 155.614 247.899 155.166 248.03C154.718 248.161 154.214 248.226 153.654 248.226ZM159.481 248.198C159.295 248.198 159.155 248.147 159.061 248.044C158.968 247.941 158.921 247.797 158.921 247.61V238.706C158.921 238.519 158.968 238.379 159.061 238.286C159.155 238.183 159.295 238.132 159.481 238.132C159.659 238.132 159.799 238.183 159.901 238.286C160.004 238.379 160.055 238.519 160.055 238.706V242.808H159.873C160.069 242.267 160.387 241.861 160.825 241.59C161.273 241.31 161.787 241.17 162.365 241.17C162.907 241.17 163.355 241.268 163.709 241.464C164.073 241.66 164.344 241.959 164.521 242.36C164.699 242.752 164.787 243.251 164.787 243.858V247.61C164.787 247.797 164.736 247.941 164.633 248.044C164.54 248.147 164.405 248.198 164.227 248.198C164.041 248.198 163.896 248.147 163.793 248.044C163.7 247.941 163.653 247.797 163.653 247.61V243.928C163.653 243.293 163.527 242.831 163.275 242.542C163.033 242.243 162.641 242.094 162.099 242.094C161.474 242.094 160.975 242.29 160.601 242.682C160.237 243.065 160.055 243.578 160.055 244.222V247.61C160.055 248.002 159.864 248.198 159.481 248.198ZM169.706 248.226C169.044 248.226 168.47 248.081 167.984 247.792C167.499 247.503 167.121 247.097 166.85 246.574C166.589 246.042 166.458 245.417 166.458 244.698C166.458 244.157 166.533 243.671 166.682 243.242C166.832 242.803 167.051 242.43 167.34 242.122C167.63 241.814 167.97 241.581 168.362 241.422C168.764 241.254 169.212 241.17 169.706 241.17C170.369 241.17 170.943 241.315 171.428 241.604C171.914 241.893 172.287 242.304 172.548 242.836C172.819 243.359 172.954 243.979 172.954 244.698C172.954 245.239 172.88 245.725 172.73 246.154C172.581 246.583 172.362 246.957 172.072 247.274C171.783 247.582 171.438 247.82 171.036 247.988C170.644 248.147 170.201 248.226 169.706 248.226ZM169.706 247.316C170.126 247.316 170.495 247.213 170.812 247.008C171.13 246.803 171.372 246.504 171.54 246.112C171.718 245.72 171.806 245.249 171.806 244.698C171.806 243.849 171.615 243.2 171.232 242.752C170.859 242.304 170.35 242.08 169.706 242.08C169.277 242.08 168.904 242.183 168.586 242.388C168.278 242.584 168.036 242.878 167.858 243.27C167.69 243.653 167.606 244.129 167.606 244.698C167.606 245.538 167.798 246.187 168.18 246.644C168.563 247.092 169.072 247.316 169.706 247.316ZM175.218 250.718C175.031 250.718 174.891 250.667 174.798 250.564C174.704 250.471 174.658 250.331 174.658 250.144V241.772C174.658 241.585 174.704 241.445 174.798 241.352C174.891 241.249 175.026 241.198 175.204 241.198C175.39 241.198 175.53 241.249 175.624 241.352C175.726 241.445 175.778 241.585 175.778 241.772V243.102L175.624 242.906C175.773 242.374 176.067 241.954 176.506 241.646C176.954 241.329 177.486 241.17 178.102 241.17C178.708 241.17 179.236 241.315 179.684 241.604C180.141 241.884 180.491 242.29 180.734 242.822C180.986 243.345 181.112 243.97 181.112 244.698C181.112 245.417 180.986 246.042 180.734 246.574C180.491 247.097 180.146 247.503 179.698 247.792C179.25 248.081 178.718 248.226 178.102 248.226C177.486 248.226 176.958 248.072 176.52 247.764C176.081 247.447 175.782 247.027 175.624 246.504H175.792V250.144C175.792 250.331 175.74 250.471 175.638 250.564C175.535 250.667 175.395 250.718 175.218 250.718ZM177.864 247.316C178.293 247.316 178.662 247.213 178.97 247.008C179.287 246.803 179.53 246.504 179.698 246.112C179.875 245.72 179.964 245.249 179.964 244.698C179.964 243.849 179.772 243.2 179.39 242.752C179.016 242.304 178.508 242.08 177.864 242.08C177.444 242.08 177.075 242.183 176.758 242.388C176.44 242.584 176.193 242.878 176.016 243.27C175.848 243.653 175.764 244.129 175.764 244.698C175.764 245.538 175.955 246.187 176.338 246.644C176.72 247.092 177.229 247.316 177.864 247.316Z" fill="black"/>
<path d="M157.5 232.562C156.812 232.562 156.224 232.312 155.735 231.81C155.246 231.309 155.001 230.706 155 230V214.625C155 213.92 155.245 213.317 155.735 212.816C156.225 212.314 156.813 212.063 157.5 212.062H160C160 210.653 160.49 209.447 161.469 208.443C162.448 207.439 163.625 206.938 165 206.938C166.375 206.938 167.552 207.439 168.531 208.443C169.51 209.447 170 210.653 170 212.062H172.5C173.188 212.062 173.776 212.314 174.266 212.816C174.756 213.318 175.001 213.921 175 214.625V230C175 230.705 174.755 231.308 174.266 231.81C173.777 232.313 173.188 232.563 172.5 232.562H157.5ZM157.5 230H172.5V214.625H170V217.188C170 217.551 169.88 217.855 169.64 218.101C169.4 218.347 169.103 218.47 168.75 218.469C168.396 218.469 168.099 218.346 167.86 218.1C167.621 217.854 167.501 217.55 167.5 217.188V214.625H162.5V217.188C162.5 217.551 162.38 217.855 162.14 218.101C161.9 218.347 161.603 218.47 161.25 218.469C160.896 218.469 160.599 218.346 160.36 218.1C160.121 217.854 160.001 217.55 160 217.188V214.625H157.5V230ZM162.5 212.062H167.5C167.5 211.358 167.255 210.755 166.766 210.253C166.277 209.752 165.688 209.501 165 209.5C164.312 209.5 163.724 209.751 163.235 210.253C162.746 210.756 162.501 211.359 162.5 212.062Z" fill="black"/>
<path d="M44.0941 248.212C43.8048 248.212 43.5808 248.133 43.4221 247.974C43.2728 247.806 43.1981 247.577 43.1981 247.288V239.042C43.1981 238.743 43.2728 238.515 43.4221 238.356C43.5808 238.197 43.8048 238.118 44.0941 238.118C44.3835 238.118 44.6028 238.197 44.7521 238.356C44.9108 238.515 44.9901 238.743 44.9901 239.042V242.346H50.0721V239.042C50.0721 238.743 50.1468 238.515 50.2961 238.356C50.4548 238.197 50.6788 238.118 50.9681 238.118C51.2575 238.118 51.4768 238.197 51.6261 238.356C51.7848 238.515 51.8641 238.743 51.8641 239.042V247.288C51.8641 247.577 51.7848 247.806 51.6261 247.974C51.4768 248.133 51.2575 248.212 50.9681 248.212C50.6788 248.212 50.4548 248.133 50.2961 247.974C50.1468 247.806 50.0721 247.577 50.0721 247.288V243.844H44.9901V247.288C44.9901 247.577 44.9155 247.806 44.7661 247.974C44.6168 248.133 44.3928 248.212 44.0941 248.212ZM56.9802 248.24C56.2709 248.24 55.6549 248.095 55.1322 247.806C54.6096 247.517 54.2036 247.106 53.9142 246.574C53.6249 246.033 53.4802 245.398 53.4802 244.67C53.4802 244.119 53.5596 243.629 53.7182 243.2C53.8862 242.761 54.1242 242.388 54.4322 242.08C54.7402 241.763 55.1089 241.525 55.5382 241.366C55.9676 241.198 56.4482 241.114 56.9802 241.114C57.6896 241.114 58.3056 241.259 58.8282 241.548C59.3509 241.837 59.7569 242.248 60.0462 242.78C60.3356 243.312 60.4802 243.942 60.4802 244.67C60.4802 245.221 60.3962 245.715 60.2282 246.154C60.0696 246.593 59.8362 246.971 59.5282 247.288C59.2202 247.596 58.8516 247.834 58.4222 248.002C57.9929 248.161 57.5122 248.24 56.9802 248.24ZM56.9802 246.91C57.3256 246.91 57.6289 246.826 57.8902 246.658C58.1516 246.49 58.3522 246.243 58.4922 245.916C58.6416 245.58 58.7162 245.165 58.7162 244.67C58.7162 243.923 58.5576 243.368 58.2402 243.004C57.9229 242.631 57.5029 242.444 56.9802 242.444C56.6349 242.444 56.3316 242.528 56.0702 242.696C55.8089 242.855 55.6036 243.102 55.4542 243.438C55.3142 243.765 55.2442 244.175 55.2442 244.67C55.2442 245.407 55.4029 245.967 55.7202 246.35C56.0376 246.723 56.4576 246.91 56.9802 246.91ZM62.8206 248.212C62.5406 248.212 62.326 248.137 62.1766 247.988C62.0273 247.829 61.9526 247.605 61.9526 247.316V242.024C61.9526 241.735 62.0273 241.515 62.1766 241.366C62.326 241.217 62.536 241.142 62.8066 241.142C63.0773 241.142 63.2873 241.217 63.4366 241.366C63.586 241.515 63.6606 241.735 63.6606 242.024V243.046L63.5066 242.626C63.6933 242.159 63.9826 241.791 64.3746 241.52C64.7666 241.249 65.2333 241.114 65.7746 241.114C66.3253 241.114 66.778 241.245 67.1326 241.506C67.4873 241.767 67.7346 242.169 67.8746 242.71H67.6786C67.8653 242.215 68.1733 241.828 68.6026 241.548C69.032 241.259 69.5266 241.114 70.0866 241.114C70.6093 241.114 71.0386 241.217 71.3746 241.422C71.72 241.627 71.9766 241.94 72.1446 242.36C72.3126 242.771 72.3966 243.293 72.3966 243.928V247.316C72.3966 247.605 72.3173 247.829 72.1586 247.988C72.0093 248.137 71.7946 248.212 71.5146 248.212C71.2346 248.212 71.02 248.137 70.8706 247.988C70.7213 247.829 70.6466 247.605 70.6466 247.316V243.998C70.6466 243.475 70.558 243.093 70.3806 242.85C70.2126 242.607 69.9233 242.486 69.5126 242.486C69.0553 242.486 68.696 242.649 68.4346 242.976C68.1733 243.293 68.0426 243.737 68.0426 244.306V247.316C68.0426 247.605 67.968 247.829 67.8186 247.988C67.6693 248.137 67.4546 248.212 67.1746 248.212C66.8946 248.212 66.6753 248.137 66.5166 247.988C66.3673 247.829 66.2926 247.605 66.2926 247.316V243.998C66.2926 243.475 66.204 243.093 66.0266 242.85C65.8586 242.607 65.574 242.486 65.1726 242.486C64.7153 242.486 64.356 242.649 64.0946 242.976C63.8333 243.293 63.7026 243.737 63.7026 244.306V247.316C63.7026 247.913 63.4086 248.212 62.8206 248.212ZM77.576 248.24C76.8013 248.24 76.134 248.095 75.574 247.806C75.014 247.517 74.58 247.106 74.272 246.574C73.9733 246.042 73.824 245.412 73.824 244.684C73.824 243.975 73.9687 243.354 74.258 242.822C74.5567 242.29 74.9627 241.875 75.476 241.576C75.9987 241.268 76.5913 241.114 77.254 241.114C77.7393 241.114 78.1733 241.193 78.556 241.352C78.948 241.511 79.2793 241.739 79.55 242.038C79.83 242.337 80.04 242.701 80.18 243.13C80.3293 243.55 80.404 244.026 80.404 244.558C80.404 244.726 80.3433 244.857 80.222 244.95C80.11 245.034 79.9467 245.076 79.732 245.076H75.238V244.068H79.172L78.948 244.278C78.948 243.849 78.8827 243.489 78.752 243.2C78.6307 242.911 78.4487 242.691 78.206 242.542C77.9727 242.383 77.6787 242.304 77.324 242.304C76.932 242.304 76.596 242.397 76.316 242.584C76.0453 242.761 75.8353 243.018 75.686 243.354C75.546 243.681 75.476 244.073 75.476 244.53V244.628C75.476 245.393 75.6533 245.967 76.008 246.35C76.372 246.723 76.904 246.91 77.604 246.91C77.8467 246.91 78.1173 246.882 78.416 246.826C78.724 246.761 79.0133 246.653 79.284 246.504C79.48 246.392 79.6527 246.345 79.802 246.364C79.9513 246.373 80.068 246.425 80.152 246.518C80.2453 246.611 80.3013 246.728 80.32 246.868C80.3387 246.999 80.3107 247.134 80.236 247.274C80.1707 247.414 80.054 247.535 79.886 247.638C79.5593 247.843 79.1813 247.997 78.752 248.1C78.332 248.193 77.94 248.24 77.576 248.24Z" fill="black"/>
</svg>
