<svg width="197" height="168" viewBox="0 0 197 168" fill="none" xmlns="http://www.w3.org/2000/svg">
<g clip-path="url(#clip0_815_5656)">
<path d="M12.19 139.31C10.12 139.31 8.51 140.09 7.37 141.65C6.23 143.21 5.66 145.38 5.66 148.16C5.66 153.95 7.83 156.85 12.18 156.85C14 156.85 16.21 156.39 18.81 155.48V160.1C16.68 160.99 14.3 161.43 11.67 161.43C7.89 161.43 5 160.28 3 157.99C1 155.7 0 152.41 0 148.12C0 145.42 0.49 143.05 1.48 141.02C2.47 138.99 3.88 137.43 5.72 136.35C7.56 135.27 9.72 134.72 12.2 134.72C14.68 134.72 17.26 135.33 19.81 136.55L18.03 141.03C17.06 140.57 16.08 140.17 15.1 139.82C14.12 139.47 13.15 139.3 12.2 139.3L12.19 139.31Z" fill="black"/>
<path d="M36.54 161.08L35.49 158.38H35.35C34.44 159.53 33.5 160.33 32.53 160.77C31.56 161.21 30.31 161.44 28.75 161.44C26.84 161.44 25.34 160.9 24.25 159.81C23.16 158.72 22.61 157.17 22.61 155.15C22.61 153.13 23.35 151.49 24.82 150.49C26.29 149.49 28.52 148.94 31.49 148.83L34.94 148.72V147.85C34.94 145.84 33.91 144.83 31.85 144.83C30.26 144.83 28.4 145.31 26.25 146.27L24.46 142.61C26.75 141.41 29.28 140.82 32.07 140.82C34.86 140.82 36.78 141.4 38.2 142.56C39.62 143.72 40.33 145.49 40.33 147.86V161.1H36.54V161.08ZM34.94 151.87L32.84 151.94C31.26 151.99 30.09 152.27 29.32 152.79C28.55 153.31 28.16 154.11 28.16 155.17C28.16 156.7 29.04 157.46 30.79 157.46C32.05 157.46 33.05 157.1 33.8 156.38C34.55 155.66 34.93 154.7 34.93 153.5V151.87H34.94Z" fill="black"/>
<path d="M51.32 161.08H45.9V133.43H51.32V161.08Z" fill="black"/>
<path d="M74.8 161.08H69.38V149.48C69.38 148.05 69.14 146.97 68.66 146.25C68.18 145.53 67.42 145.17 66.39 145.17C65 145.17 64 145.68 63.37 146.7C62.74 147.72 62.43 149.4 62.43 151.73V161.08H57.01V141.21H61.15L61.88 143.75H62.18C62.71 142.84 63.48 142.12 64.49 141.61C65.5 141.1 66.65 140.84 67.96 140.84C70.93 140.84 72.95 141.81 74 143.75H74.48C75.01 142.83 75.8 142.11 76.83 141.6C77.86 141.09 79.04 140.84 80.34 140.84C82.59 140.84 84.29 141.42 85.45 142.57C86.61 143.72 87.18 145.58 87.18 148.12V161.08H81.74V149.48C81.74 148.05 81.5 146.97 81.02 146.25C80.54 145.53 79.78 145.17 78.75 145.17C77.42 145.17 76.43 145.64 75.77 146.59C75.11 147.54 74.78 149.04 74.78 151.1V161.07L74.8 161.08Z" fill="black"/>
<path d="M116.76 148.05C116.76 151.11 116.22 153.67 115.13 155.74C114.04 157.81 112.46 159.32 110.36 160.28L116.62 167.26H109.56L104.8 161.43H104.39C100.41 161.43 97.35 160.27 95.22 157.96C93.09 155.65 92.02 152.33 92.02 148.01C92.02 143.69 93.09 140.38 95.23 138.1C97.37 135.82 100.43 134.68 104.43 134.68C108.43 134.68 111.48 135.83 113.59 138.13C115.7 140.43 116.76 143.73 116.76 148.05ZM97.79 148.05C97.79 150.95 98.34 153.14 99.44 154.61C100.54 156.08 102.19 156.81 104.38 156.81C108.78 156.81 110.97 153.89 110.97 148.05C110.97 142.21 108.78 139.27 104.41 139.27C102.22 139.27 100.57 140.01 99.45 141.48C98.33 142.95 97.78 145.14 97.78 148.05H97.79Z" fill="black"/>
<path d="M135.79 161.08L135.06 158.54H134.78C134.2 159.46 133.38 160.18 132.31 160.68C131.24 161.18 130.03 161.44 128.67 161.44C126.34 161.44 124.58 160.82 123.39 159.57C122.2 158.32 121.61 156.52 121.61 154.18V141.22H127.03V152.82C127.03 154.25 127.28 155.33 127.79 156.05C128.3 156.77 129.11 157.13 130.22 157.13C131.74 157.13 132.83 156.62 133.51 155.61C134.19 154.6 134.52 152.92 134.52 150.57V141.22H139.94V161.09H135.78L135.79 161.08Z" fill="black"/>
<path d="M154.63 161.43C151.43 161.43 148.93 160.55 147.13 158.78C145.33 157.01 144.43 154.51 144.43 151.28C144.43 148.05 145.26 145.38 146.93 143.56C148.6 141.74 150.9 140.83 153.83 140.83C156.76 140.83 158.82 141.63 160.39 143.23C161.96 144.83 162.74 147.04 162.74 149.86V152.49H149.93C149.99 154.03 150.45 155.23 151.3 156.1C152.15 156.97 153.35 157.4 154.89 157.4C156.09 157.4 157.22 157.28 158.28 157.03C159.34 156.78 160.46 156.38 161.62 155.84V160.03C160.67 160.5 159.66 160.86 158.58 161.09C157.5 161.32 156.19 161.44 154.63 161.44V161.43ZM153.86 144.69C152.71 144.69 151.81 145.05 151.16 145.78C150.51 146.51 150.14 147.54 150.04 148.88H157.65C157.63 147.54 157.28 146.51 156.6 145.78C155.92 145.05 155.01 144.69 153.86 144.69Z" fill="black"/>
<path d="M181 155.18C181 157.22 180.29 158.77 178.88 159.84C177.47 160.91 175.35 161.44 172.53 161.44C171.08 161.44 169.85 161.34 168.83 161.15C167.81 160.96 166.86 160.67 165.97 160.29V155.81C166.98 156.28 168.11 156.68 169.37 157C170.63 157.32 171.74 157.48 172.7 157.48C174.67 157.48 175.65 156.91 175.65 155.77C175.65 155.34 175.52 155 175.26 154.73C175 154.46 174.55 154.16 173.91 153.82C173.27 153.48 172.42 153.09 171.35 152.64C169.82 152 168.7 151.41 167.98 150.86C167.26 150.31 166.74 149.69 166.42 148.99C166.1 148.29 165.93 147.42 165.93 146.39C165.93 144.62 166.61 143.26 167.98 142.29C169.35 141.32 171.29 140.84 173.8 140.84C176.31 140.84 178.52 141.36 180.78 142.4L179.15 146.31C178.15 145.88 177.22 145.53 176.36 145.26C175.5 144.99 174.61 144.85 173.71 144.85C172.11 144.85 171.31 145.28 171.31 146.15C171.31 146.64 171.57 147.06 172.08 147.41C172.59 147.76 173.72 148.29 175.47 148.99C177.02 149.62 178.16 150.2 178.88 150.75C179.6 151.3 180.14 151.92 180.48 152.63C180.82 153.34 181 154.19 181 155.17V155.18Z" fill="black"/>
<path d="M193.6 157.11C194.55 157.11 195.69 156.9 197.01 156.49V160.52C195.66 161.12 194 161.43 192.03 161.43C189.86 161.43 188.28 160.88 187.29 159.79C186.3 158.7 185.81 157.05 185.81 154.86V145.28H183.22V142.99L186.21 141.18L187.77 136.99H191.24V141.22H196.8V145.29H191.24V154.87C191.24 155.64 191.46 156.21 191.89 156.58C192.32 156.95 192.89 157.13 193.6 157.13V157.11Z" fill="black"/>
<path d="M107.72 96.19C107.72 86.72 104.12 78.28 98.5 72.77C92.88 78.28 89.28 86.72 89.28 96.19C89.28 105.66 92.88 114.1 98.5 119.61C104.12 114.1 107.72 105.66 107.72 96.19Z" stroke="#FAE033" stroke-width="6.55" stroke-miterlimit="10"/>
<path d="M85.9301 95.1C91.5001 87.44 93.5401 78.49 92.2401 70.73C84.4601 71.89 76.5801 76.59 71.0201 84.26C65.4601 91.93 63.4101 100.87 64.7101 108.63C72.4901 107.47 80.3701 102.77 85.9301 95.1Z" stroke="#FAE033" stroke-width="6.55" stroke-miterlimit="10"/>
<path d="M68.9301 81.4C77.9401 78.47 84.8501 72.44 88.3501 65.4C81.3701 61.76 72.2401 60.94 63.2301 63.87C54.2201 66.8 47.3101 72.83 43.8101 79.87C50.7901 83.51 59.9201 84.33 68.9301 81.4Z" stroke="#FAE033" stroke-width="6.55" stroke-miterlimit="10"/>
<path d="M63.2401 60.33C72.2501 63.26 81.3901 62.44 88.3601 58.8C84.8601 51.76 77.9401 45.72 68.9401 42.8C59.9401 39.88 50.7901 40.69 43.8201 44.33C47.3201 51.37 54.2401 57.41 63.2401 60.33Z" stroke="#FAE033" stroke-width="6.55" stroke-miterlimit="10"/>
<path d="M71.01 39.94C76.58 47.6 84.45 52.31 92.23 53.47C93.54 45.71 91.49 36.77 85.92 29.1C80.35 21.43 72.48 16.73 64.7 15.57C63.39 23.33 65.44 32.27 71.01 39.94Z" stroke="#FAE033" stroke-width="6.55" stroke-miterlimit="10"/>
<path d="M89.29 28.01C89.29 37.48 92.89 45.92 98.51 51.43C104.13 45.92 107.73 37.48 107.73 28.01C107.73 18.54 104.13 10.1 98.51 4.59C92.89 10.1 89.29 18.54 89.29 28.01Z" stroke="#FAE033" stroke-width="6.55" stroke-miterlimit="10"/>
<path d="M111.09 29.1C105.52 36.76 103.48 45.71 104.78 53.47C112.56 52.31 120.44 47.61 126 39.94C131.56 32.27 133.61 23.33 132.31 15.57C124.53 16.73 116.65 21.43 111.09 29.1Z" stroke="#FAE033" stroke-width="6.55" stroke-miterlimit="10"/>
<path d="M128.08 42.8C119.07 45.73 112.16 51.76 108.66 58.8C115.64 62.44 124.77 63.26 133.78 60.33C142.79 57.4 149.7 51.37 153.2 44.33C146.22 40.69 137.09 39.87 128.08 42.8Z" stroke="#FAE033" stroke-width="6.55" stroke-miterlimit="10"/>
<path d="M133.78 63.87C124.77 60.94 115.63 61.76 108.66 65.4C112.16 72.44 119.08 78.48 128.08 81.4C137.08 84.32 146.23 83.51 153.2 79.87C149.7 72.83 142.78 66.79 133.78 63.87Z" stroke="#FAE033" stroke-width="6.55" stroke-miterlimit="10"/>
<path d="M126 84.26C120.43 76.6 112.56 71.89 104.78 70.73C103.47 78.49 105.52 87.43 111.09 95.1C116.66 102.77 124.53 107.47 132.31 108.63C133.62 100.87 131.57 91.93 126 84.26Z" stroke="#FAE033" stroke-width="6.55" stroke-miterlimit="10"/>
<path d="M80.01 112.51C79.45 114.23 79.76 116.03 80.7 117.44C82.28 116.84 83.58 115.56 84.13 113.84C84.68 112.12 84.38 110.32 83.44 108.91C81.86 109.51 80.56 110.79 80.01 112.51Z" fill="#FAE033"/>
<path d="M53.9099 92.01C52.4499 93.08 51.6399 94.71 51.5699 96.4C53.1999 96.84 54.9999 96.57 56.4599 95.5C57.9199 94.43 58.7299 92.8 58.7999 91.11C57.1699 90.67 55.3699 90.94 53.9099 92.01Z" fill="#FAE033"/>
<path d="M44.85 60.08C43.04 60.08 41.43 60.93 40.38 62.26C41.44 63.58 43.05 64.42 44.87 64.41C46.69 64.4 48.29 63.56 49.34 62.23C48.28 60.91 46.67 60.07 44.85 60.08Z" fill="#FAE033"/>
<path d="M56.28 28.93C54.81 27.87 53.01 27.61 51.38 28.06C51.46 29.75 52.28 31.38 53.74 32.44C55.2 33.5 57.01 33.76 58.64 33.31C58.56 31.62 57.74 29.99 56.28 28.93Z" fill="#FAE033"/>
<path d="M83.84 10.44C83.28 8.72002 81.97 7.45002 80.39 6.86002C79.47 8.27002 79.17 10.07 79.73 11.79C80.29 13.51 81.6 14.78 83.18 15.37C84.1 13.96 84.4 12.16 83.84 10.44Z" fill="#FAE033"/>
<path d="M117.01 11.69C117.57 9.97001 117.26 8.17001 116.32 6.76001C114.74 7.36001 113.44 8.64001 112.89 10.36C112.34 12.08 112.64 13.88 113.58 15.29C115.16 14.69 116.46 13.41 117.01 11.69Z" fill="#FAE033"/>
<path d="M143.1 32.19C144.56 31.12 145.37 29.49 145.44 27.8C143.81 27.36 142.01 27.63 140.55 28.7C139.09 29.77 138.28 31.4 138.21 33.09C139.84 33.53 141.64 33.26 143.1 32.19Z" fill="#FAE033"/>
<path d="M152.16 64.12C153.97 64.12 155.58 63.27 156.63 61.94C155.57 60.62 153.96 59.78 152.14 59.79C150.32 59.8 148.72 60.64 147.67 61.97C148.73 63.29 150.34 64.13 152.16 64.12Z" fill="#FAE033"/>
<path d="M140.73 95.27C142.2 96.33 144 96.59 145.63 96.14C145.55 94.45 144.73 92.82 143.27 91.76C141.81 90.7 140 90.44 138.37 90.89C138.45 92.58 139.27 94.21 140.73 95.27Z" fill="#FAE033"/>
<path d="M113.17 113.76C113.73 115.48 115.04 116.75 116.62 117.34C117.54 115.93 117.84 114.13 117.28 112.41C116.72 110.69 115.41 109.42 113.83 108.83C112.91 110.24 112.61 112.04 113.17 113.76Z" fill="#FAE033"/>
</g>
<defs>
<clipPath id="clip0_815_5656">
<rect width="197.01" height="167.26" fill="white"/>
</clipPath>
</defs>
</svg>
